<?xml version="1.0" encoding="UTF-8" standalone="no"?>
<svg
   viewBox="0 0 144958.86 7198.009"
   version="1.1"
   id="svg19"
   sodipodi:docname="GENRES.svg"
   inkscape:version="1.3 (0e150ed6c4, 2023-07-21)"
   xml:space="preserve"
   width="144958.86"
   height="7198.0093"
   xmlns:inkscape="http://www.inkscape.org/namespaces/inkscape"
   xmlns:sodipodi="http://sodipodi.sourceforge.net/DTD/sodipodi-0.dtd"
   xmlns="http://www.w3.org/2000/svg"
   xmlns:svg="http://www.w3.org/2000/svg"><defs
     id="defs19"><rect
       x="353.62744"
       y="-2.5734873"
       width="30.124939"
       height="50.712837"
       id="rect20" /></defs><sodipodi:namedview
     id="namedview19"
     pagecolor="#ffffff"
     bordercolor="#000000"
     borderopacity="0.25"
     inkscape:showpageshadow="2"
     inkscape:pageopacity="0.0"
     inkscape:pagecheckerboard="0"
     inkscape:deskcolor="#d1d1d1"
     inkscape:zoom="2.3355109"
     inkscape:cx="230.35645"
     inkscape:cy="26.974825"
     inkscape:window-width="1918"
     inkscape:window-height="1360"
     inkscape:window-x="1433"
     inkscape:window-y="0"
     inkscape:window-maximized="0"
     inkscape:current-layer="svg19" /><path
     style="font-weight:300;font-size:48.7192px;font-family:'Josefin Sans';-inkscape-font-specification:'Josefin Sans Light';fill:#ffffff;stroke:#75a5bd;stroke-width:0;stroke-linecap:round;stroke-miterlimit:4.7;paint-order:markers stroke fill"
     d="m -2869.1132,33.043437 q 0,3.848817 -1.4129,6.577092 -1.4128,2.728275 -3.8001,4.141132 -2.3385,1.461576 -5.3104,1.559014 v 0 -2.289802 q 3.5078,-0.194877 5.7976,-2.776994 2.3385,-2.582118 2.3385,-7.3566 V 3.6657588 h 2.3873 z m 18.1235,5.602708 q -2.9719,0 -5.2617,-1.315418 -2.2898,-1.315419 -3.6052,-3.556502 -1.2667,-2.289802 -1.2667,-5.115516 0,-2.776995 1.3642,-5.066797 1.3641,-2.289802 3.6539,-3.65394 2.3385,-1.364138 5.1642,-1.364138 3.4104,0 5.7002,1.997488 2.3385,1.997487 3.3616,5.212954 l -16.662,6.430935 -0.682,-1.656453 15.2491,-5.943743 -0.4872,0.682069 q -0.8282,-1.948768 -2.5334,-3.361625 -1.6565,-1.412857 -4.0924,-1.412857 -2.1924,0 -3.9463,1.071823 -1.7539,1.071822 -2.8257,2.874433 -1.0231,1.80261 -1.0231,4.092413 0,2.143644 0.9744,3.994974 1.0231,1.85133 2.8257,2.971871 1.8026,1.120542 4.1411,1.120542 1.559,0 2.9719,-0.584631 1.4616,-0.58463 2.5821,-1.510295 l 1.1693,1.656453 q -1.3642,1.071822 -3.1668,1.753891 -1.7539,0.682069 -3.6052,0.682069 z m 21.4364,0.146158 q -2.6795,0 -4.2873,-1.559015 -1.6077,-1.607733 -1.7051,-4.141132 V 19.207184 h 2.2898 v 13.202903 q 0.097,1.85133 1.1692,3.06931 1.1206,1.21798 3.3129,1.315418 1.8514,0 3.4591,-0.974384 1.6077,-0.974384 2.5821,-2.630836 1.0231,-1.705172 1.0231,-3.848817 V 19.207184 h 2.2898 v 19.049207 h -2.0462 l -0.2436,-5.992461 0.3411,1.315418 q -0.4872,1.461576 -1.7539,2.679556 -1.218,1.169261 -2.9232,1.85133 -1.6564,0.682069 -3.5078,0.682069 z m 24.4084,-11.351574 5.6514,-8.233545 h 2.3873 l -7.0643,9.938717 z m 8.4284,10.815662 h -2.7283 l -14.2747,-19.049207 h 2.8744 z m -8.4771,-8.184825 -5.8463,8.184825 h -2.436 l 7.0156,-9.69512 z m 36.9291,8.574579 q -2.6795,0 -4.8719,-1.266699 -2.1924,-1.315419 -3.5078,-3.605221 -1.2667,-2.289802 -1.2667,-5.164235 0,-3.06931 1.3154,-5.310393 1.3155,-2.241083 3.5565,-3.459063 2.2898,-1.21798 5.0181,-1.21798 2.7283,0 5.1642,1.412856 2.4847,1.412857 3.6053,3.70266 l -0.3898,1.071822 V 1.2297988 h 2.2898 V 38.256391 h -2.3385 v -5.846304 l 0.4872,1.071823 q -1.218,2.289802 -3.654,3.751378 -2.4359,1.412857 -5.4078,1.412857 z m 0.5846,-1.997487 q 2.1924,0 3.9463,-0.925665 1.7539,-0.974384 2.8257,-2.582118 1.0718,-1.656452 1.218,-3.702659 v -2.43596 q -0.341,-1.85133 -1.5103,-3.312906 -1.1693,-1.461576 -2.8257,-2.289802 -1.6565,-0.876946 -3.654,-0.876946 -2.1923,0 -3.9949,1.023104 -1.8026,1.023103 -2.8745,2.825713 -1.0718,1.802611 -1.0718,4.189852 0,2.241083 1.0718,4.092412 1.0719,1.802611 2.8745,2.923152 1.8513,1.071823 3.9949,1.071823 z m 19.6826,-33.664968 q -0.049,3.0693096 -0.097,6.0898996 -0.049,3.0205914 -0.097,6.0899004 h -2.0463 V 2.98369 Z"
     id="text19"
     aria-label="Jeux d'" /><text
     xml:space="preserve"
     id="text20"
     style="white-space:pre;shape-inside:url(#rect20);display:inline;fill:#000000;stroke:#75a5bd;stroke-width:0;stroke-linecap:round;stroke-miterlimit:4.7;paint-order:markers stroke fill"
     transform="translate(-2990.6863,-0.94676837)" /><path
     style="font-weight:bold;font-size:50.4824px;font-family:'Josefin Sans';-inkscape-font-specification:'Josefin Sans Bold';fill:#ffffff;stroke:#75a5bd;stroke-width:0;stroke-linecap:round;stroke-miterlimit:4.7;paint-order:markers stroke fill"
     d="m -2884.2081,82.410761 16.7602,-38.619036 h 0.4039 l 16.7601,38.619036 h -8.481 l -10.7023,-27.159531 5.3006,-3.634733 -12.8225,30.794264 z m 11.4595,-13.428318 h 11.1567 l 2.5746,6.158852 h -16.003 z m 27.9167,-23.726728 10.8537,26.755671 -4.2405,-0.8582 9.8441,-25.897471 h 8.683 l -16.9621,38.871447 -16.9621,-38.871447 z m 31.5515,0 h 25.3422 v 7.067536 h -18.0222 v 7.925737 h 15.9524 v 7.067535 h -15.9524 v 8.026702 h 18.729 v 7.067536 h -26.049 z m 66.8892,38.669518 -28.1691,-25.443129 2.1707,1.211577 0.1514,22.71708 h -7.4209 V 43.791725 h 0.3029 l 27.5634,25.342165 -1.6154,-0.706754 -0.1515,-23.171421 h 7.3705 v 38.669518 z m 7.2695,-38.669518 h 25.0393 v 7.067536 h -9.0364 v 30.08751 h -7.3199 v -30.08751 h -8.683 z m 38.6696,23.423833 q 0,1.766884 1.0601,3.382321 1.0601,1.615437 2.7765,2.625085 1.7669,1.009648 3.8367,1.009648 2.2717,0 4.0386,-1.009648 1.7669,-1.009648 2.7765,-2.625085 1.0602,-1.615437 1.0602,-3.382321 V 45.255715 h 7.2189 v 23.57528 q 0,4.089075 -2.0193,7.269466 -2.0193,3.129909 -5.4521,4.947275 -3.4328,1.766884 -7.6228,1.766884 v 0 q -4.1396,0 -7.5724,-1.766884 -3.3823,-1.817366 -5.4016,-4.947275 -2.0193,-3.180391 -2.0193,-7.269466 v -23.57528 h 7.32 z m 42.8596,-23.423833 q 3.4832,0 6.2093,0.908683 2.726,0.858201 4.5434,2.52412 1.8679,1.615437 2.827,3.937627 0.9592,2.271708 0.9592,5.149205 0,2.271708 -0.7068,4.543416 -0.6562,2.271708 -2.2212,4.139557 -1.5145,1.867848 -4.0386,3.028944 -2.5241,1.110612 -6.2598,1.110612 h -5.2502 v 11.812882 h -7.3199 V 45.255715 Z m 1.262,18.274628 q 1.6659,0 2.7766,-0.555306 1.1106,-0.555306 1.7164,-1.413507 0.6562,-0.858201 0.9086,-1.766884 0.3029,-0.959166 0.3029,-1.766884 0,-0.605789 -0.2019,-1.514472 -0.1514,-0.959166 -0.7068,-1.918331 -0.5553,-0.959166 -1.7164,-1.615437 -1.1106,-0.656271 -3.0289,-0.656271 h -5.2502 v 11.207092 z m 6.8656,4.543416 9.1878,14.337002 h -8.5315 l -9.3897,-14.135072 z m 15.2458,-22.818044 h 25.3421 v 7.067536 h -18.0222 v 7.925737 h 15.9524 v 7.067535 h -15.9524 v 8.026702 h 18.729 v 7.067536 h -26.0489 z"
     id="text21"
     aria-label="AVENTURE" /><path
     style="fill:#ffffff;stroke-width:0.247836"
     d="m -2930.4018,77.950627 -7.7732,-0.907353 -0.2318,-0.414229 c -0.2613,-0.466918 -1.236,-0.544261 -1.962,-0.155687 l -0.4831,0.258536 -4.2556,-0.501621 c -2.3406,-0.275897 -4.266,-0.475882 -4.2788,-0.444416 -0.013,0.03145 -0.2166,0.482375 -0.453,1.002014 l -0.4297,0.944796 -1.1484,0.507998 -1.1484,0.507998 -0.9643,-0.129338 c -1.6476,-0.220995 -3.1727,-1.693853 -3.175,-3.066362 l -9e-4,-0.537934 -0.6816,-0.137742 c -0.3748,-0.07576 -1.6295,-0.246637 -2.7881,-0.379735 -8.209,-0.942996 -7.5071,-0.784521 -9.5858,-2.164273 -1.5072,-1.000441 -3.3631,-3.196346 -5.132,-6.072245 -1.738,-2.825592 -3.3604,-4.080121 -6.66,-5.149833 -0.5122,-0.166057 -1.0369,-0.499177 -1.1659,-0.740266 l -0.2346,-0.438346 1.3967,-1.205808 1.3967,-1.205814 0.8814,-0.0089 0.8815,-0.0089 0.1269,-0.72084 0.1269,-0.720841 3.0951,-2.219537 3.095,-2.219537 0.2789,-0.653247 c 0.1533,-0.359291 0.5039,-0.853743 0.779,-1.098794 l 0.5001,-0.44554 1.9501,-0.10226 c 2.3444,-0.122937 3.6167,0.175191 4.265,0.999317 0.2655,0.337494 0.7085,0.613618 0.9844,0.613618 h 0.5018 l 0.5434,-0.879378 0.5435,-0.879371 -0.4585,-0.506684 c -0.7799,-0.86175 -1.3731,-1.044485 -3.8593,-1.188733 l -2.4038,-0.139475 3.8021,-7.015321 3.8021,-7.015315 -0.2638,-0.69891 -0.2638,-0.698909 0.2978,-0.719078 c 0.4563,-1.101466 4.0009,-2.233838 4.0009,-1.278119 0,0.110571 0.1667,0.201036 0.3705,0.201036 0.2038,0 0.6072,0.503599 0.8965,1.119109 0.6538,1.390828 1.663,2.130743 3.132,2.29632 l 1.1317,0.12757 -0.3684,0.27315 c -2.3814,1.765237 -3.6659,3.383541 -3.3465,4.215954 0.076,0.19695 -0.031,0.497524 -0.2359,0.667954 -0.6114,0.50742 -1.0842,1.625584 -1.0842,2.564182 v 0.879734 h 0.3754 c 0.4443,0 1.353,-1.398772 1.3684,-2.106607 l 0.011,-0.495675 0.3697,0.681549 0.3698,0.681549 h 0.9632 c 0.5297,0 1.1408,0.06818 1.3579,0.151515 l 0.3949,0.15151 -0.1569,-0.408688 c -0.2104,-0.548438 0.5364,-2.446411 1.1899,-3.023894 l 0.5251,-0.464068 -0.3918,0.619595 c -0.2155,0.340774 -0.462,1.009932 -0.5478,1.487018 l -0.1561,0.867423 0.3365,0.455959 0.3366,0.455953 3.085,0.359505 c 1.6968,0.197731 3.4193,0.327131 3.8278,0.287556 l 0.7428,-0.07195 0.3967,-0.843501 0.3967,-0.843508 0.1621,1.014276 0.1622,1.014269 1.1767,0.159963 c 0.6472,0.08798 1.5282,0.317829 1.9577,0.510781 1.481,0.6653 2.5325,0.298374 2.9008,-1.01228 0.077,-0.272622 0.083,0.02402 0.014,0.659206 l -0.1255,1.154881 0.5627,0.394098 c 1.4759,1.033786 2.3673,0.517538 2.8156,-1.63072 l 0.3027,-1.450503 -0.7474,-2.447252 -0.7473,-2.447253 0.1614,-0.643387 c 0.4336,-1.727297 5.1111,-1.991447 5.1111,-0.288631 v 0.594174 l 0.4866,0.154458 0.4867,0.154458 -0.053,0.891548 -0.053,0.891553 0.7435,0.20732 c 2.6301,0.733361 6.4933,-1.332124 8.4644,-4.525472 0.4914,-0.796211 0.9874,-1.389667 1.1021,-1.318781 0.1147,0.07089 0.2828,-0.167168 0.3736,-0.529001 l 0.1651,-0.657886 -0.5461,-1.317675 -0.5462,-1.317675 0.7376,-1.690161 c 1.1258,-2.579509 1.3619,-3.693237 1.3828,-6.52297 l 0.019,-2.602275 -0.461,-0.867429 c -0.2536,-0.477086 -0.867,-1.291291 -1.3631,-1.809351 l -0.9021,-0.941922 1.1153,0.170431 c 0.6134,0.09374 1.3157,0.273439 1.5608,0.399325 l 0.4455,0.228888 -0.6046,-1.192256 c -0.3326,-0.655735 -0.8443,-1.40887 -1.1373,-1.673623 l -0.5327,-0.481378 h -1.2344 -1.2344 l -0.407,0.406973 -0.4069,0.40698 0.3504,0.430593 0.3505,0.430594 -0.4957,-0.203978 c -6.6517,-2.737309 -14.5345,-3.3902614 -19.8316,-1.642717 -1.4898,0.491479 -1.5807,0.441252 -0.8627,-0.476637 0.6555,-0.8380034 0.6267,-1.0112104 -0.2936,-1.7676019 l -0.7937,-0.652344 0.8535,-1.410757 c 0.4693,-0.77592 1.4007,-2.025517 2.0696,-2.776889 l 1.2162,-1.366127 0.9566,1.119159 c 0.5261,0.615534 1.3542,1.364867 1.8401,1.665182 l 0.8835,0.546025 6.9811,-0.164847 c 3.8395,-0.09067 7.5944,-0.230922 8.3441,-0.31168 l 1.3631,-0.146822 1.0268,-1.060841 c 1.0923,-1.12857 2.0712,-3.313564 2.0712,-4.623198 v -0.770858 l 0.5653,0.838845 c 0.3109,0.46136503 0.8675,0.94512203 1.2368,1.07501403 l 0.6715,0.23616797 0.8698,-0.41476297 c 0.4784,-0.228121 0.8678,-0.332923 0.8655,-0.232894 -0,0.100023 -0.1134,1.21770697 -0.2468,2.48373097 l -0.2425,2.301867 0.2612,1.165577 c 0.1437,0.641065 0.7971,2.003039 1.452,3.0266095 0.655,1.0235704 1.4546,2.3629064 1.777,2.9763034 l 0.5861,1.115263 0.01,2.531076 c 0,1.392088 0.081,2.34006 0.1739,2.106607 0.093,-0.233459 0.1763,-1.399127 0.1859,-2.590376 l 0.017,-2.165913 -0.4678,-1.231069 c -0.2572,-0.677089 -0.9732,-2.107442 -1.591,-3.1785614 -0.6178,-1.0711185 -1.2005,-2.3585205 -1.2947,-2.8608845 l -0.1713,-0.913393 h 3.0945 c 1.702,0 3.4306,-0.06722 3.8414,-0.149371 l 0.7469,-0.149372 -0.2782,1.04197 -0.2781,1.041963 0.6156,0.499078 0.6155,0.499072 1.5147,-0.121192 1.5146,-0.121199 0.1515,1.9640225 0.1515,1.9640184 -1.3439,2.032023 c -0.7391,1.117616 -2.4015,3.760682 -3.6941,5.873488 -1.3558,2.215943 -2.4845,3.807838 -2.6673,3.762003 -0.4902,-0.122894 -0.9554,0.699162 -0.9554,1.688195 0,0.491922 -0.1026,1.000356 -0.2279,1.129854 -0.1253,0.129492 -2.1964,3.576928 -4.6024,7.660963 l -4.3746,7.42552 0.3848,1.248748 0.3847,1.248749 -0.2046,0.873253 c -0.4073,1.738065 -1.746,3.602097 -3.1175,4.340679 l -0.8878,0.478117 -0.4683,-0.292483 -0.4684,-0.292476 -0.6156,0.916163 c -0.3386,0.503888 -1.4123,2.280483 -2.386,3.947988 l -1.7703,3.031831 -0.5398,-0.05781 -0.5397,-0.05781 -0.1532,0.90102 c -0.084,0.495564 -0.5729,1.485323 -1.0859,2.199467 l -0.9329,1.298441 0.1603,0.854129 c 0.088,0.469769 0.2283,1.04138 0.3116,1.270244 l 0.1514,0.416115 -0.4952,-0.433715 -0.4953,-0.433715 h -1.1182 -1.1182 l -2.0438,1.228366 -2.0438,1.228372 1.9423,0.08485 1.9423,0.08486 -2.4468,0.04988 -2.4467,0.04988 0.3085,0.371754 0.3085,0.371755 h -0.8614 c -0.4738,0 -1.5473,-0.0717 -2.3857,-0.159324 l -1.5244,-0.159323 0.267,-0.321706 0.267,-0.321706 -0.8236,-0.137509 c -0.7226,-0.120628 -9.1274,-0.326891 -9.1265,-0.223974 1e-4,0.02175 0.8646,0.510621 1.921,1.086372 1.0564,0.575745 2.4578,1.437105 3.1141,1.914135 l 1.1934,0.867325 0.8014,-0.776762 c 0.4572,-0.443108 0.9027,-0.688264 1.0372,-0.570726 0.1296,0.113317 1.7971,0.85537 3.7054,1.648989 1.9083,0.793631 3.8239,1.591311 4.2569,1.772627 l 0.7872,0.329673 1.5409,-1.792493 c 0.8834,-1.027613 1.8694,-1.910923 2.3108,-2.070019 l 0.7698,-0.277518 -0.6196,-0.134978 c -0.3407,-0.07423 0.01,-0.07767 0.7742,-0.0076 l 1.3937,0.127348 0.3411,-0.473529 c 0.7233,-1.004084 0.9356,-0.793539 0.2854,0.282998 l -0.6842,1.132587 h -1.0568 -1.0575 l -0.7943,1.610877 -0.7944,1.610877 0.363,0.361999 0.3629,0.362 2.1794,0.208708 2.1793,0.208702 1.6405,-2.615299 c 2.8109,-4.481407 23.3364,-36.903255 25.3873,-40.101658 1.0711,-1.670423 1.9475,-3.259676 1.9475,-3.531665 V 25.6562 h 0.5886 c 0.3238,0 0.916,-0.06546 1.316,-0.14547 l 0.7274,-0.145477 0.2383,2.012389 0.2384,2.012389 -1.2633,1.942056 c -0.6948,1.068127 -3.758,6.173318 -6.8071,11.344862 l -5.5438,9.402837 -0.5094,-0.0145 -0.5095,-0.0145 -0.018,0.91225 -0.018,0.912263 -2.1894,3.757402 c -1.2042,2.066572 -2.3671,3.810989 -2.5842,3.876475 -0.2171,0.06549 -0.5621,0.207449 -0.7665,0.315477 l -0.3718,0.19641 -0.021,1.007101 -0.021,1.007094 -4.1678,7.143081 c -2.2922,3.928692 -4.2904,7.263806 -4.4403,7.411359 l -0.2725,0.268273 z m -19.103,-7.497996 c 1.644,-1.970665 -2.0236,-2.420346 -4.0413,-0.495497 -1.0085,0.962077 -0.8834,1.053131 1.4473,1.053131 h 2.1288 z m 34.006,-11.524385 c -0.068,-0.443003 -0.2216,-0.805469 -0.3424,-0.805469 -0.3235,0 -0.2674,1.092331 0.074,1.433321 0.3869,0.386934 0.4138,0.324175 0.2688,-0.627852 z m -22.4153,-4.555186 c -0.5878,-0.372701 -0.7362,-0.227365 -0.3422,0.335153 0.2122,0.302951 0.4037,0.776941 0.4255,1.05331 0.022,0.276369 0.086,0.12384 0.1423,-0.338956 l 0.1026,-0.841431 z m -19.0398,0.182612 v -0.840909 l -0.3874,-0.148683 c -0.4776,-0.183264 -1.7306,0.436288 -1.9292,0.953906 l -0.1462,0.380921 h 0.8597 c 0.4728,0 0.8596,0.111529 0.8596,0.24784 0,0.136311 0.1673,0.247834 0.3718,0.247834 h 0.3717 z m 7.5902,-0.530365 c -0.079,-0.20517 -0.4399,-0.356735 -0.8289,-0.34787 l -0.6893,0.01573 0.5631,0.226168 c 0.3098,0.124399 0.6369,0.418387 0.7271,0.653309 l 0.1639,0.427141 0.1018,-0.305439 c 0.056,-0.167997 0.039,-0.46905 -0.038,-0.669023 z m 20.5049,-1.974517 c -0.1508,-0.393059 -0.5853,-0.515707 -0.5853,-0.16522 0,0.262092 0.2709,0.536975 0.5292,0.536975 0.1094,0 0.1346,-0.167285 0.056,-0.371755 z m 18.746,-2.245154 c 0,-0.212504 -0.1116,-0.317448 -0.2479,-0.233207 -0.1363,0.08425 -0.2478,0.258118 -0.2478,0.386381 0,0.12827 0.1115,0.233214 0.2478,0.233214 0.1363,0 0.2479,-0.173877 0.2479,-0.386388 z m -34.3082,-0.384833 c 0.094,-0.151552 0.064,-0.346721 -0.065,-0.433715 -0.1297,-0.08699 -0.3078,-0.353337 -0.3958,-0.591883 -0.1798,-0.487393 -1.1669,-0.599592 -1.1669,-0.132631 0,0.696471 1.3291,1.641998 1.6281,1.158229 z m -10.3023,-0.963638 c 0,-0.136304 -0.2854,-0.247834 -0.6343,-0.247834 -0.3597,0 -0.5679,0.107272 -0.481,0.247834 0.084,0.136311 0.3696,0.247841 0.6342,0.247841 0.2646,0 0.4811,-0.11153 0.4811,-0.247841 z m 20.7045,-0.01646 c 0.09,-0.145379 0.1016,-0.326062 0.026,-0.401519 -0.211,-0.211061 -1.3994,0.147916 -1.3994,0.422731 0,0.328697 1.1682,0.310655 1.3733,-0.02119 z m -6.8753,-0.52875 c 0.4296,-0.429537 0.3687,-1.604912 -0.092,-1.781799 -0.8485,-0.325619 -1.6784,0.583775 -1.4232,1.559625 l 0.1359,0.519578 h 0.5411 c 0.2976,0 0.6749,-0.13383 0.8385,-0.297404 z m -12.0999,-1.623326 c 0,-0.170387 -0.088,-0.309801 -0.2026,-0.309801 -0.235,0 -0.7861,1.105847 -0.7777,1.560638 0.01,0.388182 0.9731,-0.844275 0.9803,-1.250837 z m 21.07,-0.363977 c 0,-0.606215 -0.5627,-0.316141 -1.0757,0.552352 l -0.4315,0.73046 0.7528,-0.428437 c 0.4141,-0.235646 0.7536,-0.620111 0.7544,-0.854375 z m 15.3674,-3.439229 c 0,-0.414947 -0.9749,-1.705297 -2.2786,-3.015877 l -1.1746,-1.180805 -0.3972,0.767989 c -0.2184,0.422393 -0.4068,1.109784 -0.4187,1.527539 l -0.022,0.759549 0.4297,0.314199 c 0.2363,0.172807 0.9561,0.386602 1.5996,0.475095 0.6434,0.0885 1.3319,0.263358 1.5298,0.388581 0.4821,0.304996 0.7317,0.29263 0.7317,-0.03625 z m -7.3926,-2.617001 c 0.2493,-0.225589 0.4532,-0.51994 0.4532,-0.654107 v -0.243952 l -1.2654,0.149875 c -2.1023,0.248984 -2.7294,1.158352 -0.7987,1.158352 h 1.1577 z m 10.8623,-10.254748 c 0,-1.366569 -0.4359,-2.650727 -1.0815,-3.186161 l -0.4148,-0.343999 -0.4808,0.435109 c -0.2644,0.239307 -0.6616,0.979438 -0.8825,1.644732 l -0.4018,1.209623 0.1634,0.74392 0.1634,0.743915 h 1.4673 1.4673 z m 4.2684,-9.052117 c -0.303,-0.212192 -0.5508,-0.546774 -0.5508,-0.743509 0,-0.402551 -0.048,-0.418996 -0.5993,-0.207265 -0.6574,0.252245 -0.4384,0.813363 0.4134,1.059305 1.1908,0.343834 1.3492,0.320496 0.7367,-0.108531 z m -3.4716,-0.989218 c 0.2996,-0.29964 -0.3824,-2.043781 -1.1613,-2.969699 l -0.8276,-0.983757 0.1293,0.681555 c 0.071,0.374851 0.2278,0.681549 0.3482,0.681549 0.1204,0 0.219,0.165031 0.219,0.366736 0,0.520118 0.7616,2.35946 0.9769,2.35946 0.099,0 0.2408,-0.06112 0.3155,-0.135844 z m 5.5615,-9.9829934 c -0.8055,-0.8900355 -0.01,-2.0466185 2.316,-3.3682315 1.6107,-0.9151 0.9711,-0.783667 -1.1492,0.236156 l -1.8207,0.875748 -0.3632,0.702343 -0.3632,0.702338 0.2992,0.3737875 c 0.2665,0.33304 1.1259,0.9036554 1.3909,0.9235474 0.055,0.0043 -0.084,-0.1964164 -0.3098,-0.4456884 z m -18.9979,-0.166363 c -0.7921,-0.4528135 -1.0357,-0.4539935 -1.6255,-0.0079 l -0.4811,0.363873 1.3631,-6.14e-4 1.3631,-6.14e-4 z m -7.317,30.2619064 c -0.4627,-0.706085 -1.111,-0.92098 -1.7558,-0.58198 l -0.4689,0.246525 0.5611,-0.585285 0.561,-0.585285 0.4303,0.270558 c 0.4381,0.275503 1.4594,1.829168 1.2023,1.829168 -0.077,0 -0.3161,-0.267167 -0.53,-0.593701 z m -8.9836,-0.645261 c -0.1535,-0.604717 -0.2402,-1.138442 -0.1926,-1.186052 0.1511,-0.151036 0.676,1.672542 0.5716,1.985685 -0.055,0.16492 -0.2256,-0.194917 -0.379,-0.799633 z m -12.8873,-1.038032 c 0.1532,-0.459547 0.6867,-0.535765 0.6867,-0.0981 0,0.215822 -0.1766,0.392401 -0.3924,0.392401 -0.2158,0 -0.3482,-0.132434 -0.2943,-0.294301 z m 18.8534,-1.165269 c -0.373,-0.59732 -1.9882,-1.342506 -2.5765,-1.188675 -0.615,0.160835 -0.61,-0.234595 0.01,-0.564902 1.0395,-0.556302 1.9494,-0.07745 2.7316,1.437566 0.3596,0.696286 0.2312,0.946117 -0.1623,0.316011 z m -16.249,-1.670957 c 1.1153,-1.566333 2.8328,-1.691027 3.8101,-0.276628 l 0.5561,0.80488 -0.6537,-0.591588 -0.6538,-0.591583 -0.9896,0.13273 c -0.5442,0.07301 -1.3557,0.393471 -1.8033,0.712154 l -0.8137,0.579425 z m 5.2351,-0.325183 0.5851,-0.509669 0.9019,0.0285 0.9019,0.0285 -0.8674,0.173453 c -0.4771,0.09539 -1.1463,0.31192 -1.487,0.481165 l -0.6196,0.307718 z m 1.2242,-1.012163 c -2.0189,-0.340344 -2.2378,-1.241893 -0.9074,-3.737984 1.0576,-1.984099 1.7461,-1.490532 1.3421,0.962035 l -0.1522,0.924001 0.7515,0.422516 0.7515,0.422516 -0.3724,-0.720006 c -0.2048,-0.396001 -0.3723,-1.157989 -0.3723,-1.693306 v -0.973307 l 0.4011,-0.332849 0.401,-0.33285 0.5934,0.736217 c 0.789,0.978885 1.5785,2.622726 1.5785,3.28646 v 0.534979 l -0.7312,0.378119 c -0.786,0.4065 -1.4554,0.431662 -3.2836,0.123459 z m 44.62,-1.851948 c 0.1477,-0.272622 0.6759,-0.94178 1.1738,-1.487018 l 0.9054,-0.991343 -0.9381,1.239178 c -1.1456,1.513433 -1.4956,1.893549 -1.1411,1.239183 z m -35.365,-1.19623 c -1.5202,-1.831804 -1.598,-6.7459 -0.1519,-9.599603 2.1005,-4.145301 8.6642,-5.419206 12.6819,-2.461351 l 1.0412,0.766558 0.6743,1.378136 0.6742,1.378143 0.1135,1.95925 0.1134,1.959257 -0.4232,1.107978 c -0.3993,1.045624 -1.6275,2.266944 -1.9527,1.941754 -0.082,-0.08205 -0.028,-0.37485 0.1192,-0.650667 l 0.2684,-0.501486 -1.7724,0.148585 c -1.0344,0.08672 -2.4653,0.426945 -3.437,0.817178 -0.9742,0.391278 -2.3536,0.71882 -3.3256,0.789688 l -1.6609,0.121094 -1.2785,-0.418172 c -1.511,-0.494213 -1.6341,-0.431903 -1.1182,0.56578 0.5477,1.05917 0.1458,1.555091 -0.5657,0.697878 z m 38.0948,-2.335435 c 0.4518,-0.57932 0.8755,-1.053303 0.9415,-1.053303 0.1935,0 -0.8416,1.375016 -1.3225,1.756863 -0.2423,0.192362 -0.071,-0.124245 0.381,-0.70356 z m -51.7269,0.224896 c -0.1855,-0.124356 -0.5384,-0.173496 -0.7842,-0.109207 l -0.447,0.116898 -0.2997,-0.559993 -0.2997,-0.559988 0.1222,-1.523183 c 0.067,-0.837752 0.3553,-2.049832 0.64,-2.693508 0.2847,-0.643682 0.4005,-1.097921 0.2573,-1.009417 -0.3111,0.192306 -2.1974,4.033508 -2.1974,4.474828 0,0.169558 -0.129,0.387954 -0.2865,0.485335 l -0.2865,0.177059 0.1431,-1.386159 c 0.528,-5.116126 10.1275,-11.068241 11.6008,-7.193062 l 0.2424,0.637607 -0.2565,1.391971 c -0.796,4.320124 -5.9513,9.223862 -8.1483,7.750819 z m -6.7484,-2.207607 c 0.4006,-0.783777 2.1245,-3.981665 3.8307,-7.106406 l 3.1024,-5.681348 -0.2562,-0.478695 c -0.1409,-0.263278 -0.1842,-0.862613 -0.096,-1.331841 l 0.1601,-0.853153 0.7424,-0.451462 0.7423,-0.451462 2.4041,0.03747 2.4041,0.03747 0.5604,0.363227 c 0.3082,0.199777 0.6202,0.551511 0.6932,0.781628 0.073,0.230124 0.2953,0.453453 0.4938,0.496289 0.1986,0.04282 -1.1063,0.743693 -2.8998,1.55745 -4.7893,2.173088 -5.9109,3.175686 -5.9109,5.283755 v 0.707246 l -1.3554,1.700862 c -1.5034,1.886681 -2.1143,3.352603 -2.1143,5.073738 0,1.468171 -0.299,1.740271 -1.9119,1.740271 h -1.3171 z m 9.9358,-18.3398059 c 0,-0.0602 0.1868,-0.425685 0.4151,-0.812178 l 0.4151,-0.702706 1.7852,-0.167285 c 0.9819,-0.09201 2.015,-0.09437 2.2958,-0.0055 l 0.5105,0.162039 -0.4926,0.834846 -0.4926,0.834846 -2.2182,-0.01745 c -1.2201,-0.0096 -2.2183,-0.06668 -2.2183,-0.126887 z"
     id="path3" /></svg>
