<?xml version="1.0" encoding="UTF-8" standalone="no"?>
<svg
   viewBox="0 0 89409.149 6929.1116"
   version="1.1"
   id="svg19"
   sodipodi:docname="GENRES.svg"
   inkscape:version="1.3 (0e150ed6c4, 2023-07-21)"
   xml:space="preserve"
   width="89409.148"
   height="6929.1118"
   xmlns:inkscape="http://www.inkscape.org/namespaces/inkscape"
   xmlns:sodipodi="http://sodipodi.sourceforge.net/DTD/sodipodi-0.dtd"
   xmlns="http://www.w3.org/2000/svg"
   xmlns:svg="http://www.w3.org/2000/svg"><defs
     id="defs19"><rect
       x="353.62744"
       y="-2.5734873"
       width="30.124939"
       height="50.712837"
       id="rect20" /></defs><sodipodi:namedview
     id="namedview19"
     pagecolor="#ffffff"
     bordercolor="#000000"
     borderopacity="0.25"
     inkscape:showpageshadow="2"
     inkscape:pageopacity="0.0"
     inkscape:pagecheckerboard="0"
     inkscape:deskcolor="#d1d1d1"
     inkscape:zoom="2.3355109"
     inkscape:cx="230.35645"
     inkscape:cy="26.974825"
     inkscape:window-width="1918"
     inkscape:window-height="1360"
     inkscape:window-x="1433"
     inkscape:window-y="0"
     inkscape:window-maximized="0"
     inkscape:current-layer="svg19" /><text
     xml:space="preserve"
     style="font-style:normal;font-variant:normal;font-weight:bold;font-stretch:normal;font-size:48.7192px;font-family:'Josefin Sans';-inkscape-font-specification:'Josefin Sans Bold';fill:#ffffff;stroke:#75a5bd;stroke-width:0;stroke-linecap:round;stroke-miterlimit:4.7;paint-order:markers stroke fill"
     x="-976.14734"
     y="-106.24666"
     id="text19"><tspan
       sodipodi:role="line"
       id="tspan19"
       x="-976.14734"
       y="-106.24666"
       style="font-style:normal;font-variant:normal;font-weight:300;font-stretch:normal;font-family:'Josefin Sans';-inkscape-font-specification:'Josefin Sans Light';fill:#ffffff;stroke-width:0">MMO</tspan></text><text
     xml:space="preserve"
     id="text20"
     style="white-space:pre;shape-inside:url(#rect20);display:inline;fill:#000000;stroke:#75a5bd;stroke-width:0;stroke-linecap:round;stroke-miterlimit:4.7;paint-order:markers stroke fill"
     transform="translate(-1083.1483,-143.44982)" /><path
     style="font-weight:bold;font-size:57.4489px;font-family:'Josefin Sans';-inkscape-font-specification:'Josefin Sans Bold';fill:#ffffff;stroke:#75a5bd;stroke-width:0;stroke-linecap:round;stroke-miterlimit:4.7;paint-order:markers stroke fill"
     d="m -957.09075,-102.61154 q 3.96397,0 7.06621,1.03408 3.10225,0.97663 5.17041,2.872444 2.1256,1.838365 3.21713,4.481014 1.09153,2.585201 1.09153,5.859788 0,2.585201 -0.80428,5.170401 -0.74684,2.5852 -2.52775,4.71081 -1.72347,2.125609 -4.59591,3.446934 -2.87245,1.263875 -7.12367,1.263875 h -5.97468 v 13.443043 h -8.33009 v -42.282389 z m 1.43622,20.796501 q 1.89582,0 3.15969,-0.631938 1.26388,-0.631938 1.95326,-1.60857 0.74684,-0.976631 1.03408,-2.010711 0.3447,-1.091529 0.3447,-2.010711 0,-0.689387 -0.2298,-1.723467 -0.17234,-1.091529 -0.80428,-2.183058 -0.63194,-1.09153 -1.95326,-1.838365 -1.26388,-0.746836 -3.44694,-0.746836 h -5.97468 v 12.753656 z m 7.81305,5.1704 10.4557,16.315488 h -9.70886 l -10.6855,-16.085692 z m 30.16072,-25.966901 q 5.22785,0 8.84713,1.78091 3.61928,1.723472 5.5151,4.94061 1.89581,3.15969 1.89581,7.525806 0,2.585201 -0.80428,5.22785 -0.74684,2.5852 -2.47031,4.71081 -1.66601,2.125609 -4.53846,3.446933 -2.815,1.263876 -6.95132,1.263876 h -5.97468 v 13.385594 h -8.33009 v -42.282389 z m 1.43623,20.796501 q 1.89581,0 3.15968,-0.631938 1.26388,-0.689387 1.95327,-1.666018 0.74683,-1.034081 1.03408,-2.12561 0.34469,-1.091529 0.34469,-1.895813 0,-0.631938 -0.2298,-1.666018 -0.17234,-1.091529 -0.80428,-2.183058 -0.63194,-1.09153 -1.95326,-1.838365 -1.26388,-0.746836 -3.44694,-0.746836 h -5.97468 v 12.753656 z m 56.58714,17.234669 q -0.74684,0.804285 -2.3554,1.666018 -1.60857,0.804285 -3.73418,1.493671 -2.06816,0.689387 -4.25122,1.09153 -2.18306,0.459591 -4.13632,0.459591 -5.1704,0 -9.30672,-1.493672 -4.13632,-1.55112 -7.06622,-4.251218 -2.92989,-2.757547 -4.48101,-6.491726 -1.55112,-3.734178 -1.55112,-8.157743 0,-5.802339 1.72346,-10.053557 1.78092,-4.308668 4.76826,-7.123664 3.04479,-2.87245 6.95132,-4.25122 3.96397,-1.37877 8.27264,-1.37877 4.07887,0 7.46836,0.91918 3.38948,0.86173 5.74489,2.183059 l -2.7001,7.755601 q -1.03408,-0.574489 -2.75755,-1.148978 -1.72346,-0.574489 -3.50438,-0.919182 -1.78092,-0.402143 -3.15969,-0.402143 -3.44693,0 -6.08958,0.861734 -2.64265,0.861733 -4.48102,2.5852 -1.78091,1.723467 -2.7001,4.308668 -0.91918,2.527751 -0.91918,5.917236 0,2.987343 1.03408,5.400197 1.03408,2.355404 2.87245,4.021422 1.89581,1.666018 4.42356,2.527752 2.5852,0.861733 5.68744,0.861733 1.78092,0 3.27459,-0.229795 1.49367,-0.287245 2.52775,-0.861734 v -5.112952 h -7.29601 v -8.042845 h 15.741 z"
     id="text21"
     aria-label="RPG" /><path
     style="fill:#ffffff;stroke-width:0.405659"
     d="m -1047.8952,-87.266011 -1.0141,-0.307111 -0.013,-2.593851 -0.013,-2.593846 -5.0574,-1.115343 c -2.7816,-0.613437 -5.2857,-1.125229 -5.5646,-1.137313 l -0.5071,-0.02199 v 2.762078 c 0,1.600161 -0.2178,3.060021 -0.5178,3.470345 l -0.5179,0.708264 -3.075,-0.635152 c -5.8204,-1.202231 -12.1405,-3.796561 -14.8948,-6.114089 l -1.2774,-1.074882 0.01,-1.079499 c 0.012,-1.809959 1.5085,-6.98205 2.2615,-7.81403 0.3898,-0.43079 1.2085,-2.0125 1.8192,-3.5149 0.6107,-1.50241 1.3002,-2.68925 1.5322,-2.63742 l 0.4219,0.0942 -0.5825,-1.91969 c -0.3204,-1.05583 -0.5845,-2.24884 -0.5869,-2.65112 -0,-0.40228 -0.4656,-1.40629 -1.0292,-2.23112 -1.38,-2.01932 -2.6261,-6.18227 -2.6261,-8.77284 0,-4.18675 1.67,-13.05309 2.7817,-14.76804 l 0.3509,-0.54127 0.9028,1.14782 c 0.968,1.23059 4.4588,8.34139 5.2453,10.68467 0.7335,2.1855 3.7338,6.32899 5.3923,7.44701 l 1.4891,1.00381 0.7035,-0.77731 0.7034,-0.77731 h 1.9227 c 1.0575,0 3.1261,0.3717 4.597,0.82599 l 2.6742,0.82598 1.3646,1.40514 c 2.067,2.12825 5.4835,0.12063 9.0451,-5.31501 l 0.6742,-1.02903 0.4265,0.42649 c 0.2346,0.23457 0.7551,0.42649 1.1567,0.42649 h 0.7302 v 0.81132 c 0,2.75753 1.5073,-0.51169 1.8586,-4.03116 l 0.2253,-2.25655 -0.575,0.70359 c -0.3162,0.38698 -0.6802,0.59842 -0.8087,0.46985 -0.1286,-0.12855 -0.7281,0.51319 -1.3322,1.42612 -1.4179,2.14259 -1.6436,2.11576 -0.5399,-0.0642 4.7309,-9.34337 6.8587,-8.75277 6.8878,1.91181 0.026,9.39271 -2.0564,13.90506 -8.0781,17.5069 -0.072,0.0431 0.3291,1.53494 0.8914,3.31517 1.7702,5.60353 2.2892,12.674348 1.2193,16.611895 l -0.2472,0.909616 -1.4747,0.395152 c -2.1775,0.583471 -5.7921,0.835317 -6.9511,0.48432 z m 6.6934,-33.731589 0.8113,-0.34864 h -1.8255 -1.8254 l 0.8113,0.34864 c 0.4462,0.19175 0.9026,0.34863 1.0141,0.34863 0.1116,0 0.5679,-0.15688 1.0142,-0.34863 z m -31.2856,-3.14386 c -0.6015,-2.50282 -2.618,-5.47914 -3.2702,-4.82691 -0.444,0.44399 0.6569,3.41494 1.7443,4.70722 1.2913,1.53459 1.877,1.58053 1.5259,0.11969 z m 38.7564,0.45001 c 0.4071,-0.35105 -1.4467,-0.0923 -1.9944,0.27843 l -0.6085,0.41177 1.2169,-0.27222 c 0.6694,-0.14972 1.2931,-0.33781 1.386,-0.41798 z m -1.8342,-8.6201 1.1233,-1.17248 -0.4645,-0.28706 c -0.4974,-0.30742 -1.866,0.74507 -2.4935,1.91758 l -0.3824,0.71444 h 0.5469 c 0.3008,0 1.0523,-0.52761 1.6702,-1.17248 z"
     id="path5" /><path
     style="fill:#ffffff;stroke-width:0.542741"
     d="m -1044.4915,-65.13394 c -0.2564,-3.169498 0.4052,-8.516434 1.1707,-9.461743 l 0.6026,-0.744065 2.0965,0.860745 2.0965,0.860745 1.9953,-2.463967 1.9953,-2.463968 -1.413,-1.144212 -1.413,-1.144213 -0.7174,-2.662277 c -0.9195,-3.412443 -0.383,-6.04947 1.7711,-8.706072 l 1.7091,-2.107919 2.3817,-1.039385 c 2.6825,-1.170619 2.4711,-1.204021 3.4921,0.551466 l 0.7606,1.307684 -1.1027,0.46453 c -0.6064,0.255492 -1.497,0.951517 -1.979,1.54673 l -0.8763,1.082195 1.3948,1.080419 c 0.7672,0.594216 1.8954,1.238437 2.5072,1.431568 l 1.1124,0.351195 0.5577,3.477398 c 0.8229,5.131502 2.8796,7.676954 7.8697,9.739871 l 2.7499,1.136856 0.1972,0.986047 c 0.1172,0.586046 -0.4383,1.782456 -1.3694,2.949262 l -1.5665,1.963221 1.6359,-0.323995 c 2.0773,-0.411413 1.7698,-0.03229 -0.9572,1.18026 -1.1817,0.52544 -3.1637,0.825633 -4.4042,0.667088 l -2.2556,-0.288253 -1.3932,-1.485325 c -0.7662,-0.816936 -1.6876,-1.830819 -2.0475,-2.253061 l -0.6545,-0.767717 -2.3104,1.331878 -2.3103,1.331876 0.1123,2.311588 c 0.2437,5.018016 -11.033,5.455314 -11.4384,0.443567 z m 7.9217,0.544397 c -0.192,-0.34679 -0.7557,-0.814925 -1.2526,-1.040329 -0.497,-0.225408 -0.3399,0.05835 0.349,0.630526 0.689,0.572176 1.0957,0.756574 0.9037,0.409739 z m 14.6224,-5.509582 1.3343,-0.665406 1.0635,0.861214 c 1.2157,0.984411 1.5934,0.728171 1.6702,-1.132924 l 0.054,-1.311804 -1.7068,-0.312626 -1.7068,-0.312637 -1.401,1.462444 c -1.6085,1.678926 -1.2616,2.386146 0.6924,1.411747 z m -11.1864,-9.166833 c 2.5194,-0.138417 2.7551,-1.289352 0.3893,-1.90139 l -1.484,-0.383927 -0.5039,-1.945137 -0.5039,-1.945148 -0.5381,0.664481 c -1.5515,1.916027 0.2343,5.643315 2.6406,5.511121 z m 4.0521,-4.286824 0.7101,-1.875712 -0.8425,-1.121653 -0.8425,-1.121663 -1.2158,0.127788 -1.2158,0.127779 -0.4044,1.618879 -0.4044,1.61888 1.2039,-0.596524 c 1.6869,-0.83589 2.5138,0.08023 1.8586,2.05909 -0.7478,2.258207 0.2572,1.528619 1.1528,-0.836881 z m 5.7404,-2.201685 -2.1298,-3.260832 3.3025,-3.96024 c 1.8164,-2.178124 4.1598,-4.837385 5.2076,-5.909461 l 1.905,-1.94923 3.3642,-7.05308 3.3641,-7.05309 2.5079,-0.43436 c 1.3793,-0.2389 3.3166,-0.26885 4.3051,-0.0666 l 1.79729,0.36783 2.93106,-1.32856 2.93106,-1.32855 7.48773,-0.80121 c 4.11825,-0.44066 7.49761,-0.70726 7.50967,-0.59245 0.0121,0.11482 -1.95081,1.94381 -4.36196,4.06442 l -4.38391,3.85566 -1.84255,5.03083 c -1.73877,4.74748 -2.24175,6.216808 -3.38613,9.891678 l -0.47762,1.533769 2.02262,1.637897 2.02263,1.637898 0.63969,-0.35496 0.63969,-0.354956 -0.48315,0.656317 c -0.26572,0.360989 -1.80591,0.949984 -3.42262,1.308889 -1.61672,0.358904 -3.32776,0.908484 -3.80231,1.221283 -0.47455,0.312807 -1.22653,0.450514 -1.67106,0.306023 -0.44454,-0.14449 -1.04504,0.02969 -1.33445,0.387087 -0.28941,0.357394 -2.69718,1.797602 -5.35058,3.200465 -2.6534,1.402858 -6.2789,3.648417 -8.0567,4.990131 l -3.2322,2.439474 -2.9365,-2.410658 -2.9366,-2.410658 z m 37.04636,-13.467693 c 0.8511,-2.58851 1.781,-4.85554 2.06644,-5.03785 0.28545,-0.18231 -0.29386,1.92327 -1.28736,4.679049 -2.28709,6.343971 -2.82904,6.593563 -0.77908,0.358801 z"
     id="path6"
     inkscape:transform-center-x="-3.7922936"
     inkscape:transform-center-y="-7.4309146" /></svg>
