<?xml version="1.0" encoding="UTF-8" standalone="no"?>
<svg
   viewBox="0 0 122111.47 7039.9461"
   version="1.1"
   id="svg19"
   sodipodi:docname="GENRES.svg"
   inkscape:version="1.3 (0e150ed6c4, 2023-07-21)"
   xml:space="preserve"
   width="122111.47"
   height="7039.9463"
   xmlns:inkscape="http://www.inkscape.org/namespaces/inkscape"
   xmlns:sodipodi="http://sodipodi.sourceforge.net/DTD/sodipodi-0.dtd"
   xmlns="http://www.w3.org/2000/svg"
   xmlns:svg="http://www.w3.org/2000/svg"><defs
     id="defs19" /><sodipodi:namedview
     id="namedview19"
     pagecolor="#ffffff"
     bordercolor="#000000"
     borderopacity="0.25"
     inkscape:showpageshadow="2"
     inkscape:pageopacity="0.0"
     inkscape:pagecheckerboard="0"
     inkscape:deskcolor="#d1d1d1"
     inkscape:zoom="4.6710219"
     inkscape:cx="226.07473"
     inkscape:cy="37.143906"
     inkscape:window-width="3360"
     inkscape:window-height="1369"
     inkscape:window-x="1432"
     inkscape:window-y="-8"
     inkscape:window-maximized="1"
     inkscape:current-layer="svg19" /><path
     style="font-weight:bold;font-size:57.4489px;font-family:'Josefin Sans';-inkscape-font-specification:'Josefin Sans Bold';fill:#ffffff;stroke:#75a5bd;stroke-width:0;stroke-linecap:round;stroke-miterlimit:4.7;paint-order:markers stroke fill"
     d="m 242.88429,34.005132 q -0.74684,0.804285 -2.35541,1.666018 -1.60857,0.804285 -3.73417,1.493671 -2.06817,0.689387 -4.25122,1.09153 -2.18306,0.459591 -4.13632,0.459591 -5.1704,0 -9.30673,-1.493672 -4.13632,-1.55112 -7.06621,-4.251218 -2.92989,-2.757547 -4.48101,-6.491726 -1.55112,-3.734178 -1.55112,-8.157743 0,-5.802339 1.72346,-10.0535575 1.78092,-4.308668 4.76826,-7.123664 3.04479,-2.872445 6.95132,-4.251218 3.96397,-1.378774 8.27264,-1.378774 4.07887,0 7.46836,0.919183 3.38948,0.861733 5.74489,2.183058 l -2.7001,7.755601 q -1.03408,-0.574489 -2.75755,-1.148978 -1.72347,-0.574489 -3.50438,-0.919182 -1.78092,-0.402143 -3.15969,-0.402143 -3.44694,0 -6.08958,0.861734 -2.64265,0.861733 -4.48102,2.5852 -1.78091,1.723467 -2.7001,4.3086685 -0.91918,2.527751 -0.91918,5.917236 0,2.987343 1.03408,5.400197 1.03408,2.355404 2.87245,4.021422 1.89581,1.666018 4.42356,2.527752 2.5852,0.861733 5.68744,0.861733 1.78092,0 3.27459,-0.229795 1.49367,-0.287245 2.52775,-0.861734 V 24.18137 h -7.29601 v -8.042845 h 15.741 z m 4.71076,4.251219 19.07303,-43.9484085 h 0.4596 l 19.07303,43.9484085 h -9.65142 l -12.17916,-30.9075085 6.03213,-4.13632 -14.59202,35.0438285 z m 13.0409,-15.281407 h 12.69621 l 2.92989,7.008765 h -18.2113 z m 31.71174,15.281407 V -5.7495065 h 0.0575 l 23.4966,33.3203615 -3.56184,-0.804284 23.43915,-32.5160775 h 0.1149 V 38.256351 h -8.33009 V 13.036284 l 0.51704,4.308668 -14.30477,20.33691 h -0.1149 l -14.70692,-20.33691 1.43622,-3.963974 v 24.875373 z m 54.46156,-42.2823905 h 28.83935 v 8.042846 h -20.50926 v 9.0194775 h 18.15385 v 8.042846 h -18.15385 v 9.134375 h 21.31354 v 8.042846 h -29.64363 z m 60.8384,10.225904 q -2.41285,-1.321324 -4.9406,-2.183058 -2.4703,-0.861733 -4.65336,-0.861733 -2.7001,0 -4.25122,1.091529 -1.55112,1.091529 -1.55112,3.274587 0,1.493671 1.14898,2.7000985 1.20642,1.148978 3.04479,2.06816 1.89581,0.919183 3.90652,1.666019 1.83837,0.689386 3.61928,1.666018 1.83837,0.919182 3.27459,2.355404 1.43622,1.378774 2.29796,3.504383 0.86173,2.068161 0.86173,5.112952 0,3.217138 -1.66602,5.974686 -1.66602,2.757547 -4.88315,4.481014 -3.21714,1.666018 -7.92795,1.666018 -2.41286,0 -4.94061,-0.459591 -2.4703,-0.517041 -4.88315,-1.493672 -2.41286,-1.03408 -4.65336,-2.5852 l 3.67673,-6.491726 q 1.49367,1.091529 3.21713,1.953263 1.78092,0.804284 3.56184,1.263876 1.78091,0.459591 3.27458,0.459591 1.49367,0 2.98735,-0.402143 1.55112,-0.459591 2.52775,-1.493671 1.03408,-1.03408 1.03408,-2.872445 0,-1.263876 -0.86174,-2.297956 -0.80428,-1.03408 -2.2405,-1.895813 -1.37878,-0.861734 -3.04479,-1.493672 -1.95327,-0.746835 -4.02143,-1.723467 -2.06816,-0.976631 -3.90652,-2.355405 -1.78092,-1.436222 -2.9299,-3.504382 -1.09153,-2.12561 -1.09153,-5.1704015 0,-3.67673 1.60857,-6.376828 1.66602,-2.70009799 4.65336,-4.251218 2.98735,-1.60857 6.89387,-1.780916 5.11295,0 8.27264,1.206427 3.21714,1.206426 5.74489,2.87244501 z"
     id="text21"
     aria-label="GAMES" /><path
     style="fill:#ffffff;stroke-width:1.2762"
     d="m 135.41753,38.832693 c -1.25892,-0.192006 -2.42392,-0.541689 -4.39587,-1.319424 -2.7209,-1.073126 -4.52036,-2.12161 -5.86222,-3.41575 -0.36847,-0.355361 -0.8548,-0.752288 -1.08077,-0.882052 -2.00371,-1.150784 -3.36297,-3.344602 -3.54577,-5.722859 -0.0514,-0.669717 -0.0565,-0.682377 -0.35863,-0.891701 -0.78022,-0.540693 -1.91142,-1.902613 -2.42185,-2.915809 -0.1252,-0.248555 -0.55315,-0.993478 -0.95098,-1.655397 -1.23061,-2.047514 -1.54663,-2.77794 -1.71887,-3.972945 -0.1086,-0.75322 -0.022,-1.510841 0.23137,-2.022756 0.14796,-0.299065 0.14852,-0.320557 0.0115,-0.444452 -0.21032,-0.190333 -0.61681,-0.997001 -0.76573,-1.519596 -0.0711,-0.249512 -0.18773,-0.82262 -0.25916,-1.273556 -0.15924,-1.005335 -0.2839,-1.528479 -0.7534,-3.1616195 -0.45277,-1.575048 -0.4748,-2.072744 -0.12926,-2.921819 0.12882,-0.316564 0.35483,-0.750859 0.50225,-0.965109 l 0.26802,-0.389551 -0.3312,-0.376265 c -0.57655,-0.654976 -0.8163,-1.576234 -1.0344,-3.974641 -0.24049,-2.644691 -0.14126,-5.353587 0.24229,-6.61433 0.0688,-0.225953 0.12634,-0.725117 0.12799,-1.109243 0.006,-1.5057 0.2467,-3.086324 0.60991,-4.0130935 0.29729,-0.758579 0.6426,-1.146242 1.27527,-1.431653 0.29561,-0.133351 0.54945,-0.25352 0.56407,-0.267022 0.0147,-0.01353 -0.0317,-0.137064 -0.10273,-0.274602 -0.24548,-0.474711 -0.171,-1.094809 0.2389,-1.989063 0.39586,-0.863598 0.60036,-1.533188 0.86407,-2.829332 0.24648,-1.211354 0.36445,-1.522111 1.08348,-2.853964 1.08549,-2.010643 1.62561,-2.596947 2.57602,-2.796304 0.3568,-0.07479 0.44188,-0.122006 0.39997,-0.221434 -0.41635,-0.988605 -0.1123,-2.193207 1.05953,-4.196959 0.32925,-0.563038 0.83142,-1.45442 1.11594,-1.980857 0.28451,-0.526423 0.69904,-1.16107 0.92119,-1.410314 l 0.4039,-0.453169 -0.59599,-0.04901 c -0.32781,-0.02692 -1.42409,-0.08474 -2.43617,-0.128577 -1.0121,-0.04377 -1.84932,-0.08959 -1.8605,-0.101839 -0.0115,-0.01276 0.0485,-1.057531 0.13256,-2.322881 0.20423,-3.073473 0.20402,-3.089974 -0.0433,-3.356804 -0.28296,-0.305308 -0.72989,-0.29871 -1.11498,0.01646 -0.42364,0.346733 -0.60618,0.423446 -1.0077,0.423446 -0.75969,0 -1.23815,-0.582692 -1.18958,-1.448702 0.0329,-0.587363 0.28087,-1.025269 0.69145,-1.221308 0.53126,-0.253659 1.01465,-0.118177 1.6496,0.462537 0.36259,0.331572 0.59997,0.387904 0.95435,0.226438 0.35906,-0.163598 0.3965,-0.393494 0.47999,-2.948135 0.0435,-1.332715 0.0907,-2.434697 0.1049,-2.44885 0.0142,-0.01417 1.08808,0.02387 2.38653,0.08449 l 2.36081,0.110265 0.19559,0.227408 c 0.32478,0.377577 0.2673,0.71248 -0.21336,1.243243 -0.45251,0.499669 -0.53657,0.715144 -0.47067,1.206498 0.16636,1.240285 2.29333,1.386041 2.68994,0.184323 0.1366,-0.413923 0.0434,-0.763694 -0.33915,-1.272901 -0.28954,-0.385397 -0.32852,-0.486575 -0.29305,-0.760717 0.0225,-0.173909 0.1243,-0.404993 0.22629,-0.513535 0.17108,-0.182102 0.24615,-0.197149 0.97218,-0.194902 1.00344,0.0025 3.67999,0.137588 3.7635,0.189096 0.0348,0.02157 0.018,1.031765 -0.0376,2.244975 -0.0555,1.213216 -0.0813,2.327769 -0.0572,2.476805 0.0486,0.300687 0.42361,0.590936 0.76406,0.591472 0.10733,1.66e-4 0.41469,-0.146356 0.68315,-0.325625 0.64337,-0.429636 0.94151,-0.48205 1.42113,-0.249856 0.20561,0.09954 0.40895,0.242071 0.45186,0.316755 0.20654,0.359457 0.19912,0.358411 0.74792,0.105287 0.83864,-0.386806 1.50944,-0.584683 2.47259,-0.729379 0.7662,-0.115115 1.02728,-0.120475 1.78269,-0.0365 2.62503,0.291894 4.36404,1.335822 5.19599,3.119147 0.51226,1.098077 0.52336,1.218461 0.52091,5.647242 -0.001,2.214365 -0.0186,5.061398 -0.0387,6.326747 -0.0304,1.919869 -0.0133,2.430568 0.10325,3.085699 0.0768,0.431793 0.18298,1.404367 0.23578,2.161287 0.10949,1.569701 0.0102,3.362649 -0.2316,4.202064 -0.16223,0.562105 -0.16306,0.735083 -0.0662,13.8602045 0.0521,7.055297 0.0662,7.612159 0.19306,7.568716 0.10836,-0.03714 0.10465,-0.02182 -0.0177,0.07363 -0.14966,0.116646 -0.15296,0.304147 -0.10273,5.8242655 0.0286,3.137026 0.0753,7.087305 0.10375,8.778402 0.0951,5.64109 -0.1987,11.033997 -0.71007,13.033449 -0.22319,0.872697 -0.39799,1.156986 -1.16186,1.889685 -1.25042,1.199392 -2.74091,2.038068 -4.40029,2.47596 -0.67535,0.178224 -1.01612,0.215999 -2.11938,0.234965 -0.72306,0.01276 -1.42558,0.0051 -1.56115,-0.01506 z m -7.10733,-8.347182 c -0.87967,-0.386971 -1.26837,-0.601552 -1.74965,-0.965885 -0.6309,-0.477609 -1.33887,-1.296783 -1.67413,-1.937135 -0.12571,-0.240182 -0.24233,-0.423013 -0.25906,-0.406282 -0.0167,0.01672 0.0846,0.246284 0.22525,0.510115 0.66356,1.244956 1.67438,2.146406 3.03382,2.705579 0.45857,0.18861 0.82247,0.269012 0.42377,0.09368 z m -7.00805,-8.156156 c 0.0722,-0.225954 0.19039,-0.501832 0.26254,-0.613053 0.0807,-0.124304 0.0911,-0.177559 0.0273,-0.138214 -0.19254,0.118688 -0.43903,0.718378 -0.4715,1.147172 -0.0177,0.234172 -0.0137,0.333321 0.009,0.220337 0.0227,-0.112943 0.10031,-0.390278 0.17264,-0.616242 z m 0.0278,-4.71908 c -0.58518,-0.821817 -0.54492,-2.021416 0.0953,-2.840144 l 0.25702,-0.328662 -0.25696,0.238141 c -0.62032,0.574933 -0.81395,1.654888 -0.44289,2.470322 0.16815,0.369526 0.39773,0.701405 0.48521,0.701405 0.0186,0 -0.0433,-0.108478 -0.13771,-0.241062 z m 8.1862,-2.639064 c -0.43115,-0.379505 -0.84142,-1.149418 -0.92213,-1.730412 -0.066,-0.474994 0.1368,-1.309418 0.42388,-1.744299 0.11461,-0.173604 0.19457,-0.329481 0.17768,-0.346364 -0.0694,-0.06943 -0.4902,0.693352 -0.61116,1.108007 -0.29982,1.027833 0.0972,2.209654 0.95364,2.838316 0.41714,0.306213 0.40784,0.253035 -0.022,-0.125197 z M 114.65299,9.8394165 c -0.12392,-0.359254 -0.16912,-0.691987 -0.16712,-1.231708 0.002,-0.659749 0.0421,-0.874639 0.30301,-1.643313 0.0306,-0.09035 -0.0153,-0.03496 -0.10236,0.123283 -0.39835,0.724594 -0.44117,1.927766 -0.1003,2.81985 0.23716,0.6206975 0.28695,0.5699305 0.0667,-0.06802 z m 11.52088,-4.460775 c -0.41256,-0.279644 -1.00499,-0.882373 -1.2083,-1.229297 -0.23559,-0.401994 -0.35438,-0.419861 -0.14884,-0.02233 0.19753,0.381984 0.69063,0.902128 1.10619,1.166839 0.39037,0.248671 0.59442,0.317663 0.25095,0.08487 z m -9.41192,-5.69835499 c -0.0309,-0.09724 -0.0838,-0.439248 -0.11767,-0.76003401 l -0.0615,-0.583242 -0.0115,0.50127 c -0.006,0.27569901 0.0295,0.61771101 0.079,0.76003401 0.10031,0.287747 0.19985,0.361078 0.11129,0.08193 z m 17.44668,-5.71859701 c -0.16352,-0.169468 -0.48531,-0.582768 -0.71508,-0.918449 -0.22978,-0.335682 -0.41776,-0.572508 -0.41776,-0.526272 0,0.157357 0.63195,1.053256 0.99012,1.403641 0.44089,0.43132 0.54942,0.462562 0.14272,0.04109 z m -13.16415,-6.8197465 c -0.417,-0.63674 -0.47123,-1.486442 -0.1367,-2.142171 0.19117,-0.374695 0.6861,-0.839299 1.05834,-0.993491 0.14799,-0.06125 0.25339,-0.12711 0.23424,-0.146293 -0.0712,-0.07121 -0.60892,0.209759 -0.9138,0.477456 -0.44054,0.386808 -0.69859,0.976123 -0.69734,1.592558 0.001,0.49984 0.19677,1.0767 0.46655,1.374797 0.21051,0.232616 0.20611,0.16911 -0.0115,-0.162856 z m 11.81439,-1.700513 c 0.077,-0.178326 0.23725,-0.455645 0.35633,-0.616244 l 0.21648,-0.291996 -0.25416,0.235614 c -0.44511,0.412649 -0.66193,1.121647 -0.59382,1.941766 0.0144,0.174255 0.0458,0.04468 0.0796,-0.328662 0.0306,-0.338924 0.11869,-0.76214 0.19556,-0.940478 z m -16.24224,0.842911 c -0.0263,-0.0656 -0.0457,-0.04607 -0.0496,0.04964 -0.004,0.08665 0.0158,0.135139 0.0431,0.10784 0.0273,-0.02731 0.0302,-0.09814 0.006,-0.157486 z m 0.30263,-1.052745 c 0.5526,-2.029174 1.64995,-4.162552 3.00069,-5.833761 0.34286,-0.424213 0.36042,-0.458019 0.0853,-0.164326 -1.1601,1.238473 -2.26872,3.150403 -2.87486,4.958015 -0.23122,0.689547 -0.48358,1.630332 -0.48653,1.8138 -0.002,0.179562 0.0766,-0.04389 0.27538,-0.773728 z m 5.18044,-11.052159 c 0.0736,-0.112434 0.10043,-0.204526 0.0593,-0.204526 -0.13945,0 -0.33997,0.557296 -0.32967,0.916243 l 0.0102,0.357326 0.063,-0.432265 c 0.0347,-0.237746 0.12341,-0.524293 0.19706,-0.636778 z m 9.70252,-10.52243 0.65732,-0.614751 -0.19398,-0.162015 c -0.19037,-0.159016 -0.60693,-0.212119 -0.87049,-0.11103 -0.22437,0.08614 -0.37343,0.490448 -0.37343,1.01303 0,0.27339 0.0277,0.495361 0.0616,0.493268 0.034,-0.0026 0.35742,-0.280434 0.71895,-0.618554 z m 22.59553,75.070488 c -1.88641,-0.396558 -3.51976,-1.257617 -4.98983,-2.630486 -0.44786,-0.418254 -0.66946,-0.699977 -0.82469,-1.048459 -0.3622,-0.813112 -0.62442,-2.434893 -0.81437,-5.036704 -0.12571,-1.721224 -0.14132,-10.330959 -0.0328,-18.058029 0.0711,-5.0617435 0.0688,-5.2023315 -0.0836,-5.3214135 -0.1104,-0.08614 -0.12022,-0.115881 -0.0333,-0.100571 0.1086,0.01915 0.12494,-0.7316 0.13762,-6.30502699 0.008,-3.47970201 0.0591,-7.67276801 0.11359,-9.31789201 0.11052,-3.3296315 0.067,-4.7238925 -0.17967,-5.7594855 -0.12609,-0.529359 -0.17723,-1.100234 -0.21138,-2.358436 -0.0454,-1.673674 0.0138,-2.618618 0.2767,-4.42023 0.11154,-0.764362 0.12149,-1.277832 0.0642,-3.327707 -0.10006,-3.577867 -0.11652,-8.39819 -0.0317,-9.243627 0.1881,-1.872789 0.83173,-3.118944 2.05438,-3.977579 1.15766,-0.812997 2.6721,-1.255803 4.30837,-1.259734 2.52208,-0.0064 4.6299,0.983741 7.41408,3.481565 1.11959,1.004429 2.81569,2.343596 3.45539,2.728194 0.67777,0.407507 1.07148,0.5965 2.08975,1.003177 1.51992,0.60703 2.08343,1.078985 2.77534,2.324401 0.19248,0.346453 0.67356,1.203019 1.06907,1.90348 0.99298,1.75863 1.13726,2.061935 1.31925,2.773563 0.18817,0.735708 0.19858,1.094796 0.0463,1.600443 l -0.11256,0.374006 0.31926,0.05105 c 1.11529,0.17835 1.74349,0.888496 3.05945,3.45858 0.38341,0.748804 0.49685,1.072936 0.66138,1.889812 0.31726,1.575189 0.46199,2.096469 0.76422,2.752543 0.15614,0.338937 0.33823,0.764144 0.40465,0.944906 0.16345,0.444862 0.15548,1.233687 -0.0151,1.494046 -0.0737,0.112563 -0.12099,0.21767 -0.10503,0.233649 0.016,0.01596 0.27037,0.13732 0.56534,0.269664 0.73169,0.328291 1.05158,0.723113 1.40489,1.734011 0.25942,0.7422695 0.40306,1.6932125 0.44785,2.9651215 0.0295,0.838037 0.1007,1.447285 0.23978,2.054137 0.10886,0.474508 0.22648,1.287952 0.26154,1.80765 0.1229,1.821866 -0.0704,5.308536 -0.38679,6.976734 -0.11039,0.582297 -0.46383,1.323239 -0.79165,1.659815 l -0.28902,0.296744 0.33152,0.512934 c 0.77077,1.192517 0.84783,1.918272 0.37541,3.535932 -0.52746,1.8061435 -0.59416,2.0756405 -0.77279,3.1222985 -0.27574,1.615645 -0.55142,2.427825 -1.01647,2.994667 l -0.19865,0.242135 0.19334,0.415188 c 0.28086,0.603138 0.27603,1.801373 -0.0115,2.792642 -0.24846,0.857359 -0.4968,1.361997 -1.43813,2.922241 -0.39535,0.655271 -0.80047,1.353485 -0.90027,1.551591 -0.17606,0.349477 -0.17697,0.364575 -0.0304,0.507805 0.0831,0.08116 2.07252,1.833097 4.42097,3.893155 l 4.26991,3.745549 0.2594,0.717677 c 0.89639,2.480022 1.20858,3.272076 1.31276,3.330373 0.0647,0.03624 0.11767,0.110265 0.11767,0.16467 0,0.05435 0.1684,0.537476 0.37421,1.073598 0.58926,1.534963 0.52857,1.600559 -1.07744,1.1643 -0.62615,-0.170095 -1.21398,-0.358348 -1.3063,-0.418329 -0.0923,-0.05999 -0.61156,-0.22377 -1.15385,-0.363975 -0.54229,-0.140204 -1.28179,-0.341986 -1.64331,-0.44841 -0.36153,-0.106436 -0.79975,-0.218155 -0.97382,-0.248299 -0.26674,-0.0462 -0.64776,-0.355897 -2.42389,-1.970201 -1.15904,-1.053476 -2.86383,-2.601454 -3.78839,-3.439964 l -1.68101,-1.524573 -0.34341,0.6427 c -0.71582,1.339727 -1.76889,2.424582 -2.91948,3.007632 -0.21453,0.108732 -0.48473,0.321783 -0.60044,0.4735 -0.29766,0.390239 -1.36097,1.268462 -2.18261,1.802684 -1.74575,1.135061 -5.28176,2.61119 -7.43597,3.104203 -1.09669,0.250979 -3.11819,0.292495 -4.10829,0.08436 z m 26.0159,-4.011665 c 0.10222,-0.130326 0.0993,-0.133236 -0.031,-0.03101 -0.13686,0.107329 -0.18039,0.174803 -0.11282,0.174803 0.0171,0 0.0818,-0.0647 0.14379,-0.143778 z m -14.99176,-4.458747 c 0.90431,-0.390648 2.05473,-1.432405 2.56317,-2.321069 0.3595,-0.62833 0.32081,-0.696312 -0.0578,-0.101594 -0.65907,1.035364 -1.49059,1.780951 -2.63323,2.361142 -0.61666,0.313119 -0.53999,0.349989 0.12786,0.06151 z m 6.43712,-7.676468 c -0.0916,-0.409102 -0.27691,-0.825147 -0.4017,-0.902268 -0.0402,-0.02489 0.014,0.166903 0.12073,0.426152 0.10656,0.25925 0.19472,0.598925 0.19581,0.754828 0.001,0.196268 0.0282,0.257181 0.0874,0.198016 0.0592,-0.0592 0.0584,-0.20584 -0.002,-0.476728 z m 0.0389,-5.254004 c 0.24674,-0.421048 0.34598,-1.179933 0.21674,-1.65753 -0.0958,-0.354032 -0.57533,-1.141786 -0.64975,-1.06737 -0.0242,0.02425 0.0158,0.110392 0.0892,0.191456 0.0734,0.08103 0.21399,0.329684 0.3126,0.5526 0.26137,0.590872 0.23434,1.32653 -0.0713,1.943386 -0.26623,0.537145 -0.20356,0.560002 0.1026,0.03739 z m -8.10395,-2.555624 c 0.51938,-0.59155 0.62801,-0.904387 0.62801,-1.808506 0,-0.752822 -0.0199,-0.857637 -0.23802,-1.251221 -0.13092,-0.236252 -0.30821,-0.493064 -0.39397,-0.570683 -0.0909,-0.08232 -0.0375,0.05552 0.12797,0.330347 0.70062,1.16352 0.58002,2.368851 -0.33557,3.353422 -0.21609,0.232372 -0.31477,0.381356 -0.21929,0.331074 0.0955,-0.05029 0.28938,-0.223286 0.43087,-0.384433 z m 14.68049,-5.1739105 c 0.18704,-0.691016 0.13388,-1.798665 -0.11358,-2.365647 -0.23465,-0.537654 -0.28098,-0.490115 -0.0799,0.08193 0.29759,0.846689 0.27382,1.972078 -0.0584,2.7662125 -0.0433,0.103628 -0.0361,0.138966 0.0209,0.103628 0.0477,-0.02947 0.15162,-0.2932735 0.23092,-0.5862025 z m -11.24491,-4.418073 c 0.38707,-0.277972 0.86589,-0.86744 1.00781,-1.240707 0.12251,-0.322345 0.0494,-0.268081 -0.19054,0.14143 -0.11626,0.198489 -0.45796,0.586726 -0.75919,0.862744 -0.60379,0.553263 -0.62619,0.644525 -0.0581,0.236533 z m 9.2176,-6.266843 c 3.1e-4,-0.135573 -0.0313,-0.320443 -0.0701,-0.410825 -0.0526,-0.122261 -0.0724,-0.05922 -0.0773,0.2465 -0.004,0.225952 -0.0241,0.55872501 -0.0453,0.73948701 l -0.0387,0.328662 0.11537,-0.328662 c 0.0634,-0.180762 0.11563,-0.439578 0.11601,-0.57516201 z m -17.43947,-5.066975 c 0.29176,-0.313094 0.6923,-0.907284 0.83537,-1.239226 0.1524,-0.353613 0.0683,-0.268311 -0.26008,0.263614 -0.16619,0.269255 -0.49498,0.700639 -0.73062,0.958624 -0.23565,0.257987 -0.35451,0.428947 -0.26413,0.379916 0.0904,-0.04901 0.27914,-0.212349 0.41946,-0.362928 z m 13.18992,-6.9964395 c 0.38787,-0.749161 0.24239,-1.674618 -0.36719,-2.335937 -0.3324,-0.360606 -0.76894,-0.648405 -0.85422,-0.563141 -0.0246,0.02463 0.0442,0.07874 0.15298,0.120092 0.30143,0.114603 0.84995,0.75572 1.01393,1.185113 0.18645,0.488202 0.14079,1.10576 -0.12277,1.661154 -0.10721,0.225953 -0.20845,0.447809 -0.2249,0.493001 -0.0619,0.170156 0.24641,-0.259301 0.40222,-0.560244 z m -11.76191,-0.390291 c 6.9e-4,-0.206465 -0.0539,-0.560906 -0.12111,-0.787677 -0.12494,-0.420512 -0.59006,-1.1509 -0.67737,-1.063568 -0.0265,0.02655 0.0102,0.113328 0.0826,0.192784 0.072,0.07951 0.22542,0.347794 0.34104,0.596195 0.16569,0.35596 0.21066,0.582219 0.21229,1.067894 0.001,0.42845 0.0263,0.578685 0.0817,0.492987 0.0438,-0.06777 0.0801,-0.292162 0.0809,-0.498615 z m 15.77926,-0.956928 c -0.33129,-1.449826 -1.108,-3.270965 -1.9549,-4.583624 -0.39089,-0.605841 -1.26949,-1.717574 -1.4393,-1.821203 -0.055,-0.03357 0.0521,0.122134 0.23791,0.345994 1.35743,1.63494 2.6231,4.193754 3.11686,6.301364 0.0819,0.34963 0.16563,0.619 0.18604,0.598594 0.0204,-0.02042 -0.0456,-0.398918 -0.14661,-0.841125 z m -5.05457,-10.852751 c -0.0546,-0.291398 -0.35224,-0.80174 -0.42503,-0.728946 -0.02,0.02004 0.0393,0.160879 0.13189,0.31285 0.10198,0.167298 0.16956,0.422184 0.17126,0.646056 0.002,0.301798 0.0189,0.342076 0.0904,0.219177 0.05,-0.08602 0.0636,-0.278431 0.0315,-0.449137 z m -62.19735,60.934226 c -0.43612,-0.121495 -1.1251,-0.815052 -1.25863,-1.266996 -0.20846,-0.705528 -0.0735,-1.330717 0.40444,-1.873694 0.44005,-0.49993 1.02771,-0.740022 1.65162,-0.674821 0.59581,0.06228 0.84503,0.189618 1.26702,0.647433 1.32706,1.439694 -0.14725,3.702158 -2.06445,3.168078 z m 7.14558,-4.309009 c -0.18181,-0.03701 -0.6724,-0.123792 -3.45095,-0.610948 -2.58518,-0.453182 -4.85784,-0.847544 -6.86083,-1.190513 -1.92513,-0.329631 -1.97363,-0.341296 -1.96727,-0.472758 0.002,-0.05347 0.0882,-0.559351 0.19023,-1.124239 0.18046,-0.999019 0.19099,-1.026329 0.38559,-1.000116 0.11001,0.0148 0.93955,0.154997 1.84336,0.311498 1.86288,0.322575 7.32824,1.250443 9.24363,1.569318 0.70046,0.116644 1.30083,0.235601 1.33412,0.264405 0.12596,0.10886 -0.31429,2.310923 -0.45904,2.296322 -0.0519,-0.0051 -0.16846,-0.02463 -0.25884,-0.04301 z m -5.29968,-4.356663 c -0.61171,-0.105542 -1.08406,-0.421761 -1.37861,-0.92307 -0.58332,-0.992801 -0.26326,-2.217287 0.71933,-2.752083 0.48924,-0.266269 1.25915,-0.292889 1.76923,-0.06113 0.37828,0.171853 0.82849,0.650254 1.00143,1.064129 0.15761,0.377222 0.15081,1.065967 -0.0144,1.46214 -0.33449,0.801869 -1.28459,1.350129 -2.09693,1.210053 z m 71.56868,-2.376354 c -0.58577,-0.254081 -0.90626,-0.760444 -0.90626,-1.431844 0,-0.929413 0.64427,-1.560346 1.59331,-1.560346 h 0.44955 l -0.47815,-1.00652 c -0.52975,-1.115192 -1.51909,-3.698562 -1.61264,-4.210996 -0.0553,-0.302501 -0.0489,-0.319488 0.0791,-0.213422 0.21688,0.179652 1.23666,0.211034 1.96471,0.06049 0.64576,-0.133543 1.66531,-0.519941 2.39168,-0.906429 0.22139,-0.117794 0.45329,-0.214186 0.51533,-0.214186 0.25693,0 0.84584,1.152762 1.99864,3.912209 0.4132,0.989063 0.86399,2.03202 1.00176,2.317687 0.20948,0.434346 0.2445,0.591524 0.21393,0.960146 -0.067,0.808108 -0.63387,1.361549 -1.4554,1.420982 -1.17561,0.085 -2.04307,-1.051585 -1.60427,-2.102033 0.27238,-0.65208 0.80008,-1.015379 1.48374,-1.021529 0.24353,-0.0025 0.44278,-0.01839 0.44278,-0.03612 0,-0.01762 -0.1433,-0.317827 -0.31846,-0.66705 -0.26261,-0.523617 -0.94122,-2.150975 -1.3211,-3.168129 l -0.0869,-0.232525 -0.36563,0.321836 c -0.82031,0.722066 -1.90749,1.109638 -3.10989,1.108656 -0.50658,-4.21e-4 -0.71195,0.02718 -0.68405,0.09214 0.022,0.05105 0.17582,0.425501 0.34198,0.83223 0.52747,1.291027 1.41455,3.359712 1.55029,3.615286 0.27515,0.518052 0.10465,1.468803 -0.33479,1.866126 -0.4182,0.378192 -1.20977,0.497339 -1.74931,0.263319 z m 0.81921,-7.143855 c 0.42932,-0.06866 1.02091,-0.203185 1.31465,-0.298888 0.60627,-0.197506 1.93076,-0.839199 2.01562,-0.97653 0.0309,-0.05003 0.0102,-0.253583 -0.0449,-0.452303 l -0.1012,-0.361321 -0.38014,0.335453 c -0.44352,0.391374 -1.2609,0.822135 -1.92792,1.016054 -0.52586,0.152865 -1.62066,0.181044 -1.96249,0.05054 l -0.22363,-0.08538 0.22021,0.448996 c 0.12111,0.246946 0.24023,0.448843 0.26471,0.448664 0.0245,-1.78e-4 0.39576,-0.05654 0.82508,-0.125195 z m -79.2513,2.010247 c -0.33371,-0.09712 -0.74657,-0.513431 -0.86502,-0.872403 -0.12558,-0.380719 -0.0525,-0.89433 0.17031,-1.195695 0.0978,-0.13219 0.16519,-0.250915 0.14991,-0.26383 -0.0153,-0.01289 -0.11294,-0.06789 -0.21704,-0.122007 -0.48493,-0.252459 -0.67474,-1.171189 -0.3515,-1.701302 0.31754,-0.520746 1.00159,-0.885306 1.84732,-0.984506 1.25874,-0.147645 2.15054,0.800834 1.70339,1.811668 -0.13226,0.29903 -0.14247,0.37527 -0.0503,0.37527 0.17728,0 0.66391,0.462078 0.77884,0.739527 0.14958,0.361142 0.069,1.077617 -0.15283,1.359699 -0.56912,0.723534 -2.03383,1.138482 -3.01316,0.853619 z m 1.5305,-0.952511 c 0.44704,-0.178874 0.63408,-0.564711 0.44811,-0.924359 -0.23563,-0.455658 -0.94799,-0.496177 -1.47231,-0.08371 -0.16517,0.129918 -0.21614,0.243105 -0.21614,0.479982 0,0.584403 0.53274,0.811237 1.24034,0.528122 z m -0.3719,-2.271974 c 0.43737,-0.376214 0.1987,-0.960845 -0.39226,-0.960845 -0.73887,0 -1.14905,0.559617 -0.72268,0.985986 0.23811,0.238103 0.82427,0.224882 1.11494,-0.02513 z M 99.349594,6.0074675 c -0.02182,-0.061134 -0.447363,-1.229475 -0.945595,-2.596233 -0.498232,-1.366757 -0.90588,-2.59900099 -0.90588,-2.73832499 0,-0.339013 0.389564,-0.733669 0.724199,-0.733669 0.134104,0 0.405018,0.07314 0.602014,0.162525 0.907245,0.411668 1.701618,-0.01022 1.779178,-0.945861 0.0647,-0.77989301 -0.4328,-1.49976601 -1.126601,-1.63021901 -0.459117,-0.08627 -0.949858,0.203619 -1.252651,0.740151 -0.302641,0.536263 -0.501462,0.687418 -0.90417,0.687418 -0.538191,0 -0.639254,-0.170554 -1.503963,-2.537821 -0.736998,-2.017676 -0.834807,-2.392115 -0.624807,-2.392115 0.04467,0 1.182767,-0.408107 2.529168,-0.906889 1.547775,-0.573388 2.500884,-0.969536 2.591804,-1.077249 0.31441,-0.372537 0.0864,-0.914238 -0.513534,-1.220323 -1.019411,-0.520069 -1.016948,-1.7818325 0.0038,-2.3029355 0.452944,-0.23107 1.173244,-0.220719 1.527404,0.02195 0.52228,0.357863 0.65918,1.125962 0.3182,1.7853285 -0.22206,0.429433 -0.10478,0.861545 0.29132,1.073549 0.15406,0.08244 1.40045,-0.33461 4.46152,-1.4928985 0.35526,-0.134423 0.65448,-0.233125 0.66494,-0.219317 0.0102,0.01379 0.17093,0.4318055 0.3566,0.9289025 0.18566,0.497109 0.58184,1.550876 0.88037,2.341718 0.59549,1.577548 0.62241,1.825376 0.23164,2.132752 -0.27088,0.213088 -0.48811,0.21125 -1.12078,-0.0089 -0.61453,-0.214415 -1.00188,-0.167553 -1.35702,0.164197 -0.92554,0.864582 0.0232,2.738736 1.21369,2.397324 0.35221,-0.100957 0.53946,-0.271169 0.88047,-0.800121 0.29888,-0.463584 0.47803,-0.598044 0.79691,-0.598044 0.3914,0 0.66483,0.344933 0.95814,1.208685 0.15022,0.442398 0.53881,1.57268701 0.86354,2.51172101 0.32472,0.93905 0.5648,1.72317999 0.53351,1.74252599 -0.0576,0.03561 -3.03758,1.148104 -4.39763,1.641767 -1.02052,0.370408 -7.197442,2.64492 -7.373661,2.715177 -0.0887,0.03536 -0.158225,0.01467 -0.182817,-0.05423 z m 85.016736,-0.521829 c -0.7033,-0.335069 -0.77327,-0.390405 -0.91672,-0.725066 -0.0854,-0.199267 -0.27384,-0.446726 -0.41875,-0.549894 -0.34379,-0.244802 -0.51833,-0.664101 -0.44851,-1.077414 0.0351,-0.207462 0.0226,-0.318237 -0.0356,-0.318237 -0.17486,0 -0.0859,-0.251873 0.11601,-0.328661 0.21941,-0.08345 0.26387,-0.237337 0.11231,-0.388875 -0.1266,-0.1266 -0.02,-0.380056 0.13485,-0.320634 0.0882,0.03382 0.12252,-0.01022 0.12252,-0.1558 0,-0.111541 -0.0322,-0.202841 -0.0715,-0.202841 -0.0393,0 -0.11792,-0.166061 -0.1748,-0.369016 -0.10018,-0.35781099 -0.09,-0.40492899 0.33614,-1.55220499 0.41797,-1.12537401 0.44846,-1.17977801 0.6238,-1.11310901 0.29941,0.113838 0.29798,-0.05169 -0.004,-0.474521 -0.68163,-0.953993 -1.18569,-2.076253 -1.4133,-3.14656 -0.17541,-0.824816 -0.17284,-2.394746 0.005,-3.245543 0.16131,-0.770486 0.62053,-2.0062775 0.90767,-2.4426655 0.11091,-0.168499 0.2016,-0.327603 0.2016,-0.353574 0,-0.139299 0.95357,-1.301403 1.44084,-1.75595 1.81082,-1.689193 4.10336,-2.483009 6.63607,-2.297818 3.43117,0.250903 6.33377,2.684752 7.21546,6.0502565 0.23668,0.90343 0.29221,2.399953 0.12468,3.359178 -0.54795,3.136619 -2.75908,5.68024601 -5.84471,6.72357301 -0.50879,0.172046 -1.52408,0.37145299 -1.89117,0.37145299 -0.15097,0 -0.33669,0.06216 -0.41271,0.13824 -0.12673,0.126727 -0.12724,0.146279 -0.006,0.235001 0.0727,0.05322 0.13235,0.119198 0.13235,0.146586 0,0.02744 -0.26522,0.499163 -0.58939,1.048406 -0.67297,1.140243 -0.88204,1.322703 -1.48336,1.294536 -0.4402,-0.02068 -0.54373,0.03586 -0.39472,0.215412 0.16172,0.194877 0.0438,0.386258 -0.20033,0.325001 -0.26376,-0.06624 -0.38179,0.168076 -0.16466,0.326837 0.19839,0.145079 0.0778,0.312569 -0.20373,0.283037 -0.16367,-0.01723 -0.29774,0.04773 -0.48458,0.23458 -0.3106,0.310592 -0.65104,0.399645 -1.0387,0.271706 -0.23517,-0.0776 -0.33464,-0.07133 -0.54699,0.03459 -0.37648,0.187806 -0.52053,0.162486 -1.36544,-0.240043 z m 4.56952,-7.021735 0.93232,-1.803616 0.50571,0.04721 c 1.01672,0.09494 2.08139,-0.338974 2.93506,-1.196206 0.7639,-0.767091 1.01247,-1.312786 1.0175,-2.233737 0.004,-0.646286 -0.0151,-0.72938 -0.22368,-1.003101 -0.13859,-0.181783 -0.33932,-0.329301 -0.51354,-0.377401 -0.90731,-0.25052 -1.69842,0.614138 -3.32344,3.632451 -0.2392,0.444287 -0.48022,0.825185 -0.53558,0.846422 -0.10899,0.04185 -0.88957,-0.287351 -1.14376,-0.482408 -0.15097,-0.11588 -0.13841,-0.158938 0.35009,-1.200723 1.23671,-2.637416 1.44347,-3.522735 0.99294,-4.251694 -0.17411,-0.281723 -0.59798,-0.5260785 -0.91258,-0.5260785 -0.79793,0 -1.83559,1.3477155 -2.03877,2.6479445 -0.16633,1.064371 0.21269,2.319843 0.89878,2.977168 0.13742,0.131667 0.24987,0.273288 0.24987,0.314713 0,0.04147 -0.40609,0.883138 -0.90242,1.870452 -0.49633,0.987328 -0.86766,1.81662201 -0.82516,1.84288801 0.0425,0.02629 0.1389,-0.07363 0.21423,-0.221973 0.15846,-0.312084 1.6989,-3.30196501 1.7135,-3.32580301 0.005,-0.0089 0.26278,0.111413 0.57202,0.267046 0.30925,0.155635 0.61636,0.282974 0.68247,0.282974 0.0661,0 0.10784,0.0277 0.0928,0.06165 -0.0786,0.176895 -1.66687,3.20975801 -1.75925,3.35936701 -0.0988,0.159999 -0.0817,0.276759 0.0406,0.276274 0.0264,-1.14e-4 0.46748,-0.811821 0.98026,-1.80380901 z m 1.11769,-2.119414 c 0.10861,-0.286408 1.70106,-3.02934 1.9797,-3.410009 0.3605,-0.492527 0.89313,-0.883137 1.20421,-0.883137 0.61666,0 0.93572,0.442654 0.91796,1.273556 -0.0352,1.650702 -1.74771,3.163381 -3.58111,3.163381 -0.5139,0 -0.56948,-0.01531 -0.52076,-0.143791 z m -2.16768,-1.08164 c -0.92542,-1.168434 -0.99186,-2.833672 -0.16415,-4.114297 0.6226,-0.96327 1.4208,-1.2671615 1.9303,-0.734918 0.22752,0.237694 0.24114,0.290567 0.2381,0.924371 -0.002,0.611331 -0.0383,0.756385 -0.39034,1.600623 -0.57759,1.385186 -1.18661,2.645827 -1.27821,2.645827 -0.0445,0 -0.1956,-0.144723 -0.3357,-0.321606 z M 104.12557,-14.767562 c -2.58363,-0.464566 -4.851681,-2.212247 -5.94672,-4.582335 -0.485292,-1.050347 -0.688452,-2.02343 -0.690315,-3.306404 -0.0025,-1.578431 0.205368,-2.469352 0.882857,-3.787793 1.417129,-2.757865 4.420598,-4.486556 7.507618,-4.32112 4.03652,0.216305 7.13757,3.130262 7.64961,7.188062 0.15843,1.255523 -0.0856,2.806029 -0.63767,4.052032 l -0.20418,0.460788 0.29986,1.163648 c 0.16492,0.640008 0.28709,1.201936 0.2715,1.248708 -0.0156,0.04684 -0.18192,-0.480391 -0.36964,-1.17151 l -0.34129,-1.25657 0.22866,-0.537348 c 0.44957,-1.056472 0.71298,-2.572494 0.62081,-3.57298 -0.31549,-3.424557 -2.46422,-6.069029 -5.7511,-7.077989 -0.68578,-0.210511 -0.84094,-0.226846 -2.13631,-0.224931 -1.28348,0.0012 -1.4564,0.02028 -2.13124,0.226206 -2.17325,0.66326 -3.918251,2.132612 -4.891463,4.118754 -0.587822,1.199662 -0.773626,2.030602 -0.77166,3.45096 0.0026,1.659253 0.317993,2.795386 1.145883,4.123678 1.072412,1.720625 2.77698,2.951619 4.88193,3.525607 0.78318,0.213575 2.77749,0.21314 3.61343,-7.78e-4 1.16258,-0.297496 2.21476,-0.798882 3.03173,-1.444644 0.48816,-0.385875 0.53301,-0.389053 1.81788,-0.128744 1.18162,0.239379 0.9632,0.266626 -0.34632,0.04326 l -0.98085,-0.167349 -0.27374,0.240362 c -0.74812,0.656853 -1.78555,1.209694 -2.8939,1.542135 -0.61381,0.184118 -0.90839,0.220618 -1.95518,0.242326 -0.67787,0.01403 -1.41145,-0.0064 -1.63019,-0.04594 z m -2.58028,-6.955716 c -0.34149,-0.168358 -0.59622,-0.581633 -0.59622,-0.967342 0,-1.079546 1.25274,-1.552866 1.96447,-0.742257 0.21595,0.245952 0.254,0.354927 0.254,0.727275 0,0.319729 -0.0463,0.496855 -0.17158,0.656099 -0.35415,0.450221 -0.93444,0.580714 -1.45067,0.326225 z m 3.45206,0.01327 c -0.75203,-0.326928 -0.78813,-1.506007 -0.0607,-1.982632 0.66706,-0.437076 1.70425,0.128948 1.70425,0.930064 0,0.882206 -0.82302,1.40928 -1.64357,1.052568 z m 3.45095,0 c -0.75202,-0.326928 -0.78811,-1.506007 -0.0607,-1.982632 0.66863,-0.438111 1.68512,0.116135 1.69627,0.924998 0.0128,0.885345 -0.80953,1.416733 -1.63557,1.057634 z m 75.04228,-0.14657 c -0.36807,-0.209452 -0.70557,-0.767437 -0.70277,-1.161889 9.9e-4,-0.13977 0.0707,-0.405669 0.15477,-0.59091 0.45693,-1.006139 1.90822,-1.056625 2.43171,-0.08462 l 0.15551,0.288768 0.4152,-0.767665 c 0.4292,-0.793524 1.75923,-2.923225 2.06534,-3.307134 l 0.1738,-0.217964 0.19727,0.189186 c 0.50458,0.483875 1.04567,0.750195 2.29019,1.127187 0.10643,0.03229 0.10643,0.04607 0,0.11588 -0.37059,0.242939 -1.76241,-0.271769 -2.23831,-0.82775 l -0.27553,-0.321911 -0.22552,0.459831 -0.22552,0.459832 0.23056,0.240934 c 0.37519,0.392065 0.93015,0.718214 1.53431,0.901719 0.4582,0.139185 0.53892,0.187489 0.42231,0.252742 -0.40227,0.225123 -1.46804,-0.201297 -1.99262,-0.797248 l -0.32847,-0.373162 -0.98801,1.663387 c -0.54341,0.914852 -1.04909,1.810763 -1.12375,1.990913 -0.36005,0.868755 -1.20588,1.194904 -1.97047,0.759805 z m -8.67555,-10.568451 c -2.26014,-0.922418 -2.92463,-1.326619 -3.55075,-2.159908 -0.66507,-0.885128 -0.83144,-2.313527 -0.3811,-3.272037 0.29752,-0.633281 0.81334,-1.181452 1.36801,-1.453821 0.3896,-0.191329 0.57443,-0.230254 1.08577,-0.228671 0.65608,0.0025 1.03173,0.140396 1.53823,0.566586 l 0.24553,0.206593 0.0877,-0.192555 c 0.15964,-0.350383 0.61376,-0.795359 1.03798,-1.017101 0.59595,-0.31151 1.45547,-0.312978 2.11702,-0.0038 0.62444,0.29201 1.13637,0.780518 1.47075,1.403474 0.25059,0.466812 0.27842,0.588703 0.30489,1.335363 0.0522,1.47244 -0.37919,2.238574 -2.09334,3.717702 -0.57883,0.499457 -1.21726,1.078219 -1.41874,1.286127 -0.20147,0.207907 -0.38635,0.375205 -0.41082,0.371785 -0.0245,-0.0038 -0.65501,-0.255395 -1.40117,-0.559912 z m -68.09268,-3.119644 c -0.0785,-0.309366 -0.0628,-0.344717 0.64726,-1.45844 0.78104,-1.224983 0.89194,-1.583688 0.57761,-1.868155 -0.28209,-0.255306 -0.92246,-0.08997 -1.21683,0.314101 -0.16223,0.222711 -0.16499,0.223234 -0.52778,0.10082 -0.20058,-0.06764 -0.37615,-0.179767 -0.39016,-0.249129 -0.038,-0.188177 0.5142,-0.755376 0.92208,-0.947101 0.80509,-0.378447 1.65667,-0.30176 2.08659,0.187884 0.49416,0.562822 0.41096,1.201807 -0.30026,2.306137 -0.23283,0.361525 -0.39026,0.668352 -0.34986,0.681829 0.0404,0.01353 0.3701,-0.05118 0.73262,-0.143791 0.36252,-0.09252 0.71145,-0.168294 0.77539,-0.168294 0.12137,0 0.33325,0.714359 0.23064,0.777774 -0.0523,0.03229 -2.998,0.783376 -3.07243,0.783376 -0.0189,0 -0.0706,-0.142667 -0.11486,-0.317036 z"
     id="path4" /></svg>
