<?xml version="1.0" encoding="UTF-8" standalone="no"?>
<svg
   viewBox="0 0 145070.91 7079.1863"
   version="1.1"
   id="svg19"
   sodipodi:docname="GENRES.svg"
   inkscape:version="1.3 (0e150ed6c4, 2023-07-21)"
   xml:space="preserve"
   width="145070.91"
   height="7079.1865"
   xmlns:inkscape="http://www.inkscape.org/namespaces/inkscape"
   xmlns:sodipodi="http://sodipodi.sourceforge.net/DTD/sodipodi-0.dtd"
   xmlns="http://www.w3.org/2000/svg"
   xmlns:svg="http://www.w3.org/2000/svg"><defs
     id="defs19"><rect
       x="353.62744"
       y="-2.5734873"
       width="30.124939"
       height="50.712837"
       id="rect20" /></defs><sodipodi:namedview
     id="namedview19"
     pagecolor="#ffffff"
     bordercolor="#000000"
     borderopacity="0.25"
     inkscape:showpageshadow="2"
     inkscape:pageopacity="0.0"
     inkscape:pagecheckerboard="0"
     inkscape:deskcolor="#d1d1d1"
     inkscape:zoom="2.3355109"
     inkscape:cx="230.35645"
     inkscape:cy="26.974825"
     inkscape:window-width="1918"
     inkscape:window-height="1360"
     inkscape:window-x="1433"
     inkscape:window-y="0"
     inkscape:window-maximized="0"
     inkscape:current-layer="svg19" /><path
     style="font-weight:300;font-size:48.7192px;font-family:'Josefin Sans';-inkscape-font-specification:'Josefin Sans Light';fill:#ffffff;stroke:#75a5bd;stroke-width:0;stroke-linecap:round;stroke-miterlimit:4.7;paint-order:markers stroke fill"
     d="m -3805.7645,-82.566452 v -34.590628 h 8.5259 q 5.018,0 8.5258,1.60773 3.5565,1.55901 5.7489,4.14113 2.1924,2.58212 3.2155,5.65143 1.0231,3.06931 1.0231,6.089899 0,3.946255 -1.3642,7.113003 -1.3641,3.118029 -3.7514,5.359112 -2.3385,2.241084 -5.3591,3.459064 -3.0206,1.16926 -6.3822,1.16926 z m 2.3872,-2.289802 h 7.1618 q 3.118,0 5.8463,-1.023103 2.7282,-1.023103 4.7745,-2.971871 2.0949,-1.948768 3.2641,-4.677044 1.1693,-2.776994 1.1693,-6.284777 0,-2.971871 -1.0231,-5.651431 -0.9744,-2.72827 -2.9719,-4.8232 -1.9975,-2.09492 -4.9206,-3.3129 -2.9232,-1.21798 -6.8207,-1.21798 h -6.4797 z m 38.2933,2.825714 q -2.6795,0 -4.2873,-1.559015 -1.6077,-1.607733 -1.7051,-4.141132 v -13.884973 h 2.2898 v 13.202904 q 0.097,1.85133 1.1692,3.06931 1.1206,1.21798 3.3129,1.315418 1.8514,0 3.4591,-0.974384 1.6077,-0.974384 2.5821,-2.630836 1.0231,-1.705172 1.0231,-3.848817 v -10.133595 h 2.2898 v 19.049208 h -2.0462 l -0.2436,-5.992461 0.3411,1.315418 q -0.4872,1.461576 -1.7539,2.679556 -1.218,1.169261 -2.9232,1.85133 -1.6564,0.682069 -3.5078,0.682069 z m 20.8032,-19.58512 0.2436,5.992463 -0.2923,-1.169261 q 0.8282,-2.484679 3.118,-3.897532 2.3385,-1.46158 5.1642,-1.46158 2.6796,0 4.336,1.60773 1.6565,1.559018 1.7052,4.092416 v 13.884972 h -2.3385 v -13.251622 q -0.049,-1.85133 -1.1693,-3.06931 -1.1205,-1.217976 -3.2642,-1.266696 -1.9,0 -3.5565,0.925662 -1.6564,0.925665 -2.6795,2.582117 -0.9744,1.656453 -0.9744,3.848817 v 10.231032 h -2.2898 v -19.049208 z m 31.4238,28.354576 q -1.6077,0 -3.0693,-0.389754 -1.4616,-0.341034 -2.8744,-1.21798 -1.4129,-0.876946 -2.9232,-2.289802 l 1.3642,-1.559015 q 2.0949,1.997487 3.8975,2.679556 1.8026,0.730788 3.5078,0.730788 2.9718,0 4.7257,-0.974384 1.7539,-0.925665 2.5334,-2.533398 0.7795,-1.559015 0.8283,-3.507783 l 0.049,-6.187338 0.5359,0.58463 q -0.9744,2.533399 -3.5078,4.141132 -2.4847,1.607734 -5.6514,1.607734 -2.6796,0 -4.9207,-1.315418 -2.1923,-1.364138 -3.5078,-3.605221 -1.3154,-2.289803 -1.3154,-5.066797 0,-2.971871 1.3642,-5.212955 1.3641,-2.241083 3.7026,-3.507781 2.3385,-1.31542 5.1643,-1.31542 2.6308,0 4.9693,1.36414 2.3873,1.364136 3.4591,3.605219 l -0.2923,1.071822 0.2436,-5.456551 h 2.0462 v 19.341524 q 0,2.338521 -1.0719,4.384728 -1.0231,2.094925 -3.3129,3.361624 -2.241,1.2667 -5.9437,1.2667 z m -8.0387,-18.951769 q 0,2.241083 1.0719,4.092413 1.0718,1.80261 2.8744,2.923152 1.8513,1.071822 4.0924,1.071822 2.1437,0 3.8976,-0.925665 1.7538,-0.974384 2.8744,-2.582117 1.1205,-1.607734 1.2667,-3.459064 v -2.825713 q -0.3898,-1.85133 -1.559,-3.264187 -1.1206,-1.412857 -2.8257,-2.241083 -1.6565,-0.828225 -3.654,-0.828225 -2.2411,0 -4.0924,1.023102 -1.8026,1.023103 -2.8744,2.825713 -1.0719,1.802611 -1.0719,4.189852 z m 35.3214,10.036155 q -2.9718,0 -5.2616,-1.315418 -2.2898,-1.315419 -3.6053,-3.556502 -1.2667,-2.289802 -1.2667,-5.115516 0,-2.776995 1.3642,-5.066797 1.3641,-2.289802 3.6539,-3.653939 2.3385,-1.36414 5.1643,-1.36414 3.4103,0 5.7001,1.99749 2.3385,1.997486 3.3616,5.212953 l -16.6619,6.430935 -0.6821,-1.656453 15.2491,-5.943743 -0.4872,0.682069 q -0.8282,-1.948768 -2.5334,-3.361625 -1.6564,-1.412856 -4.0924,-1.412856 -2.1924,0 -3.9463,1.071822 -1.7539,1.071822 -2.8257,2.874433 -1.0231,1.80261 -1.0231,4.092413 0,2.143644 0.9744,3.994974 1.0231,1.85133 2.8257,2.971871 1.8026,1.120542 4.1412,1.120542 1.559,0 2.9718,-0.584631 1.4616,-0.58463 2.5821,-1.510295 l 1.1693,1.656453 q -1.3641,1.071822 -3.1667,1.753891 -1.7539,0.682069 -3.6053,0.682069 z m 13.5927,-10.036155 q 0,-2.776995 1.3154,-5.066797 1.3641,-2.289803 3.6539,-3.60522 2.3385,-1.36414 5.213,-1.36414 2.9231,0 5.2129,1.36414 2.2898,1.315417 3.6053,3.60522 1.3154,2.289802 1.3154,5.066797 0,2.776994 -1.3154,5.066797 -1.3155,2.289802 -3.654,3.65394 -2.2898,1.315418 -5.1642,1.315418 -2.9232,0 -5.213,-1.266699 -2.2898,-1.315419 -3.6539,-3.556502 -1.3154,-2.289802 -1.3154,-5.212954 z m 2.2898,0.04872 q 0,2.241083 1.0231,4.092413 1.0718,1.80261 2.8257,2.874433 1.8026,1.071822 3.995,1.071822 2.1923,0 3.9462,-1.071822 1.8026,-1.071823 2.8257,-2.874433 1.0718,-1.85133 1.0718,-4.092413 0,-2.241083 -1.0718,-4.043694 -1.0231,-1.851329 -2.8257,-2.923152 -1.7539,-1.120541 -3.9462,-1.120541 -2.2411,0 -4.0437,1.16926 -1.7539,1.120542 -2.777,2.971872 -1.0231,1.851329 -1.0231,3.946255 z m 26.8442,-9.451527 0.2436,5.992464 -0.2923,-1.169261 q 0.8282,-2.484679 3.118,-3.897533 2.3385,-1.46158 5.1642,-1.46158 2.6796,0 4.3361,1.60773 1.6564,1.559019 1.7051,4.092417 v 13.884972 h -2.3385 v -13.251623 q -0.049,-1.85133 -1.1693,-3.06931 -1.1205,-1.217976 -3.2641,-1.266696 -1.9001,0 -3.5565,0.925662 -1.6565,0.925665 -2.6796,2.582117 -0.9744,1.656453 -0.9744,3.848817 v 10.231032 h -2.2898 v -19.049208 z"
     id="text19"
     aria-label="Dungeon"
     inkscape:export-filename="auto-rpgdungeoncrawlers.svg"
     inkscape:export-xdpi="96"
     inkscape:export-ydpi="96" /><text
     xml:space="preserve"
     id="text20"
     style="white-space:pre;shape-inside:url(#rect20);display:inline;fill:#000000;stroke:#75a5bd;stroke-width:0;stroke-linecap:round;stroke-miterlimit:4.7;paint-order:markers stroke fill"
     transform="translate(-3918.2707,-119.76961)" /><path
     style="font-weight:bold;font-size:50.4824px;font-family:'Josefin Sans';-inkscape-font-specification:'Josefin Sans Bold';fill:#ffffff;stroke:#75a5bd;stroke-width:0;stroke-linecap:round;stroke-miterlimit:4.7;paint-order:markers stroke fill"
     d="m -3779.4715,-39.491509 q -0.6058,0.504824 -2.2717,1.363025 -1.6154,0.858201 -3.9881,1.514472 -2.3727,0.656271 -5.2502,0.605789 -4.3919,-0.100965 -7.8752,-1.564954 -3.4328,-1.514472 -5.856,-4.089075 -2.3727,-2.574602 -3.6347,-5.90644 -1.2621,-3.331839 -1.2621,-7.118019 0,-4.240521 1.2621,-7.774289 1.3125,-3.533768 3.6852,-6.10837 2.4232,-2.574603 5.755,-3.98811 3.3318,-1.413507 7.3704,-1.413507 3.7357,0 6.6132,1.009648 2.8775,1.009648 4.6949,2.170743 l -2.8775,6.916089 q -1.2621,-0.959166 -3.3823,-1.968814 -2.0698,-1.06013 -4.7959,-1.06013 -2.1202,0 -4.089,0.908683 -1.9184,0.858201 -3.4328,2.473637 -1.464,1.615437 -2.3222,3.78618 -0.8582,2.120261 -0.8582,4.644381 0,2.675567 0.7572,4.896793 0.8077,2.221225 2.2717,3.836662 1.464,1.564954 3.4833,2.423155 2.0698,0.858201 4.6444,0.858201 2.9784,0 5.0987,-0.959166 2.1203,-0.959165 3.2309,-2.019296 z m 18.5776,-34.075619 q 3.4832,0 6.2093,0.908683 2.726,0.858201 4.5434,2.52412 1.8679,1.615437 2.827,3.937627 0.9592,2.271708 0.9592,5.149205 0,2.271708 -0.7068,4.543416 -0.6562,2.271708 -2.2212,4.139557 -1.5145,1.867848 -4.0386,3.028944 -2.5241,1.110612 -6.2598,1.110612 h -5.2502 v 11.812882 h -7.3199 v -37.155046 z m 1.262,18.274628 q 1.6659,0 2.7766,-0.555306 1.1106,-0.555306 1.7164,-1.413507 0.6562,-0.858201 0.9086,-1.766884 0.3029,-0.959166 0.3029,-1.766884 0,-0.605789 -0.2019,-1.514472 -0.1514,-0.959166 -0.7067,-1.918331 -0.5554,-0.959166 -1.7165,-1.615437 -1.1106,-0.656271 -3.0289,-0.656271 h -5.2502 V -55.2925 Z m 6.8656,4.543416 9.1878,14.337002 h -8.5315 l -9.3897,-14.135072 z m 11.0557,14.337002 16.7602,-38.619036 h 0.4038 l 16.7602,38.619036 h -8.4811 l -10.7022,-27.159531 5.3006,-3.634733 -12.8225,30.794264 z m 11.4595,-13.428318 h 11.1566 l 2.5746,6.158852 h -16.0029 z m 19.1328,-23.474316 h 8.582 l 7.9257,23.322868 -1.1611,-0.504824 6.9161,-17.214498 3.3823,10.045998 -10.7022,22.969491 z m 18.628,0 h 7.2694 l 9.1374,22.565632 -1.3126,-0.201929 6.8151,-22.363703 h 7.8753 l -14.337,38.51807 z m 36.1959,-0.252412 h 7.3199 v 30.08751 h 17.467 v 7.067536 h -24.7869 z m 32.3592,0 h 25.3422 v 7.067536 h -18.0222 v 7.925737 h 15.9524 v 7.067535 h -15.9524 v 8.026702 h 18.729 v 7.067536 h -26.049 z m 44.8789,0 q 3.4833,0 6.2094,0.908683 2.726,0.858201 4.5434,2.52412 1.8678,1.615437 2.827,3.937627 0.9592,2.271708 0.9592,5.149205 0,2.271708 -0.7068,4.543416 -0.6563,2.271708 -2.2212,4.139557 -1.5145,1.867848 -4.0386,3.028944 -2.5241,1.110612 -6.2598,1.110612 h -5.2502 v 11.812882 h -7.3199 v -37.155046 z m 1.2621,18.274628 q 1.6659,0 2.7765,-0.555306 1.1106,-0.555306 1.7164,-1.413507 0.6563,-0.858201 0.9087,-1.766884 0.3029,-0.959166 0.3029,-1.766884 0,-0.605789 -0.2019,-1.514472 -0.1515,-0.959166 -0.7068,-1.918331 -0.5553,-0.959166 -1.7164,-1.615437 -1.1106,-0.656271 -3.0289,-0.656271 h -5.2502 V -55.2925 Z m 6.8656,4.543416 9.1878,14.337002 h -8.5315 l -9.3898,-14.135072 z m 35.0853,-13.832177 q -2.1203,-1.161095 -4.3415,-1.918331 -2.1707,-0.757236 -4.0891,-0.757236 -2.3726,0 -3.7357,0.959165 -1.363,0.959166 -1.363,2.877497 0,1.312543 1.0097,2.372673 1.0601,1.009648 2.6755,1.817366 1.6659,0.807719 3.4328,1.46399 1.6155,0.605789 3.1804,1.463989 1.6155,0.807719 2.8775,2.069779 1.2621,1.211577 2.0193,3.079426 0.7572,1.817367 0.7572,4.492934 0,2.827014 -1.4639,5.250169 -1.464,2.423155 -4.291,3.937627 -2.8271,1.46399 -6.9666,1.46399 -2.1203,0 -4.3415,-0.403859 -2.1707,-0.454342 -4.291,-1.312543 -2.1203,-0.908683 -4.0891,-2.271708 l 3.2309,-5.704511 q 1.3125,0.959166 2.827,1.716402 1.565,0.706753 3.1299,1.110613 1.565,0.403859 2.8775,0.403859 1.3126,0 2.6251,-0.353377 1.363,-0.403859 2.2212,-1.312542 0.9087,-0.908684 0.9087,-2.52412 0,-1.110613 -0.7572,-2.019296 -0.7068,-0.908683 -1.9688,-1.665919 -1.2116,-0.757236 -2.6756,-1.312543 -1.7164,-0.656271 -3.5338,-1.514472 -1.8173,-0.858201 -3.4328,-2.069778 -1.5649,-1.26206 -2.5746,-3.079426 -0.9592,-1.867849 -0.9592,-4.543416 0,-3.230874 1.4136,-5.603547 1.4639,-2.372672 4.089,-3.735697 2.6251,-1.413507 6.0579,-1.564955 4.493,0 7.2695,1.060131 2.827,1.06013 5.0482,2.52412 z"
     id="text21"
     aria-label="CRAWLERS" /><path
     style="fill:#ffffff;stroke-width:0.230942"
     d="m -3864.0482,-36.917013 c -0.3176,-0.169609 -0.8112,-0.380304 -1.097,-0.468198 l -0.5196,-0.159821 v 0.361974 c 0,0.559491 0.5077,0.78897 -15.8036,-7.14363 -17.6478,-8.582617 -15.6045,-7.688757 -15.6045,-6.82641 0,0.373562 -0.093,0.736694 -0.2067,0.806974 -0.2769,0.171124 -0.4861,-0.424614 -0.4861,-1.384259 v -0.784084 l -0.5196,-0.323883 c -0.2858,-0.178133 -0.9953,-0.499552 -1.5766,-0.714258 l -1.057,-0.390377 -2.7536,-10.087587 c -1.5202,-5.569364 -2.7855,-9.810704 -2.825,-9.469401 -0.039,0.340004 -0.233,0.752327 -0.4306,0.916277 l -0.3592,0.298087 -0.4354,-0.537714 c -0.5313,-0.656108 -0.5566,-1.253185 -0.07,-1.65682 l 0.3651,-0.30306 0.4734,0.295647 0.4734,0.295642 -0.1439,-0.54048 c -0.079,-0.297261 -0.2088,-0.774308 -0.2881,-1.060098 -0.1704,-0.613666 -0.057,-0.627507 1.4318,-0.175706 1.533,0.465071 1.4801,0.49281 1.4801,-0.775106 v -1.124019 l 0.975,-0.645283 0.9751,-0.645277 -0.4554,-0.190054 c -0.2505,-0.104529 -0.7613,-0.300648 -1.135,-0.435817 l -0.6795,-0.245764 1.1991,-0.555561 c 1.4731,-0.682496 1.4731,-0.679625 10e-5,-1.168883 l -1.199,-0.398256 2.4114,-0.850941 c 1.3264,-0.468016 3.528,-1.243524 4.8926,-1.723349 1.4331,-0.503932 2.4204,-0.970481 2.3376,-1.104601 -0.1855,-0.300097 0.3473,-0.634384 1.0183,-0.638902 l 0.5254,-0.0035 0.2277,-0.598911 0.2277,-0.598916 -0.9263,-1.163317 c -1.5395,-1.933526 -1.2076,-2.350536 0.682,-0.856909 l 1.1878,0.938899 0.6182,-0.206095 0.6183,-0.206095 0.2006,-0.848274 c 0.248,-1.048423 0.5285,-1.085327 0.7428,-0.09772 0.2581,1.189641 1.1747,1.474097 2.0625,0.640066 0.2675,-0.251302 1.289,-0.914321 2.27,-1.47337 l 1.7837,-1.016451 -2.6879,-2.85679 -2.6879,-2.856791 -0.3756,0.07405 c -0.2065,0.04076 -0.658,0.12998 -1.0032,0.198338 l -0.6277,0.124286 -0.7002,-0.700192 -0.7002,-0.70019 v -0.610301 c 0,-0.335667 0.1086,-0.813246 0.2413,-1.061286 l 0.2414,-0.45099 -4.3909,-4.67228 c -2.415,-2.56974 -4.2643,-4.69695 -4.1096,-4.72711 0.4086,-0.0797 16.9868,1.67222 17.1242,1.80959 0.064,0.0636 -0.3454,0.99391 -0.909,2.06725 l -1.0247,1.95154 -0.01,0.9815 -0.01,0.9815 0.4619,0.46189 0.4618,0.46188 1.3279,-0.004 1.328,-0.004 0.9237,-0.51872 0.9238,-0.51871 0.8083,-1.51385 c 0.4446,-0.83262 1.1201,-2.00027 1.5011,-2.59479 l 0.6928,-1.08093 0.8083,0.002 c 1.6177,0.004 29.3908,2.96922 29.547,3.15488 0.088,0.10509 1.5534,3.67252 3.2554,7.927622 1.7021,4.2551 3.995,9.970905 5.0955,12.701791 2.3282,5.777923 2.3218,5.255657 0.056,4.551698 -0.9963,-0.309523 -2.1492,-0.62629 -2.562,-0.703929 l -0.7506,-0.14106 v 0.735441 0.735437 l -1.0691,0.981561 c -0.5881,0.539858 -1.4187,1.21957 -1.846,1.510466 -1.0275,0.699574 -1.0292,0.696488 0.8366,1.520586 l 1.6166,0.714032 v 1.097724 1.097718 l 0.7506,-0.69654 c 0.4128,-0.383093 1.0195,-0.862487 1.3482,-1.06532 l 0.5976,-0.368787 -2.0126,10.084483 c -1.1069,5.546455 -2.0813,10.561726 -2.1652,11.145032 l -0.1526,1.060564 -1.0305,0.77216 -1.0306,0.772154 v 1.689141 1.689141 h -0.3464 -0.3464 v -0.608635 -0.60864 l -4.4365,4.561909 c -2.4401,2.509047 -4.4743,4.448775 -4.5204,4.310503 -0.046,-0.138271 -0.6737,0.325815 -1.3947,1.031305 l -1.3109,1.282705 -0.074,-0.73405 -0.074,-0.734044 -0.2968,0.40583 -0.2967,0.40583 -0.3799,-0.145747 -0.3798,-0.145743 v -0.807416 -0.807421 l 0.4483,-0.239878 0.4482,-0.239884 0.3263,0.465874 0.3263,0.465874 0.2807,-3.178628 c 0.1544,-1.748242 0.6373,-6.343859 1.073,-10.212478 0.4358,-3.868618 0.7923,-7.331161 0.7923,-7.694538 v -0.660678 l -0.6928,0.493333 -0.6928,0.493334 0.01,-1.22817 0.01,-1.22817 2.2413,-1.77728 2.2412,-1.777273 0.1356,1.199923 c 0.075,0.659957 0.1588,0.992078 0.1872,0.73804 l 0.052,-0.461886 4.8358,-3.878191 4.8357,-3.87819 v -0.784749 c 0,-0.431613 -0.1299,-0.859506 -0.2887,-0.950876 -0.1588,-0.09137 -0.2177,-0.08718 -0.131,0.0093 0.1279,0.142289 -2.2235,2.064555 -8.9853,7.345596 l -0.2827,0.220843 -1.6428,-0.947137 c -1.9841,-1.143881 -1.5198,-1.172703 -3.5877,0.222695 l -1.7336,1.169826 -1.2302,-0.153701 c -0.7091,-0.0886 -1.4157,-0.05438 -1.6683,0.08077 l -0.4381,0.234475 -0.3982,-0.222835 -0.3982,-0.222841 v 0.477101 0.477094 l -0.7505,0.356134 -0.7506,0.356128 -9.806,-3.368111 c -10.0412,-3.448883 -10.4014,-3.538435 -10.4014,-2.585994 v 0.553658 l 1.3279,0.464488 c 0.7304,0.255471 5.3022,1.802271 10.1596,3.437337 l 8.8317,2.972842 0,0.385324 0,0.385316 1.4944,0.497311 1.4944,0.497317 -0.1076,0.964896 c -0.059,0.530699 -0.3203,5.693435 -0.5801,11.472755 -0.5927,13.181897 -0.4716,12.412601 -1.8393,11.682091 z m 12.679,-13.159031 0.5197,-0.553168 -0.2472,-0.890215 c -0.6508,-2.343979 -0.09,-4.674695 1.4496,-6.026667 0.4664,-0.409528 0.8464,-0.79835 0.8445,-0.864054 -0.014,-0.492792 0.034,-0.581338 0.3147,-0.581338 0.1749,0 0.4371,0.143367 0.5825,0.318583 0.1454,0.175217 0.5763,0.380957 0.9575,0.457199 0.3812,0.07624 0.7608,0.315083 0.8436,0.530756 l 0.1504,0.392135 -0.493,0.327347 -0.493,0.327346 0.4761,0.643909 0.476,0.643909 0.014,1.195417 0.014,1.195412 -0.4866,0.486609 c -0.9946,0.994628 -2.5633,0.549476 -1.6168,-0.458806 0.9092,-0.968466 1.0663,-3.720308 0.1812,-3.173312 -0.4952,0.306047 -0.6515,-0.150494 -0.2757,-0.805268 l 0.3901,-0.679741 -0.3821,-0.382115 -0.3822,-0.382114 -1.0465,1.046519 -1.0465,1.046519 -0.2672,0.992299 c -0.3401,1.262978 -0.1249,2.627591 0.5839,3.703736 l 0.5563,0.844501 0.8343,0.27535 c 3,0.990097 5.4013,-1.963612 4.2594,-5.239258 l -0.2398,-0.688005 0.4727,-4.00183 c 0.26,-2.201009 0.4371,-4.037552 0.3934,-4.081205 -0.066,-0.06616 -6.9625,3.936314 -7.3126,4.244072 -0.1661,0.146046 -0.8343,10.688879 -0.6774,10.688757 0.073,-6.4e-5 0.3668,-0.249031 0.6526,-0.553279 z m -37.5053,-1.403975 c 1.8344,-0.38152 3.3066,-3.052666 3.4192,-6.203904 l 0.045,-1.257517 -0.4619,-0.51238 c -1.1236,-1.246459 -6.083,-3.205709 -8.6094,-3.401253 l -1.6812,-0.13012 -0.5705,0.535991 -0.5705,0.535991 0,1.056715 c 0.01,2.215123 1.9973,6.354613 3.9738,8.278095 l 1.0131,0.985957 1.026,0.198619 c 0.5642,0.109245 1.1818,0.16696 1.3723,0.128262 0.1906,-0.03872 0.6582,-0.135203 1.0393,-0.214456 z m -3.0715,-2.707874 c -0.1592,-0.159193 -0.2771,-0.921541 -0.2771,-1.791324 0,-0.83281 -0.092,-1.834017 -0.2038,-2.224912 l -0.2039,-0.710719 0.2153,-0.384728 c 0.2902,-0.518518 1.3975,-0.489474 2.069,0.05427 l 0.5421,0.438991 -0.2681,0.773452 -0.2682,0.773446 0.1857,1.154706 c 0.1022,0.635093 0.097,1.388538 -0.012,1.674328 l -0.1974,0.519618 h -0.6524 c -0.3588,0 -0.7771,-0.124705 -0.9295,-0.277125 z m 6.9882,-7.45182 c 0.1816,-1.695692 -0.018,-3.813332 -0.463,-4.901565 l -0.3011,-0.737014 0.1263,-2.060694 0.1263,-2.060693 -1.0098,-0.356949 c -2.4161,-0.85412 -16.6465,-5.710193 -16.7333,-5.710193 -0.053,0 -0.096,0.356088 -0.096,0.791299 v 0.791294 l 4.3879,1.455837 4.3879,1.455832 v 0.293231 c 0,0.161271 0.1039,0.293226 0.2309,0.293226 0.127,0 0.231,-0.09451 0.231,-0.21002 0,-0.115516 0.6755,0.0096 1.5011,0.278028 l 1.5011,0.488048 v 0.847813 0.847814 l -0.7143,0.142848 c -1.3611,0.272229 -2.7079,2.494934 -2.4817,4.095628 l 0.078,0.553564 h 0.8019 0.8019 l 0.1724,-1.039241 0.1725,-1.039235 0.6661,-0.577356 0.6662,-0.577355 0.1406,-0.902081 c 0.2592,-1.662806 1.461,-2.49901 2.8388,-1.975182 l 0.6324,0.240454 -0.7903,0.39464 c -0.4347,0.217052 -0.9276,0.68373 -1.0954,1.037068 l -0.3051,0.642436 0.3881,1.168266 0.388,1.168272 0.6673,0.232629 c 0.3671,0.127948 0.6674,0.337506 0.6674,0.465688 0,0.130067 -0.1786,0.161056 -0.4042,0.07012 -0.2223,-0.08961 -0.8198,-0.218322 -1.3279,-0.286016 -0.5081,-0.0677 -1.0984,-0.274866 -1.3119,-0.460384 l -0.388,-0.337303 0.1115,0.425407 0.1115,0.425406 1.831,0.551911 1.831,0.55191 0.1498,0.798088 c 0.082,0.43895 0.096,1.465125 0.031,2.28039 l -0.119,1.48229 0.3778,0.220657 c 0.2078,0.121363 0.5996,0.223819 0.8706,0.227685 l 0.4927,0.0071 z m 24.7948,-6.435369 0.075,-0.385014 h -0.4788 c -0.2633,0 -0.4788,0.138568 -0.4788,0.307927 0,0.707313 0.7481,0.772626 0.883,0.07709 z m -9.6588,-0.227545 c -1.293,-0.67538 -1.9005,-1.202375 -3.0018,-2.603678 l -1.1551,-1.469882 v -0.928726 -0.92872 l -0.4619,-0.461886 -0.4619,-0.461885 h -0.9833 -0.9834 l -1.0374,-0.545884 c -0.5705,-0.300242 -1.4271,-0.672033 -1.9034,-0.826206 l -0.866,-0.280322 -0.01,-0.501707 -0.01,-0.501707 -0.3965,0.46836 -0.3965,0.468355 -1.5011,0.25437 c -0.8485,0.143791 -1.5951,0.167444 -1.7173,0.05438 -0.1239,-0.114556 -0.3705,-0.06967 -0.5774,0.1051 -0.5634,0.475953 -3.3826,1.30447 -4.4652,1.31225 l -0.9766,0.0071 0.4001,0.233135 c 0.5581,0.325204 20.3057,6.904696 20.731,6.907159 0.1906,0.0012 0.087,-0.133701 -0.2309,-0.299567 z m 5.2955,-7.192942 c 0.01,0.131558 0.224,0.23919 0.4781,0.23919 0.5109,0 0.6072,-0.24581 0.1959,-0.500001 l -0.2659,-0.164351 0.3952,-0.288993 c 0.2319,-0.169585 0.3,-0.347865 0.1647,-0.431485 -0.1268,-0.07838 -0.1899,-0.3536 -0.1402,-0.611615 l 0.09,-0.469124 -0.4315,0.136956 c -0.2374,0.07533 -0.5015,0.02376 -0.587,-0.114591 l -0.1555,-0.251546 -0.2681,0.212494 c -0.1475,0.116872 -0.4503,0.183024 -0.6731,0.146999 l -0.405,-0.0655 0.101,0.55704 c 0.059,0.326705 -0.012,0.56458 -0.1723,0.575276 l -0.2734,0.01823 0.2709,0.110579 c 0.1501,0.06123 0.2239,0.370556 0.1654,0.693088 l -0.1056,0.582508 0.2965,-0.185209 c 0.5233,-0.326833 0.8735,-0.283204 0.8901,0.110917 l 0.016,0.383716 0.1984,-0.461886 c 0.1092,-0.254033 0.2058,-0.354247 0.2148,-0.222695 z m 6.5228,-7.335039 c -0.127,-0.127023 -0.355,-0.154261 -0.5067,-0.06054 l -0.2757,0.170408 0.3023,0.186832 c 0.394,0.243488 0.7811,0.0041 0.4801,-0.296701 z m -4.4281,-0.434462 c 0,-0.113431 0.2078,-0.206234 0.4619,-0.206234 0.5557,0 0.5784,-0.192748 0.1023,-0.87238 l -0.3595,-0.51327 h -0.8024 -0.8025 l -0.1497,0.3903 c -0.084,0.217904 -0.03,0.430414 0.1227,0.481124 0.1498,0.04996 0.2725,0.281359 0.2725,0.514226 0,0.232868 0.1299,0.468704 0.2886,0.524089 0.3714,0.12955 0.8661,-0.05199 0.8661,-0.317855 z m -26.659,-1.586277 0.5626,0.213903 v -0.211597 c 0,-0.116379 -0.1197,-0.285551 -0.266,-0.375949 l -0.2659,-0.164352 0.3237,-0.258038 c 0.178,-0.141916 0.4544,-0.489788 0.6143,-0.773044 l 0.2906,-0.515007 h -0.2598 c -0.15,0 -0.2064,-0.20433 -0.1335,-0.483138 l 0.1263,-0.483145 -0.3881,0.337537 c -0.2134,0.185644 -0.5232,0.288712 -0.6885,0.229042 -0.3526,-0.12736 -1.6445,0.365082 -2.0832,0.794099 -0.1678,0.164136 -0.2198,0.300026 -0.1155,0.301971 0.1044,0.0017 0.034,0.104273 -0.1567,0.227405 l -0.3464,0.223866 0.3134,0.0035 c 0.1831,0.0023 0.2581,0.147524 0.1804,0.349949 l -0.1329,0.346416 h 0.3528 c 0.194,0 0.2888,0.103609 0.2105,0.230242 l -0.1423,0.230246 0.5906,-0.224529 0.5905,-0.224529 0.027,0.39843 0.027,0.398436 0.1034,-0.392823 0.1035,-0.392822 z m 41.9231,-1.618513 c 0.076,-0.188498 0.09,-0.526249 0.031,-0.750557 l -0.1067,-0.407839 h -0.6658 c -0.3685,0 -0.6745,0.128932 -0.6852,0.288678 -0.011,0.158773 -0.045,0.514324 -0.075,0.790117 l -0.056,0.501438 0.7106,-0.03954 c 0.3909,-0.02177 0.7725,-0.193785 0.8481,-0.382283 z m -15.2641,-0.594671 c 0,-0.339476 -0.4931,-0.455592 -0.7678,-0.180824 -0.2089,0.208848 0.3087,0.797331 0.563,0.640165 0.1126,-0.06961 0.2048,-0.276311 0.2048,-0.459341 z m -11.7781,-2.642201 c 0,-0.127016 -0.1039,-0.23094 -0.2309,-0.23094 -0.127,0 -0.2309,0.103924 -0.2309,0.23094 0,0.127022 0.1039,0.230946 0.2309,0.230946 0.127,0 0.2309,-0.103924 0.2309,-0.230946 z m 16.8588,-1.154705 c 0,-0.127016 -0.162,-0.23094 -0.3601,-0.23094 -0.198,0 -0.2958,0.103924 -0.2173,0.23094 0.079,0.127016 0.2406,0.230939 0.3601,0.230939 0.1195,0 0.2173,-0.103923 0.2173,-0.230939 z m -24.0204,-3.114772 c 0.3765,-0.45368 0.1321,-1.042181 -0.4329,-1.042181 -0.5394,0 -0.7345,0.426537 -0.4491,0.981504 0.2543,0.49444 0.5076,0.511861 0.882,0.06068 z m 16.1684,-1.27312 c 0,-0.127017 -0.104,-0.230941 -0.231,-0.230941 -0.127,0 -0.2309,0.103924 -0.2309,0.230941 0,0.127016 0.1039,0.230939 0.2309,0.230939 0.127,0 0.231,-0.103923 0.231,-0.230939 z m -9.2954,-1.531929 c 0.1587,-0.02411 0.2886,0.07172 0.2886,0.212901 v 0.256693 l 0.2664,-0.266318 0.2663,-0.266325 0.4842,0.257946 0.4843,0.25794 -0.3377,-0.409214 -0.3377,-0.409207 0.4395,-0.321425 0.4396,-0.321424 h -0.3752 -0.3753 l 0.1115,-0.615052 0.1116,-0.615052 -0.3373,0.279857 -0.3372,0.27985 -0.1565,-0.253369 -0.1566,-0.253368 -0.2966,0.246143 c -0.1631,0.135372 -0.4916,0.172922 -0.73,0.08344 l -0.4334,-0.162697 0.3014,0.371011 0.3015,0.37101 -0.4169,0.242562 -0.417,0.242562 0.3137,0.0071 0.3137,0.0071 -0.1497,0.596705 -0.1498,0.596704 0.298,-0.186065 c 0.1638,-0.102333 0.4278,-0.205768 0.5866,-0.229856 z m 5.7158,-0.315608 c 0.078,-0.127017 0.033,-0.23094 -0.1019,-0.23094 -0.1345,0 -0.2445,0.103923 -0.2445,0.23094 0,0.127022 0.046,0.230946 0.1018,0.230946 0.056,0 0.1661,-0.103924 0.2446,-0.230946 z m -20.711,-2.136208 -0.074,-0.519618 -0.5196,-0.0738 -0.5196,-0.0738 v 0.43945 c 0,0.2417 0.069,0.508741 0.1539,0.593421 0.085,0.08468 0.3518,0.153957 0.5935,0.153957 h 0.4394 z m 18.0551,-6.639576 c 0,-0.12702 -0.1039,-0.23094 -0.2309,-0.23094 -0.127,0 -0.2309,0.10392 -0.2309,0.23094 0,0.12702 0.1039,0.23094 0.2309,0.23094 0.127,0 0.2309,-0.10392 0.2309,-0.23094 z m 9.7458,68.081615 c -0.2988,-0.298774 -0.3628,-1.078381 -0.137,-1.666986 0.2145,-0.558816 0.9922,-0.436022 1.2832,0.202589 l 0.2588,0.567899 -0.3845,0.586812 c -0.4301,0.656328 -0.6171,0.713088 -1.0205,0.309686 z m 0.2757,-6.054261 c -0.069,-0.179794 -0.092,-0.621474 -0.05,-0.981503 l 0.075,-0.654594 0.504,-0.07175 0.504,-0.07175 0.2466,0.460779 0.2466,0.460774 -0.2253,0.592477 -0.2252,0.592476 h -0.4749 c -0.2611,0 -0.5313,-0.14711 -0.6003,-0.326909 z m 2.8343,0.172945 c -0.2834,-0.283379 -0.1579,-1.402775 0.1895,-1.691132 0.5161,-0.428283 1.0422,-0.106731 1.0422,0.636944 0,0.917599 -0.7373,1.548611 -1.2317,1.054188 z m -2.1863,-5.434825 c -0.3751,-0.375145 -0.3508,-1.452641 0.04,-1.777052 0.7584,-0.629493 1.6014,0.596506 1.08,1.570789 -0.2905,0.542698 -0.7069,0.619389 -1.1201,0.206263 z m 2.6482,0.123168 c -0.2834,-0.28338 -0.158,-1.402782 0.1895,-1.691133 0.516,-0.428283 1.0422,-0.106731 1.0422,0.636945 0,0.917593 -0.7373,1.548611 -1.2317,1.054188 z m -45.1876,-3.431567 v -0.583283 l 0.6351,0.343889 c 0.3493,0.189144 0.791,0.45003 0.9815,0.579748 l 0.3464,0.235855 -0.9815,0.0035 -0.9815,0.0035 z m 61.0505,-2.307634 c -0.2083,-0.542793 0.3777,-1.727915 0.8543,-1.727915 0.5551,0 0.7612,0.724623 0.4195,1.47458 -0.3016,0.662041 -1.0591,0.812693 -1.2738,0.253335 z m -15.3234,-0.456051 -0.2317,-0.609281 0.2466,-0.460698 c 0.1356,-0.253381 0.4214,-0.427019 0.6351,-0.385865 l 0.3886,0.07483 v 0.917442 0.917442 l -0.4035,0.0777 -0.4035,0.07769 z m -2.9119,0.01781 c -0.069,-0.1798 -0.092,-0.621474 -0.05,-0.981503 l 0.075,-0.6546 0.5174,-0.07351 0.5173,-0.07351 0.257,0.563911 0.2569,0.563911 -0.2628,0.491098 c -0.2974,0.555631 -1.1205,0.65878 -1.3103,0.164194 z m -43,-0.873992 c -0.1524,-0.15242 -0.2771,-0.571375 -0.2771,-0.931014 v -0.653883 l 0.3778,-0.144979 c 0.8493,-0.325886 1.6046,0.941518 0.9973,1.673303 -0.3372,0.406261 -0.7281,0.426408 -1.098,0.05659 z m 62.4621,-4.264725 c -0.5232,-0.523198 0.015,-2.014059 0.682,-1.887526 l 0.4342,0.08243 0.07,0.604082 c 0.095,0.817105 -0.7327,1.654899 -1.1865,1.201013 z m -64.1289,-1.701054 c -0.1464,-0.273574 -0.2034,-0.747536 -0.1267,-1.05325 l 0.1396,-0.555847 h 0.4292 c 0.6093,0 0.9934,0.556667 0.9066,1.31395 l -0.074,0.649056 -0.504,0.07175 -0.5039,0.07175 z m 65.2836,-3.610592 c -0.5465,-0.546465 0.038,-1.924512 0.816,-1.924512 h 0.4157 v 0.762104 c 0,1.014407 -0.7098,1.684291 -1.2317,1.162408 z m -66.3145,-1.315481 -0.3871,-0.283006 0.076,-0.796213 0.076,-0.796208 0.3895,-0.07376 c 0.2182,-0.04128 0.5569,0.181541 0.7697,0.506424 0.6433,0.981689 -0.058,2.076199 -0.924,1.44276 z m 67.2392,-4.630973 c -0.069,-0.179776 -0.047,-0.621456 0.049,-0.981503 l 0.174,-0.654628 0.4959,-0.07273 0.4959,-0.07273 0.1433,0.57084 c 0.2703,1.077257 -0.9808,2.192991 -1.3577,1.210748 z m -66.0665,-11.415074 c -0.08,-0.12931 -0.033,-0.304655 0.1048,-0.38966 0.3551,-0.219447 0.5842,0.08114 0.2877,0.377555 l -0.2472,0.247214 z m 68.9694,-0.417673 c -0.1186,-0.234684 -2.0162,-4.939296 -4.2168,-10.454696 l -4.001,-10.02799 0.7735,-1.49205 c 0.9361,-1.8054 3.4055,-4.38656 4.8635,-5.08356 l 1.0545,-0.50405 h 1.1877 c 4.8765,0 6.2506,6.40049 3.8425,17.897977 -1.0788,5.150648 -2.063,8.341911 -2.9736,9.641946 l -0.3145,0.449122 z m -47.2592,-19.779716 -0.3862,-0.28243 1.039,-2.30672 1.0389,-2.30672 h 0.6402 0.6401 l 0.076,0.39535 c 0.1117,0.57988 -1.6748,4.25469 -2.2068,4.53941 l -0.455,0.24354 z m 30.1139,-4.67307 c -1.3337,-0.16834 -4.8151,-0.52597 -7.7365,-0.79473 -2.9214,-0.26875 -7.1515,-0.69169 -9.4001,-0.93986 -2.2487,-0.24816 -4.1489,-0.45121 -4.2228,-0.45121 -0.074,0 -0.018,-0.21675 0.1234,-0.48166 0.3379,-0.63138 0.525,-0.57791 -2.8465,-0.81335 l -2.9514,-0.20611 -0.4297,0.4302 -0.4298,0.4302 -4.1245,-0.37693 c -6.3568,-0.58095 -11.2296,-1.07366 -11.8083,-1.19401 l -0.5247,-0.10911 0.2619,-0.48953 c 1.2818,-2.39491 4.8337,-4.60348 8.4617,-5.26135 l 1.395,-0.25298 6.4351,0.35015 c 3.5393,0.19258 6.5212,0.35088 6.6263,0.35178 0.1052,9.1e-4 -0.1546,0.4078 -0.5773,0.90423 -0.4227,0.49643 -0.9524,1.21724 -1.177,1.60179 l -0.4085,0.69919 1.1013,0.14043 c 0.6057,0.0772 1.428,0.19046 1.8273,0.25161 l 0.7261,0.11118 0.8976,-1.31411 c 0.4936,-0.72277 1.1603,-1.51031 1.4815,-1.75009 l 0.5839,-0.43597 13.7186,0.71544 c 7.5453,0.39349 13.7459,0.74266 13.7791,0.77593 0.033,0.0333 -0.6584,0.6478 -1.5371,1.36564 -1.9944,1.6293 -3.92,3.9431 -4.7685,5.72977 l -0.6497,1.36802 -0.7007,-0.0242 c -0.3854,-0.0133 -1.792,-0.16198 -3.1257,-0.33032 z m -25.054,-6.07014 c -0.1566,-0.15665 -0.7971,0.42102 -1.0849,0.97858 l -0.2483,0.48088 0.7204,-0.676 c 0.3962,-0.37179 0.6719,-0.72435 0.6128,-0.78346 z m 6.5787,0.53569 c 0.2983,-0.31755 0.4463,-0.57409 0.3289,-0.5701 -0.1974,0.007 -1.1492,1.14745 -0.9573,1.14745 0.047,0 0.3301,-0.25981 0.6284,-0.57735 z"
     id="path4" /></svg>
