<?xml version="1.0" encoding="UTF-8" standalone="no"?>
<svg
   viewBox="0 0 135540.19 7311.117"
   version="1.1"
   id="svg19"
   sodipodi:docname="GENRES.svg"
   inkscape:version="1.3 (0e150ed6c4, 2023-07-21)"
   xml:space="preserve"
   width="135540.19"
   height="7311.1172"
   xmlns:inkscape="http://www.inkscape.org/namespaces/inkscape"
   xmlns:sodipodi="http://sodipodi.sourceforge.net/DTD/sodipodi-0.dtd"
   xmlns="http://www.w3.org/2000/svg"
   xmlns:svg="http://www.w3.org/2000/svg"><defs
     id="defs19"><rect
       x="353.62744"
       y="-2.5734873"
       width="30.124939"
       height="50.712837"
       id="rect20" /></defs><sodipodi:namedview
     id="namedview19"
     pagecolor="#ffffff"
     bordercolor="#000000"
     borderopacity="0.25"
     inkscape:showpageshadow="2"
     inkscape:pageopacity="0.0"
     inkscape:pagecheckerboard="0"
     inkscape:deskcolor="#d1d1d1"
     inkscape:zoom="4.6710219"
     inkscape:cx="226.07473"
     inkscape:cy="37.143906"
     inkscape:window-width="3360"
     inkscape:window-height="1369"
     inkscape:window-x="1432"
     inkscape:window-y="-8"
     inkscape:window-maximized="1"
     inkscape:current-layer="svg19" /><path
     style="font-weight:300;font-size:45.8334px;font-family:'Josefin Sans';-inkscape-font-specification:'Josefin Sans Light';fill:#ffffff;stroke:#75a5bd;stroke-width:0;stroke-linecap:round;stroke-miterlimit:4.7;paint-order:markers stroke fill"
     d="m -6266.1539,38.60093 q 0,3.549805 -1.3558,6.066121 -1.3557,2.516317 -3.6465,3.81941 -2.244,1.348027 -5.0958,1.437895 v 0 -2.111909 q 3.366,-0.179737 5.5633,-2.561251 2.244,-2.381514 2.244,-6.785068 V 11.505589 h 2.2908 z m 17.3912,5.167436 q -2.8518,0 -5.0491,-1.213224 -2.1972,-1.213224 -3.4595,-3.280198 -1.2155,-2.111909 -1.2155,-4.718095 0,-2.561251 1.309,-4.67316 1.309,-2.111909 3.5063,-3.370067 2.244,-1.258158 4.9556,-1.258158 3.2725,0 5.4698,1.842303 2.244,1.842304 3.2258,4.807962 l -15.9887,5.931319 -0.6545,-1.527764 14.6329,-5.481975 -0.4675,0.629078 q -0.7948,-1.797369 -2.431,-3.100462 -1.5896,-1.303092 -3.9271,-1.303092 -2.1038,0 -3.7868,0.988553 -1.683,0.988552 -2.7115,2.651119 -0.9818,1.662567 -0.9818,3.774476 0,1.977106 0.935,3.684607 0.9818,1.7075 2.7116,2.740987 1.7297,1.033488 3.9738,1.033488 1.496,0 2.8517,-0.53921 1.4026,-0.539211 2.4778,-1.392962 l 1.122,1.527764 q -1.309,0.988553 -3.0388,1.617632 -1.683,0.629079 -3.4595,0.629079 z m 20.5702,0.134803 q -2.5713,0 -4.114,-1.437896 -1.5428,-1.482829 -1.6363,-3.819409 V 25.839608 h 2.1973 v 12.177177 q 0.093,1.707501 1.122,2.830857 1.0753,1.123355 3.179,1.213224 1.7766,0 3.3193,-0.898685 1.5428,-0.898684 2.4778,-2.426448 0.9818,-1.572698 0.9818,-3.549805 v -9.34632 h 2.1972 v 17.569285 h -1.9635 l -0.2337,-5.526911 0.3272,1.213224 q -0.4675,1.348027 -1.683,2.471383 -1.1688,1.078422 -2.805,1.707501 -1.5896,0.629079 -3.3661,0.629079 z m 23.4221,-10.469675 5.4231,-7.593886 h 2.2907 l -6.7788,9.166584 z m 8.0878,9.975399 h -2.618 l -13.6979,-17.569285 h 2.7583 z m -8.1346,-7.548952 -5.61,7.548952 h -2.3375 l 6.732,-8.941912 z m 35.437,7.908425 q -2.5713,0 -4.6751,-1.168289 -2.1038,-1.213224 -3.366,-3.325133 -1.2155,-2.111909 -1.2155,-4.763029 0,-2.830857 1.2622,-4.897831 1.2623,-2.066975 3.4128,-3.190331 2.1973,-1.123356 4.8153,-1.123356 2.6181,0 4.9556,1.303094 2.3843,1.303092 3.4595,3.415001 l -0.374,0.988553 V 9.2588774 h 2.1973 V 43.408893 h -2.244 v -5.392108 l 0.4675,0.988553 q -1.1688,2.111909 -3.5063,3.459935 -2.3375,1.303093 -5.1893,1.303093 z m 0.561,-1.842303 q 2.1038,0 3.7868,-0.85375 1.683,-0.898685 2.7115,-2.381514 1.0285,-1.527764 1.1688,-3.415002 v -2.246712 q -0.3273,-1.7075 -1.4493,-3.055527 -1.122,-1.348027 -2.7115,-2.111909 -1.5896,-0.808816 -3.5063,-0.808816 -2.1038,0 -3.8336,0.943618 -1.7297,0.94362 -2.7583,2.606186 -1.0285,1.662566 -1.0285,3.864344 0,2.066974 1.0285,3.774475 1.0286,1.662566 2.7583,2.696054 1.7766,0.988553 3.8336,0.988553 z m 26.1803,1.842303 q -2.8518,0 -5.049,-1.213224 -2.1973,-1.213224 -3.4596,-3.280198 -1.2155,-2.111909 -1.2155,-4.718095 0,-2.561251 1.309,-4.67316 1.309,-2.111909 3.5063,-3.370067 2.244,-1.258158 4.9556,-1.258158 3.2725,0 5.4698,1.842303 2.244,1.842304 3.2258,4.807962 l -15.9887,5.931319 -0.6545,-1.527764 14.6329,-5.481975 -0.4675,0.629078 q -0.7948,-1.797369 -2.431,-3.100462 -1.5896,-1.303092 -3.9271,-1.303092 -2.1038,0 -3.7868,0.988553 -1.683,0.988552 -2.7115,2.651119 -0.9818,1.662567 -0.9818,3.774476 0,1.977106 0.935,3.684607 0.9818,1.7075 2.7116,2.740987 1.7297,1.033488 3.9738,1.033488 1.496,0 2.8517,-0.53921 1.4026,-0.539211 2.4778,-1.392962 l 1.122,1.527764 q -1.309,0.988553 -3.0388,1.617632 -1.683,0.629079 -3.4595,0.629079 z"
     id="text19"
     aria-label="Jeux de" /><text
     xml:space="preserve"
     id="text20"
     style="white-space:pre;shape-inside:url(#rect20);display:inline;fill:#000000;stroke:#75a5bd;stroke-width:0;stroke-linecap:round;stroke-miterlimit:4.7;paint-order:markers stroke fill"
     transform="translate(-6385.1553,9.3696025)" /><g
     id="text21"
     style="font-size:50.0562px;stroke:#75a5bd;stroke-width:0;stroke-linecap:round;stroke-miterlimit:4.7;paint-order:markers stroke fill"
     aria-label="ROLE (RPG)"
     transform="translate(-6385.1553,9.3696025)"><path
       style="font-weight:bold;font-family:'Josefin Sans';-inkscape-font-specification:'Josefin Sans Bold';fill:#ffffff"
       d="m 120.40899,43.201706 q 3.45388,0 6.15691,0.901012 2.70304,0.850955 4.50506,2.50281 1.85208,1.601798 2.80315,3.904383 0.95107,2.252529 0.95107,5.105732 0,2.252529 -0.70079,4.505058 -0.65073,2.252529 -2.20247,4.104608 -1.50169,1.85208 -4.0045,3.003372 -2.50281,1.101237 -6.20697,1.101237 h -5.20584 v 11.71315 h -7.25815 V 43.201706 Z m 1.25141,18.120344 q 1.65185,0 2.75309,-0.550618 1.10123,-0.550619 1.70191,-1.401574 0.65073,-0.850955 0.90101,-1.751967 0.30034,-0.951068 0.30034,-1.751967 0,-0.600674 -0.20023,-1.501686 -0.15017,-0.951067 -0.70079,-1.902135 -0.55061,-0.951068 -1.70191,-1.601799 -1.10123,-0.65073 -3.00337,-0.65073 h -5.20584 V 61.32205 Z m 6.80764,4.505058 9.11023,14.21596 h -8.4595 l -9.31045,-14.015736 z m 11.6131,-4.154665 q 0,-3.804271 1.45163,-7.208092 1.45163,-3.403822 4.00449,-6.006744 2.60292,-2.652979 6.00675,-4.154665 3.40382,-1.501685 7.3082,-1.501685 3.85433,0 7.25815,1.501685 3.40382,1.501686 6.00674,4.154665 2.65298,2.602922 4.10461,6.006744 1.50169,3.403821 1.50169,7.208092 0,3.904384 -1.50169,7.308205 -1.45163,3.403822 -4.10461,6.006744 -2.60292,2.552866 -6.00674,4.004496 -3.40382,1.45163 -7.25815,1.45163 -3.90438,0 -7.3082,-1.45163 -3.40383,-1.45163 -6.00675,-4.004496 -2.55286,-2.602922 -4.00449,-6.006744 -1.45163,-3.403821 -1.45163,-7.308205 z m 7.50843,0 q 0,2.452754 0.85095,4.60517 0.90101,2.102361 2.45276,3.754215 1.60179,1.601799 3.6541,2.50281 2.10236,0.901012 4.55511,0.901012 2.35264,0 4.35489,-0.901012 2.05231,-0.901011 3.55399,-2.50281 1.50169,-1.651854 2.35264,-3.754215 0.85096,-2.152416 0.85096,-4.60517 0,-2.50281 -0.90101,-4.655226 -0.85096,-2.152417 -2.4027,-3.754215 -1.50169,-1.651855 -3.55399,-2.552866 -2.0523,-0.901012 -4.455,-0.901012 -2.4027,0 -4.455,0.901012 -2.05231,0.901011 -3.60405,2.552866 -1.55174,1.601798 -2.4027,3.754215 -0.85095,2.152416 -0.85095,4.655226 z m 37.39194,-18.470737 h 7.25815 V 73.0352 h 17.31945 v 7.007868 h -24.5776 z m 32.08606,0 h 25.12821 v 7.007868 h -17.87006 v 7.858823 h 15.81776 v 7.007868 H 224.32572 V 73.0352 h 18.57085 v 7.007868 h -25.829 z"
       id="path4" /><path
       style="font-size:37.1762px;fill:#ffffff"
       d="m 264.7062,69.038912 q 0,-3.791972 0.89223,-7.100654 0.9294,-3.308682 2.3421,-5.87384 1.44987,-2.602334 3.01127,-4.275263 l 4.27526,1.970339 q -1.44987,1.672929 -2.60233,3.940677 -1.15246,2.230572 -1.82163,5.09314 -0.66918,2.825391 -0.66918,6.245601 0,3.420211 0.66918,6.282778 0.66917,2.825392 1.82163,5.055964 1.15246,2.230572 2.60233,3.903501 l -4.27526,2.007515 q -1.5614,-1.710106 -3.01127,-4.31244 -1.4127,-2.565157 -2.3421,-5.836663 -0.89223,-3.308682 -0.89223,-7.100655 z m 24.20174,-16.357528 q 2.56516,0 4.57267,0.669172 2.00752,0.631995 3.34586,1.85881 1.37552,1.189638 2.08187,2.899743 0.70634,1.672929 0.70634,3.791973 0,1.672929 -0.52046,3.345858 -0.48329,1.672929 -1.63575,3.048448 -1.11529,1.37552 -2.9741,2.230573 -1.85881,0.817876 -4.60985,0.817876 h -3.86632 v 8.699231 h -5.39055 V 52.681384 Z m 0.9294,13.457785 q 1.22682,0 2.04469,-0.408938 0.81788,-0.408939 1.264,-1.040934 0.48329,-0.631995 0.66917,-1.301167 0.22305,-0.706348 0.22305,-1.301167 0,-0.446114 -0.1487,-1.115286 -0.11153,-0.706348 -0.52047,-1.412696 -0.40894,-0.706348 -1.26399,-1.189638 -0.81787,-0.483291 -2.23057,-0.483291 h -3.86632 v 8.253117 z m 5.05597,3.345858 6.76607,10.558041 h -6.28278 l -6.91478,-10.409336 z m 19.51753,-16.803643 q 3.38303,0 5.72513,1.152462 2.3421,1.115286 3.56892,3.197154 1.22681,2.044691 1.22681,4.870082 0,1.672929 -0.52046,3.383034 -0.48329,1.672929 -1.59858,3.048449 -1.07811,1.375519 -2.93692,2.230572 -1.82163,0.817876 -4.49832,0.817876 h -3.86633 v 8.662055 h -5.39054 V 52.681384 Z m 0.9294,13.457785 q 1.22682,0 2.04469,-0.408938 0.81788,-0.446115 1.26399,-1.07811 0.4833,-0.669172 0.66918,-1.37552 0.22305,-0.706347 0.22305,-1.226814 0,-0.408938 -0.1487,-1.07811 -0.11153,-0.706348 -0.52047,-1.412696 -0.40894,-0.706348 -1.26399,-1.189638 -0.81788,-0.483291 -2.23057,-0.483291 h -3.86633 v 8.253117 z m 36.61856,11.15286 q -0.4833,0.520467 -1.52423,1.07811 -1.04093,0.520467 -2.41645,0.966581 -1.33835,0.446115 -2.75104,0.706348 -1.4127,0.29741 -2.67669,0.29741 -3.34586,0 -6.02254,-0.966582 -2.67669,-1.003757 -4.57267,-2.751039 -1.89599,-1.784457 -2.89975,-4.20091 -1.00376,-2.416453 -1.00376,-5.279021 0,-3.754796 1.11529,-6.505835 1.15246,-2.788215 3.08563,-4.609849 1.97033,-1.85881 4.49832,-2.751039 2.56515,-0.892229 5.35337,-0.892229 2.63951,0 4.8329,0.59482 2.1934,0.557643 3.71762,1.412695 l -1.74728,5.018787 q -0.66917,-0.371762 -1.78445,-0.743524 -1.11529,-0.371762 -2.26775,-0.594819 -1.15247,-0.260233 -2.04469,-0.260233 -2.23058,0 -3.94068,0.557643 -1.71011,0.557643 -2.89974,1.672929 -1.15247,1.115286 -1.74729,2.788215 -0.59482,1.635753 -0.59482,3.829149 0,1.933162 0.66918,3.494563 0.66917,1.524224 1.85881,2.602334 1.22681,1.078109 2.86256,1.635752 1.67293,0.557643 3.68045,0.557643 1.15246,0 2.11904,-0.148704 0.96658,-0.185881 1.63575,-0.557643 v -3.308682 h -4.72137 v -5.204668 h 10.18628 z m 14.98197,-8.253117 q 0,3.791973 -0.9294,7.100655 -0.89223,3.308682 -2.30493,5.87384 -1.41269,2.602334 -3.01127,4.275263 l -4.27526,-1.970339 q 1.44987,-1.672929 2.60233,-3.940677 1.15246,-2.230572 1.82163,-5.055964 0.66918,-2.862567 0.66918,-6.282778 0,-3.42021 -0.66918,-6.245601 -0.66917,-2.862568 -1.82163,-5.09314 -1.15246,-2.267748 -2.60233,-3.903501 l 4.27526,-2.007515 q 1.59858,1.672929 3.01127,4.275263 1.4127,2.602334 2.30493,5.911016 0.9294,3.271506 0.9294,7.063478 z"
       id="path5" /></g><path
     fill="#000000"
     d="m -6334.8945,11.462807 -30.3082,19.338672 30.3082,-0.654385 z m 2.7553,0 v 18.684287 l 30.2565,0.654385 z m 7.422,8.60511 c 0.4822,0.01037 0.9988,0.129148 1.5843,0.358186 0.3961,0.156702 0.7061,0.328914 0.9644,0.528672 0.2583,0.198034 0.4822,0.430507 0.6371,0.652653 0.2583,0.354743 0.3789,0.695709 0.4478,1.076289 0.4133,-0.304809 0.8954,-0.513178 1.4121,-0.66127 0.5855,-0.125712 1.2398,-0.0603 1.9114,0.211811 0.7922,0.313412 1.3949,0.721539 1.7737,1.224382 0.3789,0.50456 0.6028,1.028065 0.6889,1.572232 0.052,0.294475 0.052,0.587224 0.017,0.862754 -0.017,0.292749 -0.1033,0.568271 -0.2066,0.809362 -0.086,0.25831 -0.2067,0.51662 -0.3961,0.740483 -0.1722,0.223871 -0.3616,0.447734 -0.6027,0.619938 -0.4305,0.344416 -0.9471,0.568279 -1.5671,0.671605 -0.6199,0.103318 -1.326,0 -2.1181,-0.309969 -0.6888,-0.27553 -1.2054,-0.654385 -1.5499,-1.153778 -0.2755,-0.447734 -0.4994,-0.947135 -0.5855,-1.446527 -0.3444,0.25831 -0.7232,0.430514 -1.1882,0.499392 -0.5166,0.103326 -1.1193,0 -1.8426,-0.275522 -0.4133,-0.172212 -0.7749,-0.361635 -1.0676,-0.568279 -0.31,-0.223871 -0.5511,-0.449459 -0.7405,-0.702601 -0.3617,-0.444292 -0.5511,-0.92474 -0.6028,-1.43791 -0.034,-0.499401 0.034,-0.972964 0.1895,-1.403479 0.086,-0.222145 0.2238,-0.442566 0.3616,-0.675047 0.1722,-0.189423 0.3444,-0.380572 0.5338,-0.561386 0.4133,-0.304802 0.8955,-0.511453 1.4638,-0.607886 0.155,-0.02065 0.31,-0.02928 0.4822,-0.02414 z m -17.0655,0.910963 c 0.8266,0.0086 1.877,0.614771 1.5498,1.728942 -0.6888,1.188217 -1.7737,2.095737 -3.0997,2.548638 -1.2743,0.430515 -2.583,0.757703 -3.7885,0.327189 -0.5166,-0.396067 -2.2387,-1.618724 -2.5831,-0.585491 -0.2066,2.634737 0.1722,2.238669 -1.8942,3.065251 V 23.8616 c 1.722,-0.671605 3.6163,-0.774923 5.3383,0.223863 1.3777,0.723263 3.2719,0.25831 4.133,-0.998786 0.1722,-1.119339 -1.3777,-0.77493 -2.0665,-0.568279 -0.5166,-1.429308 1.3432,-1.451695 2.2387,-1.532626 0.052,-0.0053 0.1033,-0.0068 0.1722,-0.0068 z m 17.3066,0.768038 c -0.155,0.0015 -0.3099,0.02413 -0.4822,0.06196 -0.4132,0.105043 -0.7232,0.373688 -0.8782,0.804195 -0.1722,0.416737 -0.1378,0.816254 0.1033,1.184775 0.2411,0.382297 0.5683,0.642325 1.0333,0.823146 0.4994,0.198034 0.9299,0.242808 1.3776,0.125705 0.4305,-0.09643 0.7405,-0.36507 0.8955,-0.781807 0.1722,-0.430514 0.1377,-0.830032 -0.1206,-1.207162 -0.2411,-0.36852 -0.6027,-0.649218 -1.1021,-0.847251 -0.2755,-0.113653 -0.551,-0.16532 -0.8266,-0.163595 z m 4.9768,1.747886 c -0.1895,0.0086 -0.3789,0.04653 -0.5511,0.111928 -0.465,0.201484 -0.7749,0.509728 -0.9299,0.92819 -0.1722,0.430514 -0.155,0.876523 0.069,1.307037 0.2067,0.447734 0.62,0.79215 1.2399,1.050453 0.4994,0.189431 0.9988,0.22387 1.481,0.103325 0.4822,-0.137765 0.8094,-0.464953 0.9988,-0.964346 0.1894,-0.499401 0.1894,-0.952302 -0.086,-1.379366 -0.2583,-0.425347 -0.6372,-0.752544 -1.1366,-0.948852 -0.3961,-0.154985 -0.7577,-0.222146 -1.0849,-0.208369 z m -16.4284,9.4248 -32.2024,0.706044 12.3987,33.218416 z m 4.8217,0 19.8725,33.92446 12.261,-33.218416 z m -2.4109,1.291535 -20.148,34.475527 h 40.3133 z m 20.0792,2.824168 3.3063,7.318735 1.2399,-0.568279 0.7061,1.584292 -1.2227,0.551052 1.0849,2.410881 -1.7909,0.809362 -1.0849,-2.410873 -5.2006,2.341995 -0.6716,-1.498194 c 0.241,-1.584285 0.7577,-4.787308 1.5326,-9.591836 l 0.31,-0.137765 0.1377,-0.05167 0.5339,-0.25831 z m -38.9012,2.083693 h 0.2239 c 0.4994,0 0.9471,0.0861 1.3432,0.275522 1.1882,0.55106 1.8426,1.446527 2.0148,2.634745 0.1549,1.188217 -0.1722,2.634744 -0.9816,4.322354 -0.8094,1.670391 -1.7221,2.841388 -2.7209,3.495773 -1.0332,0.654378 -2.1181,0.706044 -3.2891,0.172205 -1.016,-0.482174 -1.6187,-1.153778 -1.8253,-2.049246 -0.2067,-0.912688 -0.155,-1.670391 0.1549,-2.324776 l 1.6532,0.757711 c -0.155,0.292749 -0.1894,0.654377 -0.1378,1.084892 0.052,0.447734 0.3272,0.774922 0.8611,1.033232 0.5338,0.241083 1.0504,0.223863 1.5843,-0.03442 0.5338,-0.24109 1.0849,-0.895468 1.6703,-1.945928 0.086,-0.172204 0.1895,-0.361628 0.2928,-0.568271 -0.31,0.206643 -0.6199,0.344408 -0.9471,0.447734 -0.5511,0.154984 -1.1366,0.0861 -1.7737,-0.206651 -0.7405,-0.344409 -1.2916,-0.947127 -1.636,-1.825375 -0.3616,-0.861029 -0.2583,-1.842595 0.2755,-2.961934 l 0.017,-0.01725 c 0.1894,-0.396075 0.4133,-0.757703 0.6888,-1.033232 0.2411,-0.29275 0.5338,-0.53384 0.8266,-0.723264 0.5338,-0.327189 1.1021,-0.516613 1.7048,-0.533832 z m -16.3079,0.878241 v 29.825976 l 10.6768,-0.981566 z m 70.2598,0 -10.6595,28.84441 10.6595,0.981566 z m -15.8256,0.103325 c -0.2756,1.670391 -0.62,3.874621 -1.0677,6.578244 l 3.3752,-1.515406 -1.4121,-3.082478 z m -37.8336,0.706044 c -0.2583,0.01725 -0.4994,0.06885 -0.7404,0.189424 -0.5167,0.24109 -0.8783,0.602718 -1.1194,1.119339 -0.2755,0.585498 -0.3616,1.119331 -0.2066,1.65317 0.155,0.516613 0.4649,0.878249 0.9299,1.102112 0.4822,0.22387 0.9816,0.22387 1.4637,0 0.4822,-0.223863 0.8783,-0.619938 1.171,-1.205437 0.2411,-0.499393 0.2928,-1.016013 0.1722,-1.549845 -0.1377,-0.53384 -0.4477,-0.912688 -0.9299,-1.136559 -0.2411,-0.120545 -0.4994,-0.172204 -0.7405,-0.172204 z m 17.7716,8.214195 h 2.6864 v 14.499698 h -2.6864 V 51.431679 c -1.5154,0.998793 -2.6347,1.653178 -3.3407,1.928701 l -1.0849,0.48218 v -2.410881 l 1.0849,-0.482173 c 0.706,-0.309969 1.8253,-0.929907 3.3407,-1.928701 z m 34.7339,1.067672 h 0.086 c 0.6199,0.05167 0.9815,1.205437 0.8093,1.911481 -0.017,3.203024 0.1895,6.750456 -1.6704,9.522958 -0.1549,0.206651 -0.3788,0.327196 -0.6371,0.430514 -0.9988,-0.706036 -0.5166,-1.94592 0.2066,-2.669184 0.1722,1.257104 0.9472,-0.499393 1.1366,-0.964346 0.2239,-0.55106 0.6199,-3.04804 -0.1722,-1.756497 0.1205,0.688825 -1.171,2.25589 -1.6015,1.394861 -0.8611,-2.479752 0,-5.252262 1.2054,-7.490931 0.2239,-0.241091 0.4305,-0.361636 0.6372,-0.378856 z m -67.7284,0.154985 c 0.1722,0.01725 0.1722,0.172212 0.3444,0.619945 v 10.521744 c -1.2054,-1.205437 -0.5166,-2.996373 -0.6888,-4.546218 -0.1722,-1.308762 0.3444,-2.806949 -0.1722,-3.995166 -0.8611,-0.292749 -1.0333,-2.927494 -0.5167,-2.187011 0.6889,0.82659 0.6889,-0.464953 1.0333,-0.413294 z m 67.3151,1.825382 c -0.1722,0 -0.3444,0.172205 -0.4822,0.637158 -0.2755,1.016013 -0.5683,2.307556 -0.1205,3.323561 0.8782,-0.344408 0.9299,-1.65317 1.1365,-2.496972 0.2067,-0.568279 -0.155,-1.446527 -0.5338,-1.463747 z m -64.732,2.083685 c 0.6888,-0.0861 1.2054,1.239877 1.5498,1.859815 0.5648,2.18701 0.725,2.393654 0.5166,2.893054 -0.861,-0.637165 -0.8386,-1.274323 -0.923,-1.532633 -0.1722,-0.516612 -0.2824,-0.912687 -0.6268,-1.44652 -0.5752,0.482174 -0.5166,1.567065 -0.5166,2.307549 0,-0.27553 0.1722,-0.396068 0.6888,-0.120545 1.2054,2.169791 2.0664,5.011179 1.2054,7.490939 l -0.3444,0.189423 c -1.8942,-0.998785 -2.0665,-3.340781 -2.4109,-5.166163 -0.1722,-2.118125 -0.1722,-4.253469 0.3444,-6.319934 0.1723,-0.103326 0.3445,-0.154985 0.5167,-0.154985 z m 61.6839,0.826582 c 0.775,0.05167 0.1378,6.061631 0.1378,9.471299 l -0.7577,1.153778 V 58.3199 c -0.7921,1.291535 -1.5671,1.567065 -1.0505,-0.154985 0.8438,-2.307556 1.3605,-3.203024 1.6704,-3.185804 z m -61.3395,4.511786 c -0.6888,0.809362 -0.3444,2.20423 -0.1722,3.168577 0.3444,0.947127 1.2054,1.756496 1.0332,0.27553 0,-0.981574 0.1722,-2.032026 -0.5166,-2.824169 0,-0.103325 -0.1722,-0.327188 -0.3444,-0.619938 z m 11.3655,11.951051 19.4592,21.198485 19.4248,-21.198485 z m -3.6163,0.05167 -9.2991,0.843802 11.0212,7.077644 c -0.3444,-0.464949 -0.8611,-0.98157 -1.2055,-1.515402 -0.861,-1.188217 -1.722,-2.341995 -3.2719,-2.858615 -1.5498,-1.119331 -0.6888,-0.912688 0.5166,-0.447734 -0.1722,-0.309969 -0.1722,-0.447734 0,-0.447734 0.3445,-0.03442 1.5499,0.723264 1.7221,1.084899 l 4.3051,5.441686 11.1934,7.180969 z m 46.1855,0 -7.3015,7.973105 c 1.1021,-0.533832 1.9459,-1.463747 2.9275,-2.135344 0.4133,-0.24109 0.6371,-0.327189 0.7405,-0.327189 0.3616,0 -0.9299,1.222657 -1.326,1.773716 -1.6187,1.687611 -2.7553,3.960719 -4.9251,5.011172 l 3.2547,-4.219029 c -0.3961,0.22387 -1.0332,0.551059 -1.4121,0.706044 l -6.9399,7.577036 12.8293,-8.196974 c 0.9299,-1.153778 0.3272,-0.964355 -0.9815,-0.154985 l -1.9632,1.033225 c 1.9632,-2.359207 4.6151,-4.064044 6.8882,-6.13051 0.5511,-0.25831 1.636,-0.964346 1.8943,-0.981566 0.1378,-0.01725 0.034,0.172204 -0.4822,0.723256 l -2.1698,2.75529 c 1.7221,-1.308763 0.155,0.671604 -0.7749,0.947127 -0.1205,0.172211 -0.2411,0.344416 -0.3788,0.4994 l 9.3852,-6.009972 z m -27.2601,2.875828 c 0.2411,0 0.4649,0.01725 0.706,0.03442 v 7.473719 h -2.2386 v -5.166163 c -0.8611,-0.241091 -1.8943,0.292749 -2.7553,-0.05167 -0.6888,-0.499393 0.1722,-1.17099 0.861,-1.016006 0.5166,-0.01725 1.2054,0.03442 1.5499,-0.551059 0.5855,-0.53384 1.2054,-0.723264 1.877,-0.723264 z m 5.7,0.120545 c 0,0 0.1722,0.01725 0.1722,0.03442 0.6888,0.137765 1.2054,0.05167 1.7221,0.06885 h 4.4084 c 0.2583,0.51662 0.1378,1.343209 -0.5683,1.360429 -0.6716,0.0861 -1.3432,-0.06885 -2.0148,0.03442 -0.8093,0.03442 -1.6531,-0.309969 -2.5142,0.06885 -0.5166,0.29275 -0.6888,1.463747 0.1722,1.050453 0.6889,-0.189424 1.2571,-0.30997 1.8599,-0.154985 1.2054,0.189431 2.583,0.4994 3.2891,1.584292 0.3616,0.53384 0.4649,1.257104 0.1205,1.842595 -0.6199,1.119338 -1.9976,1.446527 -3.1513,1.670398 -0.4133,0.06885 -0.8094,0.241083 -1.2571,0.206643 -1.2055,-0.103325 -2.5831,-0.189423 -3.4441,-1.222656 -0.5167,-0.430514 -0.5167,-1.222657 0.3444,-1.153778 0.5166,-0.01725 1.3776,-0.06885 1.722,0.602718 0.5166,0.637158 1.5499,0.516621 2.2387,0.344409 0.6199,-0.0861 1.2915,-0.447734 1.3088,-1.153771 0.1033,-0.723263 -0.5339,-1.239883 -1.1883,-1.343201 -0.9815,-0.396075 -2.0148,0.241082 -3.048,0.309969 -0.5166,0.189424 -1.5499,0.0861 -1.5499,-0.757703 0.1723,-0.723264 0.5167,-1.394869 0.5167,-2.152572 0,-0.516612 0.3444,-1.205436 0.861,-1.239876 z m 22.9894,0.861029 c -0.034,-0.03442 -1.2054,0.998785 -1.7048,1.39486 l -2.7209,2.25589 c 1.481,-0.757703 2.8414,-1.653171 3.8402,-2.996373 0.4477,-0.447734 0.6027,-0.637158 0.5855,-0.654377 z m -42.6208,2.445313 c 0.5166,0 1.3776,0.792142 1.722,1.205437 l 4.4774,5.355587 c -1.3777,-0.361628 -2.2387,-1.222657 -3.0997,-2.359215 -1.0333,-1.257096 -1.8943,-2.858608 -3.6163,-3.37522 -1.5499,-0.861029 -0.8611,-1.102119 0.3444,-0.378855 0,-0.327189 0,-0.447734 0.1722,-0.447734 z"
     id="path1"
     style="fill:#ffffff;stroke-width:0.172206" /></svg>
