<?xml version="1.0" encoding="UTF-8" standalone="no"?>
<svg
   viewBox="0 0 126540 7040.2727"
   version="1.1"
   id="svg19"
   sodipodi:docname="GENRES.svg"
   inkscape:version="1.3 (0e150ed6c4, 2023-07-21)"
   xml:space="preserve"
   width="126540"
   height="7040.2729"
   xmlns:inkscape="http://www.inkscape.org/namespaces/inkscape"
   xmlns:sodipodi="http://sodipodi.sourceforge.net/DTD/sodipodi-0.dtd"
   xmlns="http://www.w3.org/2000/svg"
   xmlns:svg="http://www.w3.org/2000/svg"><defs
     id="defs19"><rect
       x="353.62744"
       y="-2.5734873"
       width="30.124939"
       height="50.712837"
       id="rect20" /><clipPath
       id="clippath"><polygon
         points="175.05,12.21 63.19,12.21 28.63,76.52 119.12,184.33 209.61,76.52 "
         style="fill:none;stroke-width:0px"
         id="polygon1" /></clipPath><clipPath
       id="clippath-1"><polygon
         points="444.68,49.13 359.58,0 274.48,49.13 274.48,147.4 359.58,196.54 444.68,147.4 "
         style="fill:none;stroke-width:0px"
         id="polygon2" /></clipPath><clipPath
       id="clippath-2"><path
         d="M 541.18,183.22 H 660.4 c 13.94,0 25.34,-11.4 25.34,-25.34 V 38.66 c 0,-13.94 -11.4,-25.34 -25.34,-25.34 H 541.18 c -13.94,0 -25.34,11.4 -25.34,25.34 v 119.22 c 0,13.94 11.4,25.34 25.34,25.34 z"
         style="fill:none;stroke-width:0px"
         id="path2" /></clipPath><clipPath
       id="clippath-3"><rect
         x="284.79999"
         y="252.77"
         width="149.57001"
         height="149.57001"
         transform="rotate(-45,359.57879,327.55759)"
         style="fill:none;stroke-width:0px"
         id="rect2" /></clipPath><clipPath
       id="clippath-4"><polygon
         points="702.03,415.23 600.79,239.88 499.55,415.23 "
         style="fill:none;stroke-width:0px"
         id="polygon3" /></clipPath><clipPath
       id="clippath-5"><polygon
         points="52.3,387.16 119.12,425.74 185.94,387.16 185.94,267.95 119.12,229.37 52.3,267.95 "
         style="fill:none;stroke-width:0px"
         id="polygon4" /></clipPath><clipPath
       id="clippath-6"><rect
         x="45.779999"
         y="483.5"
         width="146.69"
         height="146.69"
         transform="rotate(-45,119.12372,556.84734)"
         style="fill:none;stroke-width:0px"
         id="rect4" /></clipPath><clipPath
       id="clippath-7"><polygon
         points="298.98,650.1 420.18,650.1 457.64,534.83 359.58,463.59 261.53,534.83 "
         style="fill:none;stroke-width:0px"
         id="polygon5" /></clipPath><clipPath
       id="clippath-8"><polygon
         points="565.31,471.2 515.15,521.37 515.15,592.31 565.31,642.48 636.26,642.48 686.43,592.31 686.43,521.37 636.26,471.2 "
         style="fill:none;stroke-width:0px"
         id="polygon6" /></clipPath></defs><sodipodi:namedview
     id="namedview19"
     pagecolor="#ffffff"
     bordercolor="#000000"
     borderopacity="0.25"
     inkscape:showpageshadow="2"
     inkscape:pageopacity="0.0"
     inkscape:pagecheckerboard="0"
     inkscape:deskcolor="#d1d1d1"
     inkscape:zoom="2.3355109"
     inkscape:cx="230.35645"
     inkscape:cy="26.974825"
     inkscape:window-width="1918"
     inkscape:window-height="1360"
     inkscape:window-x="1433"
     inkscape:window-y="0"
     inkscape:window-maximized="0"
     inkscape:current-layer="svg19" /><path
     style="font-weight:300;font-size:48.7192px;font-family:'Josefin Sans';-inkscape-font-specification:'Josefin Sans Light';fill:#ffffff;stroke:#75a5bd;stroke-width:0;stroke-linecap:round;stroke-miterlimit:4.7;paint-order:markers stroke fill"
     d="m -2984.5183,27.124291 q -0.877,0.584631 -2.1437,1.120542 -1.2179,0.487192 -2.6308,0.876946 -1.4128,0.389753 -2.9231,0.58463 -1.4616,0.243596 -2.777,0.243596 -4.0924,0 -7.4054,-1.315418 -3.2641,-1.364138 -5.6027,-3.70266 -2.3385,-2.38724 -3.6052,-5.505269 -1.218,-3.166748 -1.218,-6.820688 0,-3.9462551 1.3642,-7.2591611 1.4128,-3.312906 3.8488,-5.70014599 2.436,-2.43596001 5.6514,-3.75137901 3.2155,-1.315418 6.8207,-1.315418 2.7283,0 5.1155,0.682069 2.436,0.682068 4.3848,1.851329 l -0.877,2.14364501 q -1.1205,-0.68206901 -2.5334,-1.16926101 -1.4128,-0.535911 -2.9231,-0.828226 -1.4616,-0.292315 -2.9232,-0.292315 -3.3129,0 -6.1386,1.16926 -2.8257,1.16926101 -4.9207,3.264187 -2.0949,2.094925 -3.2641,4.920639 -1.1693,2.825714 -1.1693,6.1386191 0,3.215467 1.0718,5.992462 1.1206,2.728275 3.118,4.823201 2.0463,2.046206 4.872,3.215467 2.8257,1.120541 6.2847,1.120541 2.0463,0 4.2873,-0.487192 2.2411,-0.487192 3.8489,-1.412856 v -9.597683 h -7.7951 V 13.82395 h 10.1823 z m 16.7106,2.825714 q -2.7282,0 -4.9693,-1.21798 -2.1924,-1.266699 -3.5078,-3.507782 -1.2667,-2.241084 -1.2667,-5.212955 0,-3.166748 1.3641,-5.407831 1.3642,-2.289802 3.7027,-3.459063 2.3385,-1.2179801 5.3104,-1.2179801 2.5334,0 4.7745,1.5102951 2.2898,1.510295 3.2642,3.800098 l -0.3411,0.682068 0.2923,-5.407831 h 2.0462 v 19.049207 h -2.2898 v -5.895023 l 0.4872,0.876946 q -0.341,0.974384 -1.1692,1.948768 -0.8283,0.925665 -2.0462,1.753891 -1.1693,0.779507 -2.6309,1.266699 -1.4128,0.438473 -3.0206,0.438473 z m 0.4872,-1.948768 q 2.1437,0 3.8489,-0.876946 1.7538,-0.925664 2.8257,-2.533398 1.0718,-1.607734 1.2179,-3.702659 v -2.728275 q -0.3897,-1.802611 -1.559,-3.215468 -1.1205,-1.412856 -2.777,-2.241083 -1.6564,-0.828226 -3.6052,-0.828226 -2.1436,0 -3.9462,1.023103 -1.8027,0.974384 -2.8745,2.776994 -1.0718,1.802611 -1.0718,4.238571 0,2.241083 1.0718,4.092413 1.0718,1.80261 2.8745,2.923152 1.8513,1.071822 3.9949,1.071822 z m 20.8519,-17.490193 0.2435,5.310393 -0.341,-0.487192 q 0.9744,-2.484679 3.2155,-3.897536 2.2898,-1.4615761 4.9693,-1.4615761 1.6078,0 2.8745,0.6333501 1.3154,0.58463 2.0949,1.656452 0.8282,1.023104 0.9744,2.387241 l -0.2923,0.292315 q 1.0231,-2.43596 3.2154,-3.702659 2.1924,-1.2666991 4.7258,-1.2666991 2.7283,0 4.336,1.6077341 1.6077,1.559014 1.6565,4.092412 v 13.884972 h -2.2898 v -13.39778 q -0.049,-1.705172 -1.0719,-2.874432 -1.0231,-1.21798 -3.118,-1.315419 -1.9,0 -3.5078,0.974384 -1.6077,0.974384 -2.6308,2.582118 -0.9744,1.607733 -1.0718,3.605221 v 10.425908 h -2.2898 v -13.39778 q -0.049,-1.705172 -1.1206,-2.874432 -1.0231,-1.21798 -3.118,-1.315419 -1.9488,0 -3.6052,0.974384 -1.6078,0.974384 -2.5821,2.679556 -0.9744,1.656453 -0.9744,3.702659 v 10.231032 h -2.2898 V 10.511044 Z m 44.6268,19.438961 q -2.9719,0 -5.2617,-1.315418 -2.2898,-1.315419 -3.6052,-3.556502 -1.2667,-2.289802 -1.2667,-5.115516 0,-2.776994 1.3641,-5.066797 1.3642,-2.289802 3.654,-3.65394 2.3385,-1.3641371 5.1642,-1.3641371 3.4103,0 5.7001,1.9974871 2.3386,1.997487 3.3617,5.212954 l -16.662,6.430935 -0.6821,-1.656453 15.2491,-5.943743 -0.4872,0.682069 q -0.8282,-1.948768 -2.5334,-3.361625 -1.6564,-1.412856 -4.0924,-1.412856 -2.1923,0 -3.9462,1.071822 -1.7539,1.071822 -2.8257,2.874433 -1.0231,1.80261 -1.0231,4.092413 0,2.143644 0.9743,3.994974 1.0231,1.85133 2.8258,2.971871 1.8026,1.120542 4.1411,1.120542 1.559,0 2.9719,-0.584631 1.4615,-0.58463 2.5821,-1.510295 l 1.1692,1.656453 q -1.3641,1.071822 -3.1667,1.753891 -1.7539,0.682069 -3.6052,0.682069 z m 19.9261,0 q -1.6565,0 -3.4591,-0.58463 -1.8026,-0.63335 -2.9231,-1.997488 l 1.0718,-1.510295 q 0.9744,1.023103 2.2898,1.656453 1.3641,0.58463 2.8744,0.58463 1.1206,0 2.095,-0.292315 1.0231,-0.341034 1.6564,-1.120541 0.6334,-0.779508 0.6334,-2.094926 0,-1.364138 -0.7795,-2.094926 -0.7308,-0.730788 -1.9001,-1.16926 -1.1205,-0.487192 -2.3872,-0.876946 -2.095,-0.682069 -3.4591,-1.85133 -1.3154,-1.16926 -1.3154,-3.312905 0,-1.559015 0.7308,-2.728275 0.7795,-1.169261 2.0949,-1.802611 1.3154,-0.682069 2.9719,-0.682069 1.5103,0 2.9718,0.487192 1.5103,0.487192 2.7283,1.656453 l -1.0231,1.607734 q -0.7795,-1.071823 -2.0949,-1.461576 -1.2667,-0.389754 -2.2411,-0.438473 -0.8282,0 -1.7539,0.341034 -0.8769,0.341035 -1.5103,1.023104 -0.5846,0.633349 -0.5846,1.705172 0,1.120541 0.6333,1.851329 0.6334,0.682069 1.6078,1.120542 1.0231,0.438473 2.0949,0.828226 1.4129,0.438473 2.6308,1.071823 1.2667,0.58463 2.0462,1.607733 0.8283,0.974384 0.8283,2.630837 0,1.656453 -0.7308,3.02059 -0.7308,1.315419 -2.1924,2.094926 -1.4128,0.730788 -3.6052,0.730788 z"
     id="text19"
     aria-label="Games" /><text
     xml:space="preserve"
     id="text20"
     style="white-space:pre;shape-inside:url(#rect20);display:inline;fill:#000000;stroke:#75a5bd;stroke-width:0;stroke-linecap:round;stroke-miterlimit:4.7;paint-order:markers stroke fill"
     transform="translate(-3123.9944,-53.885473)" /><path
     style="font-weight:bold;font-size:57.4489px;font-family:'Josefin Sans';-inkscape-font-specification:'Josefin Sans Bold';fill:#ffffff;stroke:#75a5bd;stroke-width:0;stroke-linecap:round;stroke-miterlimit:4.7;paint-order:markers stroke fill"
     d="m -2981.0361,-12.804655 q -0.6894,0.574489 -2.5852,1.551121 -1.8384,0.976631 -4.5385,1.7234669 -2.7001,0.746835 -5.9747,0.689386 -4.998,-0.114897 -8.962,-1.7809149 -3.9065,-1.723467 -6.6641,-4.653361 -2.7001,-2.929894 -4.1363,-6.721521 -1.4362,-3.791628 -1.4362,-8.100295 0,-4.825707 1.4362,-8.84713 1.4937,-4.021423 4.1938,-6.951317 2.7575,-2.929894 6.5491,-4.538463 3.7917,-1.608569 8.3876,-1.608569 4.2512,0 7.5258,1.148978 3.2746,1.148978 5.3427,2.470302 l -3.2745,7.8705 q -1.4363,-1.091529 -3.8491,-2.240507 -2.3554,-1.206427 -5.4577,-1.206427 -2.4128,0 -4.6533,1.03408 -2.1831,0.976631 -3.9066,2.814996 -1.666,1.838365 -2.6426,4.308667 -0.9766,2.412854 -0.9766,5.285299 0,3.044791 0.8617,5.572543 0.9192,2.527752 2.5852,4.366116 1.666,1.780916 3.964,2.757547 2.3554,0.976632 5.2853,0.976632 3.3895,0 5.8023,-1.091529 2.4129,-1.091529 3.6767,-2.297956 z m 3.5618,3.5043829 19.0731,-43.9484069 h 0.4596 l 19.073,43.9484069 h -9.6514 l -12.1792,-30.9075069 6.0321,-4.136321 -14.592,35.0438279 z m 13.0409,-15.2814069 h 12.6962 l 2.9299,7.008766 h -18.2113 z m 54.2892,-16.775078 q -2.4129,-1.321325 -4.9406,-2.183058 -2.4703,-0.861734 -4.6534,-0.861734 -2.7001,0 -4.2512,1.091529 -1.5511,1.09153 -1.5511,3.274588 0,1.493671 1.149,2.700098 1.2064,1.148978 3.0448,2.06816 1.8958,0.919183 3.9065,1.666018 1.8383,0.689387 3.6193,1.666018 1.8383,0.919183 3.2745,2.355405 1.4363,1.378774 2.298,3.504383 0.8617,2.06816 0.8617,5.112952 0,3.217138 -1.666,5.974685 -1.666,2.757547 -4.8831,4.481014 -3.2172,1.6660179 -7.928,1.6660179 -2.4128,0 -4.9406,-0.459591 -2.4703,-0.51704 -4.8831,-1.4936709 -2.4129,-1.03408 -4.6534,-2.585201 l 3.6767,-6.491725 q 1.4937,1.091529 3.2172,1.953263 1.7809,0.804284 3.5618,1.263875 1.7809,0.459591 3.2746,0.459591 1.4936,0 2.9873,-0.402142 1.5511,-0.459591 2.5278,-1.493671 1.0341,-1.03408 1.0341,-2.872445 0,-1.263876 -0.8618,-2.297956 -0.8043,-1.03408 -2.2405,-1.895814 -1.3788,-0.861733 -3.0448,-1.493671 -1.9532,-0.746836 -4.0214,-1.723467 -2.0682,-0.976631 -3.9065,-2.355405 -1.7809,-1.436222 -2.9299,-3.504383 -1.0916,-2.125609 -1.0916,-5.1704 0,-3.67673 1.6086,-6.376828 1.666,-2.700098 4.6534,-4.251219 2.9873,-1.608569 6.8938,-1.780916 5.113,0 8.2727,1.206427 3.2171,1.206427 5.7449,2.872445 z m 18.3837,16.430385 q 0,2.010711 1.2064,3.849076 1.2064,1.838365 3.1597,2.987343 2.0107,1.148978 4.3661,1.148978 2.5852,0 4.5959,-1.148978 2.0107,-1.148978 3.1597,-2.987343 1.2064,-1.838365 1.2064,-3.849076 v -26.656289 h 8.2152 v 26.828636 q 0,4.65336 -2.298,8.272641 -2.2979,3.561832 -6.2044,5.629992 -3.9066,2.0107109 -8.6748,2.0107109 v 0 q -4.7108,0 -8.6174,-2.0107109 -3.849,-2.06816 -6.147,-5.629992 -2.2979,-3.619281 -2.2979,-8.272641 v -26.828636 h 8.3301 z m 30.0457,15.6260999 19.0731,-43.9484069 h 0.4596 l 19.073,43.9484069 h -9.6514 l -12.1792,-30.9075069 6.0321,-4.136321 -14.592,35.0438279 z m 13.0409,-15.2814069 h 12.6962 l 2.9299,7.008766 h -18.2113 z m 31.7118,-27.000982 h 8.3301 v 34.239543 h 19.8773 v 8.0428459 h -28.2074 z"
     id="text21"
     aria-label="CASUAL" /><g
     id="OBJECTS"
     style="isolation:isolate;fill:#ffffff"
     transform="matrix(0.12650152,0,0,0.12298619,-3117.8643,-51.979788)"><g
       id="g15"
       style="fill:#ffffff"><g
         id="g11"
         style="fill:#ffffff"><polygon
           points="209.61,76.52 175.05,12.21 119.12,76.52 "
           style="fill:#ffffff;stroke-width:0px"
           id="polygon7" /><polygon
           points="175.05,12.21 63.19,12.21 119.12,76.52 "
           style="fill:#ffffff;stroke-width:0px"
           id="polygon8" /><polygon
           points="119.12,184.33 209.61,76.52 119.12,76.52 "
           style="fill:#ffffff;stroke-width:0px"
           id="polygon9" /><polygon
           points="63.19,12.21 28.63,76.52 119.12,76.52 "
           style="fill:#ffffff;stroke-width:0px"
           id="polygon10" /><polygon
           points="119.12,76.52 28.63,76.52 119.12,184.33 "
           style="fill:#ffffff;stroke-width:0px"
           id="polygon11" /></g><g
         id="g14"
         style="fill:#ffffff"><g
           clip-path="url(#clippath)"
           id="g13"
           style="fill:#ffffff"><g
             style="mix-blend-mode:soft-light;fill:#ffffff"
             id="g12"><rect
               x="30.049999"
               y="48.919998"
               width="177.06"
               height="36.849998"
               transform="rotate(-18.72,118.57995,67.342299)"
               style="fill:#ffffff;stroke-width:0px"
               id="rect11" /><rect
               x="21.059999"
               y="96.760002"
               width="219.57001"
               height="20.84"
               transform="rotate(-18.72,130.862,107.19273)"
               style="opacity:0.5;fill:#ffffff;stroke-width:0px"
               id="rect12" /></g></g><path
           d="m 174.45,45.57 c -10.75,0 -19.47,8.72 -19.47,19.47 0,-10.75 -8.72,-19.47 -19.47,-19.47 10.75,0 19.47,-8.72 19.47,-19.47 0,10.75 8.72,19.47 19.47,19.47 z"
           style="opacity:0.6;fill:#ffffff;stroke-width:0px"
           id="path13" /><path
           d="m 95.72,88.36 c -10.75,0 -19.47,8.72 -19.47,19.47 0,-10.75 -8.72,-19.47 -19.47,-19.47 10.75,0 19.47,-8.72 19.47,-19.47 0,10.75 8.72,19.47 19.47,19.47 z"
           style="opacity:0.6;fill:#ffffff;stroke-width:0px"
           id="path14" /></g></g><g
       id="g25"
       style="fill:#ffffff"><g
         id="g24"
         style="fill:#ffffff"><g
           id="g21"
           style="fill:#ffffff"><polygon
             points="359.58,152.94 312.23,125.61 274.48,147.4 359.58,196.54 "
             style="fill:#ffffff;stroke-width:0px"
             id="polygon15" /><polygon
             points="359.58,43.59 359.58,0 274.48,49.13 312.23,70.93 "
             style="fill:#ffffff;stroke-width:0px"
             id="polygon16" /><polygon
             points="359.58,152.94 359.58,196.54 444.68,147.4 406.93,125.61 "
             style="fill:#ffffff;stroke-width:0px"
             id="polygon17" /><polygon
             points="312.23,70.93 274.48,49.13 274.48,147.4 312.23,125.61 "
             style="fill:#ffffff;stroke-width:0px"
             id="polygon18" /><polygon
             points="406.93,125.61 444.68,147.4 444.68,49.13 406.93,70.93 "
             style="fill:#ffffff;stroke-width:0px"
             id="polygon19" /><polygon
             points="406.93,70.93 444.68,49.13 359.58,0 359.58,43.59 "
             style="fill:#ffffff;stroke-width:0px"
             id="polygon20" /><polygon
             points="406.93,70.93 359.58,43.59 312.23,70.93 312.23,125.61 359.58,152.94 406.93,125.61 "
             style="fill:#ffffff;stroke-width:0px"
             id="polygon21" /></g><g
           clip-path="url(#clippath-1)"
           id="g23"
           style="fill:#ffffff"><g
             style="mix-blend-mode:soft-light;fill:#ffffff"
             id="g22"><rect
               x="249"
               y="65.099998"
               width="204.5"
               height="42.560001"
               transform="rotate(-18.72,351.24738,86.375242)"
               style="fill:#ffffff;stroke-width:0px"
               id="rect21" /><rect
               x="238.62"
               y="120.36"
               width="253.60001"
               height="24.07"
               transform="rotate(-18.72,365.44082,132.39846)"
               style="opacity:0.5;fill:#ffffff;stroke-width:0px"
               id="rect22" /></g></g></g><path
         d="m 427.27,66.08 c -12.42,0 -22.49,10.07 -22.49,22.49 0,-12.42 -10.07,-22.49 -22.49,-22.49 12.42,0 22.49,-10.07 22.49,-22.49 0,12.42 10.07,22.49 22.49,22.49 z"
         style="opacity:0.6;fill:#ffffff;stroke-width:0px"
         id="path24" /><path
         d="m 334.72,126.95 c -12.42,0 -22.49,10.07 -22.49,22.49 0,-12.42 -10.07,-22.49 -22.49,-22.49 12.42,0 22.49,-10.07 22.49,-22.49 0,12.42 10.07,22.49 22.49,22.49 z"
         style="opacity:0.6;fill:#ffffff;stroke-width:0px"
         id="path25" /></g><g
       id="g35"
       style="fill:#ffffff"><g
         id="g34"
         style="fill:#ffffff"><g
           id="g30"
           style="fill:#ffffff"><path
             d="m 541.18,13.32 c -13.94,0 -25.34,11.4 -25.34,25.34 l 34.75,9.41 z"
             style="fill:#ffffff;stroke-width:0px"
             id="path26" /><path
             d="m 660.4,183.22 c 13.94,0 25.34,-11.4 25.34,-25.34 l -34.75,-9.41 z"
             style="fill:#ffffff;stroke-width:0px"
             id="path27" /><polygon
             points="650.98,148.47 685.74,157.88 685.74,38.66 650.98,48.07 "
             style="fill:#ffffff;stroke-width:0px"
             id="polygon27" /><polygon
             points="650.98,48.07 660.4,13.32 541.18,13.32 550.59,48.07 "
             style="fill:#ffffff;stroke-width:0px"
             id="polygon28" /><path
             d="m 541.18,183.22 9.41,-34.75 -34.75,7.24 v 2.17 c 0,13.94 11.4,25.34 25.34,25.34 z"
             style="fill:#ffffff;stroke-width:0px"
             id="path28" /><polygon
             points="550.59,48.07 515.84,38.66 515.84,155.71 550.59,148.47 "
             style="fill:#ffffff;stroke-width:0px"
             id="polygon29" /><path
             d="m 685.74,38.66 c 0,-13.94 -11.4,-25.34 -25.34,-25.34 l -9.41,34.75 z"
             style="fill:#ffffff;stroke-width:0px"
             id="path29" /><polygon
             points="550.59,148.47 541.18,183.22 660.4,183.22 650.98,148.47 "
             style="fill:#ffffff;stroke-width:0px"
             id="polygon30" /><rect
             x="550.59003"
             y="48.07"
             width="100.39"
             height="100.39"
             style="fill:#ffffff;stroke-width:0px"
             id="rect30" /></g><g
           clip-path="url(#clippath-2)"
           id="g33"
           style="fill:#ffffff"><g
             style="mix-blend-mode:soft-light;fill:#ffffff"
             id="g32"><rect
               x="498.13"
               y="66.650002"
               width="207.42999"
               height="37"
               transform="rotate(-18.72,601.86644,85.154383)"
               style="fill:#ffffff;stroke-width:0px"
               id="rect31" /><rect
               x="485.35999"
               y="114.75"
               width="257.23001"
               height="20.92"
               transform="rotate(-18.72,613.99215,125.19715)"
               style="opacity:0.5;fill:#ffffff;stroke-width:0px"
               id="rect32" /></g></g></g><path
         d="m 671.69,48.23 c -10.8,0 -19.55,8.75 -19.55,19.55 0,-10.8 -8.75,-19.55 -19.55,-19.55 10.8,0 19.55,-8.75 19.55,-19.55 0,10.8 8.75,19.55 19.55,19.55 z"
         style="opacity:0.6;fill:#ffffff;stroke-width:0px"
         id="path34" /><path
         d="m 575.46,102.83 c -10.8,0 -19.55,8.75 -19.55,19.55 0,-10.8 -8.75,-19.55 -19.55,-19.55 10.8,0 19.55,-8.75 19.55,-19.55 0,10.8 8.75,19.55 19.55,19.55 z"
         style="opacity:0.6;fill:#ffffff;stroke-width:0px"
         id="path35" /></g><g
       id="g43"
       style="fill:#ffffff"><g
         id="g42"
         style="fill:#ffffff"><g
           id="g38"
           style="fill:#ffffff"><polygon
             points="359.58,382.79 359.58,433.32 465.34,327.55 414.82,327.55 "
             style="fill:#ffffff;stroke-width:0px"
             id="polygon35" /><polygon
             points="414.82,327.55 465.34,327.55 359.58,221.79 359.58,272.32 "
             style="fill:#ffffff;stroke-width:0px"
             id="polygon36" /><polygon
             points="359.58,382.79 304.35,327.55 253.82,327.55 359.58,433.32 "
             style="fill:#ffffff;stroke-width:0px"
             id="polygon37" /><polygon
             points="359.58,272.32 359.58,221.79 253.82,327.55 304.35,327.55 "
             style="fill:#ffffff;stroke-width:0px"
             id="polygon38" /><rect
             x="320.53"
             y="288.5"
             width="78.110001"
             height="78.110001"
             transform="rotate(-45,359.57879,327.55759)"
             style="fill:#ffffff;stroke-width:0px"
             id="rect38" /></g><g
           clip-path="url(#clippath-3)"
           id="g41"
           style="fill:#ffffff"><g
             style="mix-blend-mode:soft-light;fill:#ffffff"
             id="g40"><rect
               x="244.67999"
               y="293.78"
               width="231.21001"
               height="41.240002"
               transform="rotate(-18.72,360.30233,314.41849)"
               style="fill:#ffffff;stroke-width:0px"
               id="rect39" /><rect
               x="230.45"
               y="347.39999"
               width="286.73001"
               height="23.32"
               transform="rotate(-18.72,373.82108,359.05301)"
               style="opacity:0.5;fill:#ffffff;stroke-width:0px"
               id="rect40" /></g></g></g><path
         d="m 403.38,291.9 c -12.04,0 -21.79,9.76 -21.79,21.79 0,-12.04 -9.76,-21.79 -21.79,-21.79 12.03,0 21.79,-9.76 21.79,-21.79 0,12.03 9.76,21.79 21.79,21.79 z"
         style="opacity:0.6;fill:#ffffff;stroke-width:0px"
         id="path42" /><path
         d="m 353.42,361.09 c -12.04,0 -21.79,9.76 -21.79,21.79 0,-12.04 -9.76,-21.79 -21.79,-21.79 12.03,0 21.79,-9.76 21.79,-21.79 0,12.03 9.76,21.79 21.79,21.79 z"
         style="opacity:0.6;fill:#ffffff;stroke-width:0px"
         id="path43" /></g><g
       id="g50"
       style="fill:#ffffff"><g
         id="g49"
         style="fill:#ffffff"><g
           id="g46"
           style="fill:#ffffff"><g
             id="g44"
             style="fill:#ffffff"><polygon
               points="499.55,415.23 550.25,385.96 600.79,298.42 600.79,239.88 "
               style="fill:#ffffff;stroke-width:0px"
               id="polygon43" /><polygon
               points="600.79,239.88 600.79,298.42 651.33,385.96 702.03,415.23 "
               style="fill:#ffffff;stroke-width:0px"
               id="polygon44" /></g><polygon
             points="550.25,385.96 499.55,415.23 702.03,415.23 651.33,385.96 "
             style="fill:#ffffff;stroke-width:0px"
             id="polygon45" /><polygon
             points="600.79,298.42 550.25,385.96 651.33,385.96 "
             style="fill:#ffffff;stroke-width:0px"
             id="polygon46" /></g><g
           clip-path="url(#clippath-4)"
           id="g48"
           style="fill:#ffffff"><g
             style="mix-blend-mode:soft-light;fill:#ffffff"
             id="g47"><rect
               x="476.5"
               y="317.88"
               width="244.07001"
               height="43.529999"
               transform="rotate(-18.72,598.55056,339.6682)"
               style="fill:#ffffff;stroke-width:0px"
               id="rect46" /><rect
               x="461.48001"
               y="374.48001"
               width="302.67999"
               height="24.620001"
               transform="rotate(-18.72,612.842,386.79811)"
               style="opacity:0.5;fill:#ffffff;stroke-width:0px"
               id="rect47" /></g></g></g><path
         d="m 635.71,316.11 c -12.71,0 -23,10.3 -23,23 0,-12.71 -10.3,-23 -23,-23 12.7,0 23,-10.3 23,-23 0,12.7 10.3,23 23,23 z"
         style="opacity:0.6;fill:#ffffff;stroke-width:0px"
         id="path49" /><path
         d="m 586.05,385.96 c -12.71,0 -23,10.3 -23,23 0,-12.71 -10.3,-23 -23,-23 12.7,0 23,-10.3 23,-23 0,12.7 10.3,23 23,23 z"
         style="opacity:0.6;fill:#ffffff;stroke-width:0px"
         id="path50" /></g><g
       id="g60"
       style="fill:#ffffff"><g
         id="g59"
         style="fill:#ffffff"><g
           id="g56"
           style="fill:#ffffff"><polygon
             points="164.31,367.87 185.94,387.16 185.94,267.95 164.31,287.24 "
             style="fill:#ffffff;stroke-width:0px"
             id="polygon50" /><polygon
             points="119.12,393.95 119.12,425.74 185.94,387.16 164.31,367.87 "
             style="fill:#ffffff;stroke-width:0px"
             id="polygon51" /><g
             id="g53"
             style="fill:#ffffff"><polygon
               points="52.3,387.16 73.93,367.87 73.93,287.24 52.3,267.95 "
               style="fill:#ffffff;stroke-width:0px"
               id="polygon52" /><polygon
               points="52.3,267.95 73.93,287.24 119.12,261.16 119.12,229.37 "
               style="fill:#ffffff;stroke-width:0px"
               id="polygon53" /></g><polygon
             points="73.93,367.87 52.3,387.16 119.12,425.74 119.12,393.95 "
             style="fill:#ffffff;stroke-width:0px"
             id="polygon54" /><polygon
             points="119.12,261.16 164.31,287.24 185.94,267.95 119.12,229.37 "
             style="fill:#ffffff;stroke-width:0px"
             id="polygon55" /><polygon
             points="73.93,367.87 119.12,393.95 164.31,367.87 164.31,287.24 119.12,261.16 73.93,287.24 "
             style="fill:#ffffff;stroke-width:0px"
             id="polygon56" /></g><g
           clip-path="url(#clippath-5)"
           id="g58"
           style="fill:#ffffff"><g
             style="mix-blend-mode:soft-light;fill:#ffffff"
             id="g57"><rect
               x="11.78"
               y="300.12"
               width="206.59"
               height="36.849998"
               transform="rotate(-18.72,115.09139,318.55605)"
               style="fill:#ffffff;stroke-width:0px"
               id="rect56" /><rect
               x="-0.93000001"
               y="348.03"
               width="256.19"
               height="20.84"
               transform="rotate(-18.72,127.17643,358.46749)"
               style="opacity:0.5;fill:#ffffff;stroke-width:0px"
               id="rect57" /></g></g></g><path
         d="m 178.48,285.84 c -10.75,0 -19.47,8.72 -19.47,19.47 0,-10.75 -8.72,-19.47 -19.47,-19.47 10.75,0 19.47,-8.72 19.47,-19.47 0,10.75 8.72,19.47 19.47,19.47 z"
         style="opacity:0.6;fill:#ffffff;stroke-width:0px"
         id="path59" /><path
         d="m 108.68,359.46 c -10.75,0 -19.47,8.72 -19.47,19.47 0,-10.75 -8.72,-19.47 -19.47,-19.47 10.75,0 19.47,-8.72 19.47,-19.47 0,10.75 8.72,19.47 19.47,19.47 z"
         style="opacity:0.6;fill:#ffffff;stroke-width:0px"
         id="path60" /></g><g
       id="g72"
       style="fill:#ffffff"><g
         id="g71"
         style="fill:#ffffff"><g
           id="g67"
           style="fill:#ffffff"><polygon
             points="154.6,592.33 222.85,556.84 154.6,521.36 "
             style="fill:#ffffff;stroke-width:0px"
             id="polygon60" /><polygon
             points="83.64,592.33 119.12,660.57 154.6,592.33 "
             style="fill:#ffffff;stroke-width:0px"
             id="polygon61" /><polygon
             points="15.39,556.84 119.12,660.57 83.64,592.33 "
             style="fill:#ffffff;stroke-width:0px"
             id="polygon62" /><polygon
             points="154.6,521.36 222.85,556.84 119.12,453.11 "
             style="fill:#ffffff;stroke-width:0px"
             id="polygon63" /><polygon
             points="119.12,660.57 222.85,556.84 154.6,592.33 "
             style="fill:#ffffff;stroke-width:0px"
             id="polygon64" /><polygon
             points="154.6,521.36 119.12,453.11 83.64,521.36 "
             style="fill:#ffffff;stroke-width:0px"
             id="polygon65" /><polygon
             points="119.12,453.11 15.39,556.84 83.64,521.36 "
             style="fill:#ffffff;stroke-width:0px"
             id="polygon66" /><polygon
             points="83.64,521.36 15.39,556.84 83.64,592.33 "
             style="fill:#ffffff;stroke-width:0px"
             id="polygon67" /><rect
             x="83.639999"
             y="521.35999"
             width="70.970001"
             height="70.970001"
             style="fill:#ffffff;stroke-width:0px"
             id="rect67" /></g><g
           clip-path="url(#clippath-6)"
           id="g70"
           style="fill:#ffffff"><g
             style="mix-blend-mode:soft-light;fill:#ffffff"
             id="g69"><rect
               x="9.5600004"
               y="528.34003"
               width="197.78"
               height="32.779999"
               transform="rotate(-18.72,108.47001,544.73198)"
               style="fill:#ffffff;stroke-width:0px"
               id="rect68" /><rect
               x="-3.51"
               y="570.97998"
               width="245.27"
               height="18.530001"
               transform="rotate(-18.72,119.12701,580.26399)"
               style="opacity:0.5;fill:#ffffff;stroke-width:0px"
               id="rect69" /></g></g></g><path
         d="m 168.93,525.14 c -9.57,0 -17.32,7.75 -17.32,17.32 0,-9.57 -7.75,-17.32 -17.32,-17.32 9.56,0 17.32,-7.75 17.32,-17.32 0,9.56 7.75,17.32 17.32,17.32 z"
         style="opacity:0.6;fill:#ffffff;stroke-width:0px"
         id="path71" /><path
         d="m 106.72,588.54 c -9.57,0 -17.32,7.75 -17.32,17.32 0,-9.57 -7.75,-17.32 -17.32,-17.32 9.56,0 17.32,-7.75 17.32,-17.32 0,9.56 7.75,17.32 17.32,17.32 z"
         style="opacity:0.6;fill:#ffffff;stroke-width:0px"
         id="path72" /></g><g
       id="g86"
       style="fill:#ffffff"><g
         id="g85"
         style="fill:#ffffff"><g
           id="g82"
           style="fill:#ffffff"><polygon
             points="420.18,650.1 457.64,534.83 409.2,582.81 "
             style="fill:#ffffff;stroke-width:0px"
             id="polygon72" /><polygon
             points="390.25,524.48 457.64,534.83 359.58,463.59 "
             style="fill:#ffffff;stroke-width:0px"
             id="polygon73" /><polygon
             points="261.53,534.83 298.98,650.1 309.96,582.81 "
             style="fill:#ffffff;stroke-width:0px"
             id="polygon74" /><polygon
             points="390.25,524.48 359.58,463.59 328.92,524.48 "
             style="fill:#ffffff;stroke-width:0px"
             id="polygon75" /><polygon
             points="309.96,582.81 298.98,650.1 359.58,618.86 "
             style="fill:#ffffff;stroke-width:0px"
             id="polygon76" /><polygon
             points="328.92,524.48 261.53,534.83 309.96,582.81 "
             style="fill:#ffffff;stroke-width:0px"
             id="polygon77" /><polygon
             points="359.58,463.59 261.53,534.83 328.92,524.48 "
             style="fill:#ffffff;stroke-width:0px"
             id="polygon78" /><polygon
             points="298.98,650.1 420.18,650.1 359.58,618.86 "
             style="fill:#ffffff;stroke-width:0px"
             id="polygon79" /><polygon
             points="409.2,582.81 457.64,534.83 390.25,524.48 "
             style="fill:#ffffff;stroke-width:0px"
             id="polygon80" /><polygon
             points="359.58,618.86 420.18,650.1 409.2,582.81 "
             style="fill:#ffffff;stroke-width:0px"
             id="polygon81" /><polygon
             points="409.2,582.81 390.25,524.48 328.92,524.48 309.96,582.81 359.58,618.86 "
             style="fill:#ffffff;stroke-width:0px"
             id="polygon82" /></g><g
           clip-path="url(#clippath-7)"
           id="g84"
           style="fill:#ffffff"><g
             style="mix-blend-mode:soft-light;fill:#ffffff"
             id="g83"><rect
               x="224.78"
               y="533.73999"
               width="233.75"
               height="38.740002"
               transform="rotate(-18.72,341.67941,553.1047)"
               style="fill:#ffffff;stroke-width:0px"
               id="rect82" /><rect
               x="209.33"
               y="584.14001"
               width="289.88"
               height="21.9"
               transform="rotate(-18.72,354.26347,595.09251)"
               style="opacity:0.5;fill:#ffffff;stroke-width:0px"
               id="rect83" /></g></g></g><path
         d="m 360.13,524.48 c -11.31,0 -20.47,9.16 -20.47,20.47 0,-11.31 -9.16,-20.47 -20.47,-20.47 11.3,0 20.47,-9.16 20.47,-20.47 0,11.3 9.16,20.47 20.47,20.47 z"
         style="opacity:0.6;fill:#ffffff;stroke-width:0px"
         id="path85" /><path
         d="m 416.83,607.24 c -11.3,0 -20.47,9.16 -20.47,20.47 0,-11.31 -9.16,-20.47 -20.47,-20.47 11.3,0 20.47,-9.16 20.47,-20.47 0,11.3 9.16,20.47 20.47,20.47 z"
         style="opacity:0.6;fill:#ffffff;stroke-width:0px"
         id="path86" /></g><g
       id="g98"
       style="fill:#ffffff"><g
         id="g97"
         style="fill:#ffffff"><g
           id="g94"
           style="fill:#ffffff"><polygon
             points="650.07,536.43 686.43,521.37 636.26,471.2 621.2,507.56 "
             style="fill:#ffffff;stroke-width:0px"
             id="polygon86" /><polygon
             points="650.07,536.43 650.07,577.25 686.43,592.31 686.43,521.37 "
             style="fill:#ffffff;stroke-width:0px"
             id="polygon87" /><polygon
             points="580.38,606.12 565.31,642.48 636.26,642.48 621.2,606.12 "
             style="fill:#ffffff;stroke-width:0px"
             id="polygon88" /><polygon
             points="580.38,507.56 565.31,471.2 515.15,521.37 551.51,536.43 "
             style="fill:#ffffff;stroke-width:0px"
             id="polygon89" /><polygon
             points="621.2,507.56 636.26,471.2 565.31,471.2 580.38,507.56 "
             style="fill:#ffffff;stroke-width:0px"
             id="polygon90" /><polygon
             points="551.51,536.43 515.15,521.37 515.15,592.31 551.51,577.25 "
             style="fill:#ffffff;stroke-width:0px"
             id="polygon91" /><polygon
             points="621.2,606.12 636.26,642.48 686.43,592.31 650.07,577.25 "
             style="fill:#ffffff;stroke-width:0px"
             id="polygon92" /><polygon
             points="551.51,577.25 515.15,592.31 565.31,642.48 580.38,606.12 "
             style="fill:#ffffff;stroke-width:0px"
             id="polygon93" /><polygon
             points="621.2,606.12 650.07,577.25 650.07,536.43 621.2,507.56 580.38,507.56 551.51,536.43 551.51,577.25 580.38,606.12 "
             style="fill:#ffffff;stroke-width:0px"
             id="polygon94" /></g><g
           clip-path="url(#clippath-8)"
           id="g96"
           style="fill:#ffffff"><g
             style="mix-blend-mode:soft-light;fill:#ffffff"
             id="g95"><rect
               x="491.07999"
               y="525.53998"
               width="221.31"
               height="36.669998"
               transform="rotate(-18.72,601.75063,543.87632)"
               style="fill:#ffffff;stroke-width:0px"
               id="rect94" /><rect
               x="476.45001"
               y="573.25"
               width="274.44"
               height="20.74"
               transform="rotate(-18.72,613.67367,583.63641)"
               style="opacity:0.5;fill:#ffffff;stroke-width:0px"
               id="rect95" /></g></g></g><path
         d="m 640.58,513.96 c -10.7,0 -19.38,8.68 -19.38,19.38 0,-10.7 -8.68,-19.38 -19.38,-19.38 10.7,0 19.38,-8.68 19.38,-19.38 0,10.7 8.68,19.38 19.38,19.38 z"
         style="opacity:0.6;fill:#ffffff;stroke-width:0px"
         id="path97" /><path
         d="m 595.74,596.55 c -10.7,0 -19.38,8.68 -19.38,19.38 0,-10.7 -8.68,-19.38 -19.38,-19.38 10.7,0 19.38,-8.68 19.38,-19.38 0,10.7 8.68,19.38 19.38,19.38 z"
         style="opacity:0.6;fill:#ffffff;stroke-width:0px"
         id="path98" /></g></g></svg>
