<?xml version="1.0" encoding="UTF-8" standalone="no"?>
<svg
   viewBox="0 0 112370.95 7002.9065"
   version="1.1"
   id="svg19"
   sodipodi:docname="GENRES.svg"
   inkscape:version="1.3 (0e150ed6c4, 2023-07-21)"
   width="112370.95"
   height="7002.9067"
   xmlns:inkscape="http://www.inkscape.org/namespaces/inkscape"
   xmlns:sodipodi="http://sodipodi.sourceforge.net/DTD/sodipodi-0.dtd"
   xmlns="http://www.w3.org/2000/svg"
   xmlns:svg="http://www.w3.org/2000/svg">
  <defs
     id="defs19">
    <rect
       x="353.62744"
       y="-2.5734873"
       width="30.124939"
       height="50.712837"
       id="rect20" />
  </defs>
  <sodipodi:namedview
     id="namedview19"
     pagecolor="#ffffff"
     bordercolor="#000000"
     borderopacity="0.25"
     inkscape:showpageshadow="2"
     inkscape:pageopacity="0.0"
     inkscape:pagecheckerboard="0"
     inkscape:deskcolor="#d1d1d1"
     inkscape:zoom="4.6710219"
     inkscape:cx="226.07473"
     inkscape:cy="37.143906"
     inkscape:window-width="3360"
     inkscape:window-height="1369"
     inkscape:window-x="1432"
     inkscape:window-y="-8"
     inkscape:window-maximized="1"
     inkscape:current-layer="svg19" />
  <path
     style="font-weight:300;font-size:48.7192px;font-family:'Josefin Sans';-inkscape-font-specification:'Josefin Sans Light';fill:#ffffff;stroke:#75a5bd;stroke-width:0;stroke-linecap:round;stroke-miterlimit:4.7;paint-order:markers stroke fill"
     d="m -5546.1857,-77.357081 q -1.5103,-0.730788 -3.7027,-1.364138 -2.1924,-0.633349 -4.3847,-0.633349 -3.4104,0 -5.4566,1.705172 -2.0462,1.705172 -2.0462,4.28729 0,1.948768 1.1693,3.264186 1.1692,1.266699 3.0693,2.192364 1.9,0.876946 4.0437,1.705172 1.7052,0.63335 3.3616,1.412857 1.7052,0.779507 3.0693,1.900049 1.3642,1.120541 2.1437,2.776994 0.8282,1.656453 0.8282,4.092413 0,2.874433 -1.3641,5.115516 -1.3642,2.192364 -3.8001,3.410344 -2.436,1.21798 -5.6515,1.21798 -2.5821,0 -4.7257,-0.63335 -2.095,-0.633349 -3.7027,-1.461576 -1.559,-0.876945 -2.4847,-1.461576 l 1.1206,-1.948768 q 1.0718,0.779508 2.5821,1.559015 1.559,0.779507 3.3616,1.315418 1.8026,0.535911 3.6052,0.535911 2.095,0 4.0437,-0.828226 1.9975,-0.828226 3.2642,-2.484679 1.3154,-1.705172 1.3154,-4.28729 0,-2.484679 -1.2179,-3.994974 -1.218,-1.559015 -3.1181,-2.533399 -1.9,-0.974384 -4.0437,-1.753891 -1.6564,-0.63335 -3.3129,-1.315418 -1.6564,-0.730788 -3.0206,-1.705172 -1.3641,-1.023104 -2.1923,-2.43596 -0.7795,-1.412857 -0.7795,-3.410344 0,-2.48468 1.2667,-4.33601 1.2667,-1.851329 3.4103,-2.874432 2.1924,-1.071823 4.9694,-1.120542 2.4359,0 4.9206,0.63335 2.5334,0.633349 4.3847,1.607733 z m 36.6368,-3.897536 v 34.590632 h -2.3873 v -16.272213 h -20.8518 v 16.272213 h -2.3872 v -34.590632 h 2.3872 v 16.077336 h 20.8518 v -16.077336 z m 8.8182,17.344035 q 0,-3.65394 1.3641,-6.820688 1.3642,-3.215467 3.8001,-5.651427 2.436,-2.484679 5.6027,-3.848817 3.2155,-1.412857 6.8694,-1.412857 3.654,0 6.8695,1.412857 3.2154,1.364138 5.6514,3.848817 2.4359,2.43596 3.8001,5.651427 1.4128,3.166748 1.4128,6.820688 0,3.65394 -1.4128,6.869408 -1.3642,3.166748 -3.8001,5.602708 -2.436,2.43596 -5.6514,3.800097 -3.2155,1.364138 -6.8695,1.364138 -3.6539,0 -6.8694,-1.315418 -3.1667,-1.315419 -5.6027,-3.70266 -2.4359,-2.38724 -3.8001,-5.602708 -1.3641,-3.215467 -1.3641,-7.015565 z m 2.436,0.04872 q 0,3.166748 1.1692,5.943742 1.1693,2.776995 3.2642,4.87192 2.0949,2.094926 4.8232,3.312906 2.777,1.169261 5.895,1.169261 3.2155,0 5.9925,-1.169261 2.777,-1.21798 4.8719,-3.312906 2.0949,-2.094925 3.2642,-4.87192 1.218,-2.776994 1.218,-5.992462 0,-3.166748 -1.218,-5.943742 -1.1693,-2.825714 -3.2642,-4.92064 -2.0949,-2.143644 -4.8719,-3.361624 -2.777,-1.21798 -5.9438,-1.21798 -3.2154,0 -5.9924,1.266699 -2.777,1.21798 -4.8719,3.361625 -2.0462,2.143645 -3.2155,4.969358 -1.1205,2.776995 -1.1205,5.895024 z m 39.5599,-0.04872 q 0,-3.65394 1.3642,-6.820688 1.3641,-3.215467 3.8001,-5.651427 2.4359,-2.484679 5.6027,-3.848817 3.2154,-1.412857 6.8694,-1.412857 3.6539,0 6.8694,1.412857 3.2154,1.364138 5.6514,3.848817 2.436,2.43596 3.8001,5.651427 1.4129,3.166748 1.4129,6.820688 0,3.65394 -1.4129,6.869408 -1.3641,3.166748 -3.8001,5.602708 -2.436,2.43596 -5.6514,3.800097 -3.2155,1.364138 -6.8694,1.364138 -3.654,0 -6.8694,-1.315418 -3.1668,-1.315419 -5.6027,-3.70266 -2.436,-2.38724 -3.8001,-5.602708 -1.3642,-3.215467 -1.3642,-7.015565 z m 2.436,0.04872 q 0,3.166748 1.1692,5.943742 1.1693,2.776995 3.2642,4.87192 2.095,2.094926 4.8232,3.312906 2.777,1.169261 5.895,1.169261 3.2155,0 5.9925,-1.169261 2.777,-1.21798 4.8719,-3.312906 2.095,-2.094925 3.2642,-4.87192 1.218,-2.776994 1.218,-5.992462 0,-3.166748 -1.218,-5.943742 -1.1692,-2.825714 -3.2642,-4.92064 -2.0949,-2.143644 -4.8719,-3.361624 -2.777,-1.21798 -5.9437,-1.21798 -3.2155,0 -5.9925,1.266699 -2.777,1.21798 -4.8719,3.361625 -2.0462,2.143645 -3.2155,4.969358 -1.1205,2.776995 -1.1205,5.895024 z m 37.2215,-17.392755 h 22.6544 v 2.289802 h -10.1823 v 32.30083 h -2.3873 v -32.30083 h -10.0848 z"
     id="text19"
     aria-label="SHOOT" />
  <text
     xml:space="preserve"
     id="text20"
     style="white-space:pre;shape-inside:url(#rect20);display:inline;fill:#000000;stroke:#75a5bd;stroke-width:0;stroke-linecap:round;stroke-miterlimit:4.7;paint-order:markers stroke fill"
     transform="translate(-5671.9873,-83.867144)" />
  <path
     style="font-weight:bold;font-size:57.4489px;font-family:'Josefin Sans';-inkscape-font-specification:'Josefin Sans Bold';fill:#ffffff;stroke:#75a5bd;stroke-width:0;stroke-linecap:round;stroke-miterlimit:4.7;paint-order:markers stroke fill"
     d="m -5557.4662,-42.913969 q -0.057,3.619281 -0.1149,7.238561 -0.057,3.619281 -0.1149,7.29601 h -6.8939 v -14.534571 z m 6.7789,-0.114898 h 28.8393 v 8.042846 h -20.5092 v 9.019477 h 18.1538 v 8.042846 h -18.1538 v 9.1343746 h 21.3135 v 8.04284595 h -29.6436 z m 38.261,42.28238955 V -44.752334 h 0.057 l 23.4966,33.320361 -3.5619,-0.804284 23.4392,-32.516077 h 0.1149 v 44.00585655 h -8.3301 V -25.966544 l 0.517,4.308668 -14.3047,20.3369096 h -0.1149 l -14.707,-20.3369096 1.4363,-3.963974 v 24.87537255 z m 80.6008,-15.62610055 q 0,2.010712 1.2064,3.849076 1.2065,1.838365 3.1597,2.9873426 2.0107,1.148978 4.3662,1.148978 2.5852,0 4.5959,-1.148978 2.0107,-1.1489776 3.1597,-2.9873426 1.2064,-1.838364 1.2064,-3.849076 v -26.656289 h 8.2152 v 26.828636 q 0,4.653361 -2.298,8.2726406 -2.2979,3.561832 -6.2045,5.629992 -3.9065,2.01071195 -8.6747,2.01071195 v 0 q -4.7109,0 -8.6174,-2.01071195 -3.8491,-2.06816 -6.147,-5.629992 -2.298,-3.6192796 -2.298,-8.2726406 v -26.828636 h 8.3301 z m 48.7742,-26.656289 q 5.2278,0 8.8471,1.780916 3.6193,1.723467 5.5151,4.940605 1.8958,3.15969 1.8958,7.525806 0,2.585201 -0.8043,5.22785 -0.7468,2.5852 -2.4703,4.71081 -1.666,2.125609 -4.5384,3.446933 -2.815,1.263876 -6.9514,1.263876 h -5.9747 v 13.38559355 h -8.33 V -43.028867 Z m 1.4362,20.796502 q 1.8958,0 3.1597,-0.631938 1.2639,-0.689387 1.9532,-1.666018 0.7469,-1.034081 1.0341,-2.12561 0.3447,-1.091529 0.3447,-1.895813 0,-0.631938 -0.2298,-1.666018 -0.1723,-1.091529 -0.8043,-2.183058 -0.6319,-1.09153 -1.9532,-1.838365 -1.2639,-0.746836 -3.447,-0.746836 h -5.9747 v 12.753656 z"
     id="text21"
     aria-label="'EM UP" />
  <path
     d="m -5622.8058,-82.542629 c -0.3219,0.177811 -0.7242,0.565763 -0.9173,0.840563 -0.5632,0.840563 -13.4527,23.939891 -13.4527,24.117703 0,0.09699 1.8023,3.2491 4.0069,7.031637 l 4.0068,6.86999 0.048,16.2455 0.048,16.2455 2.3976,1.7781196 2.4138,1.76195 v 2.61868 c 0,2.79649 0.097,3.26526 0.7724,3.99267 0.6276,0.67891995 1.2069,0.92138995 2.1241,0.92138995 0.9172,0 1.4966,-0.24247 2.1241,-0.92138995 0.6759,-0.72741 0.7724,-1.19618 0.7724,-3.99267 v -2.61868 l 2.4138,-1.76195 2.3977,-1.7781196 0.048,-16.2455 0.048,-16.2455 4.0069,-6.86999 c 2.2045,-3.782537 4.0068,-6.934649 4.0068,-7.031637 0,-0.307129 -13.2757,-23.923727 -13.7102,-24.376338 -0.2252,-0.258635 -0.6114,-0.565764 -0.8528,-0.695081 -0.6437,-0.339458 -2.0276,-0.2748 -2.7034,0.113153 z m 4.1194,18.266088 c 1.4,0.420282 2.5908,1.083034 3.9425,2.182232 2.1885,1.76195 2.5747,3.475406 1.1264,4.930227 -1.2551,1.260845 -2.6229,1.180022 -4.1838,-0.258635 -2.3977,-2.24689 -4.5218,-2.24689 -7.0965,0 -0.5954,0.51727 -1.2873,0.969881 -1.6735,1.066869 -0.9172,0.24247 -1.8828,-0.06466 -2.5747,-0.840563 -0.9655,-1.050704 -1.046,-2.182232 -0.2575,-3.459242 0.7563,-1.228515 3.7333,-3.168277 5.7448,-3.717876 1.2551,-0.339458 3.685,-0.307129 4.9723,0.09699 z"
     id="path1-2"
     style="fill:#ffffff;stroke-width:0.0161282" />
  <path
     d="m -5646.0423,-41.872296 -5.5678,9.97361 v -3.70171 c 0,-2.05292 -0.08,-3.99268 -0.1609,-4.31597 -0.2253,-0.77591 -0.885,-1.56798 -1.5609,-1.84278 -1.2391,-0.53343 -2.8643,-0.0647 -3.5885,1.01838 l -0.4023,0.59809 v 10.26457 10.28074 l 2.623,4.28364 c 1.4483,2.36004 2.8161,4.55844 3.0413,4.88173 0.4828,0.7274096 1.5288,1.2608496 2.3977,1.2446796 0.3379,0 3.7816,-0.48494 7.6275,-1.0830296 l 6.9999,-1.0992 0.048,-15.30795 0.032,-15.30795 -2.8483,-4.93023 c -1.577,-2.6995 -2.9126,-4.914061 -2.9608,-4.930226 -0.048,0 -2.6069,4.493786 -5.6804,9.973606 z"
     id="path2"
     style="fill:#ffffff;stroke-width:0.0161282" />
  <path
     d="m -5605.3141,-46.915676 -2.8483,4.93023 0.032,15.30795 0.048,15.30795 6.9999,1.0992 c 3.8459,0.5980896 7.2896,1.0830296 7.6275,1.0830296 0.869,0.0162 1.9149,-0.51727 2.3977,-1.2446796 0.2253,-0.32329 1.5931,-2.52169 3.0413,-4.88173 l 2.623,-4.28364 v -10.28074 -10.26457 l -0.4023,-0.59809 c -0.9333,-1.39016 -3.1218,-1.66496 -4.3126,-0.5496 -0.869,0.80823 -0.9172,1.0507 -0.9977,5.30202 l -0.081,3.96034 -5.5356,-9.90895 c -3.0413,-5.44749 -5.5677,-9.908946 -5.6321,-9.908946 -0.048,0 -1.3839,2.230726 -2.9609,4.930226 z"
     id="path3"
     style="fill:#ffffff;stroke-width:0.0161282" />
</svg>
