<?xml version="1.0" encoding="UTF-8" standalone="no"?>
<svg
   viewBox="0 0 147622.44 6880.7669"
   version="1.1"
   id="svg19"
   sodipodi:docname="GENRES.svg"
   inkscape:version="1.3 (0e150ed6c4, 2023-07-21)"
   xml:space="preserve"
   width="147622.44"
   height="6880.7671"
   xmlns:inkscape="http://www.inkscape.org/namespaces/inkscape"
   xmlns:sodipodi="http://sodipodi.sourceforge.net/DTD/sodipodi-0.dtd"
   xmlns="http://www.w3.org/2000/svg"
   xmlns:svg="http://www.w3.org/2000/svg"><defs
     id="defs19"><rect
       x="353.62744"
       y="-2.5734873"
       width="30.124939"
       height="50.712837"
       id="rect20" /></defs><sodipodi:namedview
     id="namedview19"
     pagecolor="#ffffff"
     bordercolor="#000000"
     borderopacity="0.25"
     inkscape:showpageshadow="2"
     inkscape:pageopacity="0.0"
     inkscape:pagecheckerboard="0"
     inkscape:deskcolor="#d1d1d1"
     inkscape:zoom="2.3355109"
     inkscape:cx="230.35645"
     inkscape:cy="26.974825"
     inkscape:window-width="1918"
     inkscape:window-height="1360"
     inkscape:window-x="1433"
     inkscape:window-y="0"
     inkscape:window-maximized="0"
     inkscape:current-layer="svg19" /><path
     style="font-weight:300;font-size:48.7192px;font-family:'Josefin Sans';-inkscape-font-specification:'Josefin Sans Light';fill:#ffffff;stroke:#75a5bd;stroke-width:0;stroke-linecap:round;stroke-miterlimit:4.7;paint-order:markers stroke fill"
     d="m -43.779975,-151.70066 14.61576,-36.10092 h 0.19488 l 14.61576,36.10092 h -2.67956 l -12.71571,-32.30083 1.65645,-0.92566 -13.30034,33.22649 z m 7.06428,-13.69009 h 15.34655 l 0.68207,2.24108 h -16.61325 z m 43.6524105,11.83876 q -1.31541,1.07183 -2.97187,1.65646 -1.65645,0.58463 -3.45906002,0.58463 -2.92314998,0 -5.21294998,-1.2667 -2.28981,-1.31542 -3.60523,-3.5565 -1.31541,-2.24109 -1.31541,-5.11552 0,-2.87443 1.36413,-5.11551 1.36414,-2.24109 3.60522,-3.50779 2.28981,-1.31542 4.96935998,-1.31542 1.99749002,0 3.70266002,0.58463 1.70517,0.58464 2.97187,1.65646 l -1.21798,1.55901 q -1.0231,-0.82822 -2.38724,-1.36414 -1.36413,-0.53591 -2.92315002,-0.53591 -2.14363998,0 -3.94624998,1.07183 -1.7539,1.07182 -2.82572,2.92315 -1.0231,1.80261 -1.0231,4.04369 0,2.19237 1.0231,4.04369 1.07182,1.80262 2.87443,2.87444 1.85133,1.07182 4.09241998,1.07182 1.46157002,0 2.72827002,-0.43847 1.2667,-0.48719 2.28981,-1.2667 z m 8.2822995,-25.57758 h 2.33852 v 8.6233 h 5.89502 v 1.85133 h -5.89502 v 16.95428 h -2.33852 v -16.95428 h -4.0437 v -1.85133 h 4.0437 z m 13.93373,8.37971 h 2.2898 v 19.0492 h -2.2898 z m -0.48719,-7.01557 q 0,-0.68207 0.53591,-1.12054 0.53591,-0.48719 1.16926,-0.48719 0.68207,0 1.16926,0.48719 0.48719,0.43847 0.48719,1.12054 0,0.73079 -0.48719,1.21798 -0.48719,0.43848 -1.16926,0.43848 -0.63335,0 -1.16926,-0.4872 -0.53591,-0.48719 -0.53591,-1.16926 z m 9.5977,16.41837 q 0,-2.77699 1.31541,-5.06679 1.36414,-2.28981 3.65394,-3.60522 2.33853,-1.36414 5.21296,-1.36414 2.92315,0 5.21295,1.36414 2.28981,1.31541 3.60522,3.60522 1.31542,2.2898 1.31542,5.06679 0,2.777 -1.31542,5.0668 -1.31541,2.2898 -3.65394,3.65394 -2.2898,1.31542 -5.16423,1.31542 -2.92315,0 -5.21296,-1.2667 -2.2898,-1.31542 -3.65394,-3.5565 -1.31541,-2.28981 -1.31541,-5.21296 z m 2.2898,0.0487 q 0,2.24109 1.0231,4.09242 1.07182,1.80261 2.82572,2.87443 1.80261,1.07182 3.99497,1.07182 2.19236,0 3.94626,-1.07182 1.80261,-1.07182 2.82571,-2.87443 1.07182,-1.85133 1.07182,-4.09242 0,-2.24108 -1.07182,-4.04369 -1.0231,-1.85133 -2.82571,-2.92315 -1.7539,-1.12054 -3.94626,-1.12054 -2.24108,0 -4.04369,1.16926 -1.75389,1.12054 -2.777,2.97187 -1.0231,1.85133 -1.0231,3.94625 z m 26.84423,-9.45152 0.2436,5.99246 -0.29232,-1.16926 q 0.82823,-2.48468 3.11803,-3.89754 2.33852,-1.46157 5.16424,-1.46157 2.67955,0 4.336,1.60773 1.65646,1.55901 1.70518,4.09241 v 13.88498 h -2.33853 v -13.25163 q -0.0487,-1.85133 -1.16926,-3.06931 -1.12054,-1.21798 -3.26418,-1.2667 -1.90005,0 -3.5565,0.92567 -1.65646,0.92566 -2.67956,2.58212 -0.97438,1.65645 -0.97438,3.84881 v 10.23103 h -2.28981 v -19.0492 z"
     id="text19"
     aria-label="Action" /><text
     xml:space="preserve"
     id="text20"
     style="white-space:pre;shape-inside:url(#rect20);display:inline;fill:#000000;stroke:#75a5bd;stroke-width:0;stroke-linecap:round;stroke-miterlimit:4.7;paint-order:markers stroke fill"
     transform="translate(-161.26002,-190.04748)" /><path
     style="font-weight:bold;font-size:54.2174px;font-family:'Josefin Sans';-inkscape-font-specification:'Josefin Sans Bold';fill:#ffffff;stroke:#75a5bd;stroke-width:0;stroke-linecap:round;stroke-miterlimit:4.7;paint-order:markers stroke fill"
     d="m -43.591005,-148.01839 h 24.94001 v 7.59043 h -17.07848 v 9.05431 h 14.80135 v 7.59044 h -14.80135 v 15.66882 h -7.86153 z m 32.53046,0 h 7.8615305 v 39.904 h -7.8615305 z m 50.53057,35.89192 q -0.70483,0.75904 -2.22291,1.5723 -1.51809,0.75904 -3.52413,1.40965 -1.95183,0.65061 -4.01209,1.03013 -2.06026,0.43374 -3.90366,0.43374 -4.87956,0 -8.78321,-1.40965 -3.90366,-1.46387 -6.66874,-4.01209 -2.7650895,-2.60243 -4.2289595,-6.12656 -1.46387,-3.52413 -1.46387,-7.69887 0,-5.47596 1.62652,-9.48805 1.68074,-4.0663 4.5000495,-6.72296 2.87352,-2.71087 6.5603,-4.01208 3.741,-1.30122 7.80731,-1.30122 3.84943,0 7.04826,0.86748 3.19882,0.81326 5.42174,2.06026 l -2.54822,7.31935 q -0.97591,-0.54218 -2.60244,-1.08435 -1.62652,-0.54218 -3.30726,-0.86748 -1.68074,-0.37952 -2.98195,-0.37952 -3.25305,0 -5.74705,0.81326 -2.494,0.81326 -4.22896,2.43978 -1.68073,1.62652 -2.54821,4.06631 -0.86748,2.38556 -0.86748,5.58439 0,2.8193 0.97591,5.09644 0.97592,2.22291 2.71087,3.79521 1.78918,1.57231 4.17474,2.38557 2.43978,0.81326 5.36752,0.81326 1.68074,0 3.0904,-0.21687 1.40965,-0.27109 2.38556,-0.81326 v -4.82535 h -6.88561 v -7.59044 h 14.85557 z m 42.5064,-35.89192 v 39.904 h -7.86153 v -16.211 h -17.83752 v 16.211 h -7.86152 v -39.904 h 7.86152 v 16.10257 h 17.83752 v -16.10257 z m 7.59043,0 h 26.891835 v 7.59043 h -9.70491 v 32.31357 h -7.861525 v -32.31357 h -9.3254 z m 34.482305,0 h 7.86152 v 39.904 h -7.86152 z m 53.89203,41.53053 -30.25331,-27.32557 2.33135,1.30121 0.16265,24.39783 h -7.96996 v -41.47631 h 0.32531 l 29.6027,27.21714 -1.73496,-0.75905 -0.16265,-24.88578 h 7.91574 v 41.53053 z m 42.886,-5.63861 q -0.70482,0.75904 -2.22291,1.5723 -1.51809,0.75904 -3.52413,1.40965 -1.95183,0.65061 -4.01209,1.03013 -2.06026,0.43374 -3.90365,0.43374 -4.87957,0 -8.78322,-1.40965 -3.90365,-1.46387 -6.66874,-4.01209 -2.76509,-2.60243 -4.22896,-6.12656 -1.46387,-3.52413 -1.46387,-7.69887 0,-5.47596 1.62652,-9.48805 1.68074,-4.0663 4.50005,-6.72296 2.87352,-2.71087 6.5603,-4.01208 3.741,-1.30122 7.80731,-1.30122 3.84943,0 7.04826,0.86748 3.19883,0.81326 5.42174,2.06026 l -2.54822,7.31935 q -0.97591,-0.54218 -2.60243,-1.08435 -1.62652,-0.54218 -3.30726,-0.86748 -1.68074,-0.37952 -2.98196,-0.37952 -3.25304,0 -5.74705,0.81326 -2.494,0.81326 -4.22895,2.43978 -1.68074,1.62652 -2.54822,4.06631 -0.86748,2.38556 -0.86748,5.58439 0,2.8193 0.97591,5.09644 0.97592,2.22291 2.71087,3.79521 1.78918,1.57231 4.17474,2.38557 2.43979,0.81326 5.36753,0.81326 1.68074,0 3.09039,-0.21687 1.40965,-0.27109 2.38556,-0.81326 v -4.82535 h -6.88561 v -7.59044 h 14.85557 z"
     id="text21"
     aria-label="FIGHTING" /><path
     style="fill:#ffffff;stroke-width:0.063624"
     d="m -98.391837,-113.37497 c -0.01423,-0.0176 -0.05192,-0.14822 -0.08363,-0.29 -0.2487,-1.10981 -0.945974,-3.10784 -1.517512,-4.34845 -0.04127,-0.0896 -0.146991,-0.31959 -0.234871,-0.51099 -0.61539,-1.34046 -1.61647,-3.19372 -2.71278,-5.02217 -0.61218,-1.02097 -0.81067,-1.27084 -1.12533,-1.41665 l -0.13824,-0.064 -0.10048,0.0301 c -0.2706,0.0811 -0.44289,0.4223 -0.9106,1.80345 -0.28458,0.84039 -0.42395,1.19275 -0.62526,1.58079 l -0.14304,0.2757 -0.0845,0.0401 c -0.24851,0.11793 -0.25185,0.10433 -0.16425,-0.66883 0.0402,-0.35449 0.0734,-0.66952 0.0738,-0.70009 l 8.5e-4,-0.0556 -0.0911,0.028 -0.0911,0.028 -0.0394,-0.0394 -0.0394,-0.0394 0.0663,-0.5904 c 0.1017,-0.90629 0.14155,-1.43577 0.15894,-2.11138 l 0.0159,-0.61871 -0.0799,-0.42535 c -0.27375,-1.45682 -0.63434,-2.1973 -1.20742,-2.47943 l -0.16552,-0.0815 -0.19961,-0.0115 -0.19961,-0.0115 -0.07,0.061 -0.07,0.061 -0.15578,0.85025 c -0.14821,0.80896 -0.17067,0.88855 -0.25108,0.88947 -0.0548,0 -0.83868,0.17146 -1.55119,0.33806 -2.59879,0.60766 -5.56469,1.52474 -8.48911,2.6249 -0.37994,0.14294 -0.70187,0.25989 -0.71538,0.25989 h -0.0246 l -0.002,-0.67673 c -9.4e-4,-0.37217 -0.0108,-1.18539 -0.022,-1.80711 l -0.0204,-1.13039 -0.0361,-0.0234 c -0.0198,-0.0129 -0.0609,-0.0301 -0.0912,-0.0382 l -0.0552,-0.0147 -0.44753,0.15956 c -0.53075,0.18925 -1.72083,0.6349 -2.31239,0.86595 -0.23166,0.0905 -0.42598,0.16452 -0.43181,0.16452 -0.006,0 -0.0106,-0.0516 -0.0106,-0.11469 v -0.11464 l -0.0755,0.0264 -0.0755,0.0263 -0.0534,-0.0286 -0.0534,-0.0286 v -0.27622 c -4.4e-4,-1.39383 -0.388,-2.08194 -1.3413,-2.38129 l -0.19244,-0.0604 -0.36091,0.003 -0.36092,0.003 -0.22511,0.0562 c -1.1201,0.27941 -3.33379,1.56123 -5.43349,3.14623 -0.43517,0.3285 -2.01701,1.57713 -2.06236,1.62793 -0.007,0.008 -0.0765,0.0665 -0.15428,0.1301 -0.22187,0.18147 -0.2292,0.18757 -0.5314,0.44194 -0.15736,0.13248 -0.45898,0.38878 -0.67027,0.56954 -0.21129,0.18076 -0.60458,0.49277 -0.87398,0.69336 -0.86802,0.64623 -2.25501,1.75244 -2.64089,2.1063 -0.20642,0.18928 -0.43041,0.39048 -0.49777,0.44709 l -0.12245,0.10294 v -0.0633 c 0,-0.15939 0.85655,-1.39444 1.62221,-2.33902 0.41938,-0.51741 1.58316,-1.85058 1.74403,-1.99789 0.0155,-0.0142 0.10837,-0.11348 0.20642,-0.22061 0.3585,-0.39184 0.70691,-0.76866 1.096,-1.18536 0.63824,-0.68354 1.33086,-1.44937 1.71278,-1.89382 0.19495,-0.22685 0.53048,-0.6039 0.74562,-0.83783 0.52149,-0.56708 0.56821,-0.61987 0.78532,-0.88726 0.43522,-0.53607 0.69798,-1.03201 0.69798,-1.31747 v -0.10847 l -0.0508,-0.0646 c -0.30171,-0.38365 -1.55207,-0.19169 -4.33927,0.666 -1.02905,0.31667 -1.04516,0.31874 -0.97123,0.12429 l 0.0251,-0.0661 0.39308,-0.1873 c 0.2162,-0.10303 0.61634,-0.28981 0.8892,-0.41509 0.50487,-0.2318 0.5786,-0.27496 0.35241,-0.20635 -0.24484,0.0743 -0.35069,0.0256 -0.24877,-0.11439 0.0579,-0.0796 0.002,-0.0515 1.46261,-0.72753 3.44445,-1.5936 5.50868,-2.79416 5.76123,-3.35072 0.1409,-0.31051 -0.0322,-0.69203 -0.48023,-1.0586 l -0.17844,-0.14599 -0.2698,-0.055 c -0.14839,-0.0302 -0.41481,-0.10212 -0.59204,-0.15974 l -0.32224,-0.10477 -0.45156,-0.22753 c -2.66311,-1.3418 -4.22484,-4.03131 -3.94759,-6.79824 l 0.0189,-0.18816 -0.0269,-0.0222 c -0.0538,-0.0443 -0.34315,-0.10454 -0.63985,-0.13326 l -0.30362,-0.0294 -0.4311,0.03 c -0.5595,0.0391 -1.07243,0.14624 -2.24856,0.47006 -3.33872,0.91922 -6.19495,2.06168 -16.602,6.64059 -4.56538,2.00867 -5.0793,2.23197 -5.09674,2.21452 -0.0186,-0.0185 1.39705,-0.77389 3.65308,-1.94901 0.36156,-0.18834 0.66762,-0.35175 0.68013,-0.36314 0.0125,-0.0112 -1.17077,0.5047 -2.62951,1.14685 -2.61549,1.15136 -4.23945,1.86241 -4.31503,1.8893 -0.20347,0.0724 0.46489,-0.28461 3.94426,-2.10682 3.74582,-1.96175 4.94697,-2.59976 5.58126,-2.96464 0.14179,-0.0816 0.98865,-0.54229 1.88191,-1.02382 1.83722,-0.99041 1.90985,-1.0298 2.18392,-1.18406 0.10939,-0.0615 0.20406,-0.11196 0.21037,-0.11196 0.006,0 0.0908,-0.0448 0.18779,-0.0997 0.30057,-0.16998 2.05837,-1.10275 3.15386,-1.67357 0.57424,-0.29921 1.27028,-0.66716 1.54677,-0.81765 0.27648,-0.15048 0.67817,-0.35968 0.89264,-0.4649 1.94578,-0.95445 3.24212,-1.95254 3.64846,-2.80899 l 0.0734,-0.15467 3e-5,-0.12687 1e-5,-0.12686 -0.11047,-0.10586 c -0.0608,-0.0582 -0.15819,-0.12015 -0.21652,-0.13763 l -0.10606,-0.0317 -0.48596,0.0891 c -0.5769,0.10577 -1.31657,0.27442 -2.0496,0.46732 -0.62692,0.165 -0.56319,0.15754 -0.56319,0.0658 v -0.0743 l 0.0967,-0.0872 c 0.0532,-0.048 0.14018,-0.11407 0.19335,-0.14689 0.0532,-0.0328 0.0967,-0.063 0.0967,-0.0672 0,-0.0188 -1.37001,0.31514 -1.89479,0.46182 -0.28444,0.0795 -0.27069,0.0795 -0.27069,0 0,-0.11133 0.0384,-0.15096 0.35896,-0.37076 0.47347,-0.32466 0.55794,-0.43967 0.40603,-0.55288 l -0.0729,-0.0543 -0.21073,0.006 c -0.1159,0.003 -1.24899,0.0931 -2.51799,0.19957 -2.19609,0.18425 -4.08281,0.32739 -4.75632,0.36085 l -0.30935,0.0153 0.0902,-0.0513 c 0.0496,-0.0282 0.0786,-0.0517 0.0644,-0.0523 -0.0142,0 -0.42601,0.0271 -0.91517,0.0615 -0.48917,0.0344 -1.0228,0.0702 -1.18586,0.0794 l -0.29646,0.017 0.56714,-0.27514 c 0.70089,-0.34002 0.53567,-0.28656 1.58545,-0.51304 3.04472,-0.65685 4.80874,-1.005 9.8091,-1.93579 2.89801,-0.53945 5.13181,-0.96156 5.20425,-0.98343 l 0.0484,-0.0144 -0.21592,-0.0971 c -1.8576,-0.83513 -3.35827,-3.54739 -3.14034,-5.6757 0.3522,-3.43959 3.59532,-6.17432 7.90083,-6.66227 l 0.38573,-0.0437 0.58003,-5e-5 c 1.21757,-1.1e-4 2.30299,0.22617 3.42838,0.71467 0.33033,0.14339 0.32553,0.15855 0.0614,-0.19354 -0.56463,-0.75263 -1.11008,-1.34397 -3.39902,-3.68492 -1.99165,-2.03689 -2.90121,-3.00083 -2.90034,-3.07366 0,-0.0181 0.0111,-0.0496 0.0241,-0.0702 l 0.0237,-0.0374 0.21492,0.20499 c 0.43029,0.4104 0.94566,0.85467 1.74774,1.50659 0.23396,0.19015 0.62607,0.51779 0.87137,0.7281 1.1499,0.98585 1.85986,1.45723 2.57239,1.70799 l 0.1311,0.0461 0.0724,-0.0241 0.0724,-0.0241 0.14455,0.0365 0.14456,0.0365 0.0695,-0.0277 c 0.0382,-0.0151 0.0905,-0.0596 0.11602,-0.0987 l 0.0464,-0.071 -0.003,-0.23304 -0.003,-0.23301 -0.069,-0.31727 c -0.0906,-0.41631 -0.24006,-0.87748 -0.59489,-1.83533 -0.39313,-1.06122 -0.49834,-1.39756 -0.96767,-3.09354 -0.11575,-0.41828 -0.27448,-0.9693 -0.35274,-1.22453 l -0.14229,-0.46403 -0.30814,-0.73471 c -0.16948,-0.40408 -0.32346,-0.76951 -0.34217,-0.81206 -0.0187,-0.0426 -0.1112,-0.26294 -0.20551,-0.48981 -0.16706,-0.40176 -0.23543,-0.56443 -0.44975,-1.06985 -0.60526,-1.42743 -1.73842,-4.17479 -1.76505,-4.2794 -0.0264,-0.10375 0.52377,1.01373 1.23751,2.51351 0.36437,0.76565 0.76483,1.60528 0.88992,1.86585 0.12507,0.26054 0.22742,0.47686 0.22742,0.48069 0,0.004 0.13094,0.27786 0.29098,0.609 0.16004,0.33112 0.38304,0.79568 0.49556,1.03238 0.11252,0.2367 0.20748,0.42746 0.21101,0.42393 0.003,-0.003 -0.15666,-0.39441 -0.35599,-0.86861 -1.31011,-3.11662 -1.8591,-4.45359 -1.84553,-4.49431 0.0164,-0.0493 0.3795,0.69468 1.8354,3.76103 0.97434,2.05208 1.59896,3.35603 2.08438,4.35127 l 0.3494,0.71636 0.22684,-0.14762 c 0.66484,-0.43265 1.16289,-0.74511 1.69074,-1.06065 l 0.58738,-0.35115 0.17232,-0.25889 c 1.4454,-2.17156 3.84299,-3.49958 7.53947,-4.17614 2.75707,-0.50461 5.24827,0.11249 8.09934,2.00636 l 0.35812,0.2379 0.59572,-0.2275 c 0.32766,-0.12513 0.91605,-0.33878 1.30756,-0.47475 l 0.71181,-0.24726 0.004,-0.20974 c 0.0448,-2.30411 0.23474,-5.11312 0.42806,-6.33237 0.0349,-0.21977 0.0817,-0.5736 0.10399,-0.78628 0.0782,-0.74352 0.19396,-1.41755 0.29678,-1.72723 l 0.0513,-0.15466 -0.0106,0.19333 c -0.006,0.10635 -0.0256,0.67959 -0.0437,1.2739 l -0.0332,1.08056 0.0314,1.42006 c 0.0321,1.45663 0.0523,1.97383 0.12025,3.09572 0.039,0.6433 0.10253,1.46693 0.13047,1.69089 l 0.0147,0.11837 0.24949,-0.0749 c 1.16098,-0.3484 2.46893,-0.67514 4.051965,-1.0122 1.043303,-0.22214 0.925863,-0.23765 0.797032,0.10515 -0.302999,0.80619 -1.325235,3.65134 -1.636461,4.55468 l -0.06011,0.17453 0.0318,-0.0199 c 0.01747,-0.0109 0.172218,-0.13254 0.343871,-0.27026 2.988843,-2.39803 6.303057,-3.65116 10.079238,-3.81102 l 0.622726,-0.0264 0.66509,0.0271 c 7.630633,0.31121 12.448335,4.74964 10.620745,9.78461 -0.03546,0.0977 -0.06215,0.17955 -0.05925,0.18185 0.0026,0.002 0.03155,0.0122 0.06368,0.0222 l 0.0584,0.0181 0.367317,-0.35633 c 1.785208,-1.73188 3.104842,-2.85896 6.16697,-5.26704 1.500548,-1.18004 1.628909,-1.28621 2.126812,-1.75885 0.205586,-0.19516 0.4028,-0.3748 0.438249,-0.39921 l 0.06446,-0.0444 -0.07571,0.10211 c -0.126733,0.171 -0.502354,0.62673 -0.774883,0.94013 -0.141874,0.16316 -0.275368,0.31912 -0.296631,0.34655 -0.02132,0.0274 0.129547,-0.0822 0.335133,-0.24368 1.048562,-0.82359 1.255154,-0.98728 1.620194,-1.28362 0.217626,-0.17667 0.571446,-0.48872 0.786273,-0.69342 0.214837,-0.2047 0.425402,-0.39749 0.467927,-0.4284 0.111796,-0.0813 -0.453492,0.60734 -1.159906,1.41299 -0.542313,0.61848 -0.769929,0.88937 -1.405853,1.67317 -0.09254,0.11408 -0.562383,0.5828 -1.044061,1.0416 -2.364404,2.25206 -3.471025,3.4368 -4.210263,4.50745 -0.04749,0.0687 -0.15091,0.21774 -0.229926,0.33116 -0.675679,0.96999 -0.797578,1.28852 -0.543421,1.41995 l 0.08355,0.0432 0.168892,-0.0151 c 0.18567,-0.0167 0.72586,-0.15003 1.186941,-0.29303 0.293614,-0.091 0.542057,-0.18045 1.689534,-0.60793 1.198843,-0.44662 2.151852,-0.67806 2.151852,-0.52256 0,0.25564 -1.739188,1.31155 -3.145101,1.90947 -0.191416,0.0814 -0.406022,0.17448 -0.476921,0.20687 -0.07084,0.0324 -0.285505,0.13005 -0.476922,0.21706 -0.779009,0.35408 -1.437364,0.74481 -1.675663,0.99446 l -0.116007,0.12153 0.06445,-0.0149 c 0.03546,-0.008 0.267464,-0.0349 0.515593,-0.0594 l 0.45114,-0.0446 h 0.74761 c 3.813267,-0.005 7.103737,1.81433 7.606542,4.20499 0.0068,0.0315 0.02353,0.0874 0.03742,0.12412 0.01399,0.0367 0.05065,0.21972 0.08159,0.40668 l 0.05618,0.33994 -4.86e-4,0.52846 -4.86e-4,0.52851 -0.0422,0.27854 c -0.175193,1.15677 -0.594975,2.22508 -1.244959,3.16832 -0.104601,0.15179 -0.1903,0.2852 -0.190444,0.29647 -1.28e-4,0.0112 -0.09988,0.12488 -0.221649,0.25247 -0.783749,0.82138 -0.188305,1.32694 1.840907,1.56303 l 0.456255,0.0531 0.309351,-0.0136 c 0.170146,-0.008 0.959,-0.0894 1.753,-0.18215 3.088189,-0.36079 3.467649,-0.40413 4.069869,-0.4649 0.3421,-0.0345 0.72641,-0.0699 0.85402,-0.0786 l 0.23201,-0.0158 -0.0387,0.0246 c -0.0212,0.0136 -0.22129,0.0625 -0.44449,0.10886 -0.2232,0.0464 -0.40196,0.0882 -0.39723,0.0929 0.006,0.005 0.40774,-0.0376 0.89562,-0.0941 1.28051,-0.14819 2.06187,-0.22936 2.35647,-0.24482 l 0.2578,-0.0136 -0.21913,0.053 c -0.12052,0.0292 -0.91517,0.19765 -1.7659,0.37436 -6.254249,1.29928 -8.294159,1.86088 -8.67655,2.38876 l -0.07562,0.10432 v 0.0954 0.0954 l 0.08056,0.11344 c 0.127927,0.18009 0.23118,0.27834 0.383464,0.36484 0.078,0.0443 0.194,0.12355 0.257797,0.17614 0.358305,0.29532 0.962923,0.57331 2.12681,0.97785 0.29776,0.1035 0.68058,0.24521 0.85072,0.31494 1.972859,0.80836 4.126379,1.63814 5.639969,2.17314 0.11028,0.039 0.19728,0.0735 0.19335,0.0767 -0.004,0.003 -0.20006,-0.0275 -0.43585,-0.0683 -0.40073,-0.0693 -2.57706,-0.33755 -2.5948,-0.31982 -0.004,0.004 0.0825,0.0403 0.19296,0.0797 0.11062,0.0395 0.21263,0.0823 0.22681,0.0951 l 0.0258,0.0234 -0.0645,-0.0151 c -0.50195,-0.11786 -3.492509,-0.46914 -5.387918,-0.63288 -0.333197,-0.0288 -1.029243,-0.10559 -1.546772,-0.17064 l -0.940944,-0.11833 -0.502703,0.0133 c -0.485234,0.0129 -0.622573,0.0268 -1.120144,0.11328 -0.35163,0.0611 -0.839097,0.23777 -0.839097,0.304 0,0.016 0.02763,0.0863 0.06129,0.15634 0.07904,0.164 0.181169,0.48841 0.239927,0.76211 l 0.0463,0.2159 -0.0017,0.4769 -0.0017,0.47693 -0.05789,0.26963 c -0.459248,2.13823 -2.283247,3.87275 -5.109882,4.85923 -1.05101,0.36681 -1.652302,0.91017 -1.830718,1.6544 l -0.05482,0.22876 0.01458,0.29648 0.01458,0.29645 0.0665,0.26861 c 0.09318,0.3765 0.290245,0.86269 0.575546,1.41995 0.84163,1.64396 0.910311,1.79082 1.078982,2.30728 0.0052,0.0142 -0.0017,0.0423 -0.01492,0.0624 l -0.02336,0.0367 -0.169744,-0.10757 c -0.258488,-0.16379 -0.44941,-0.28066 -0.956017,-0.58512 -0.255214,-0.15341 -0.489241,-0.29506 -0.520053,-0.31481 l -0.05602,-0.0359 0.01312,0.0503 c 0.02924,0.11173 -0.06437,0.0759 -0.515287,-0.19751 l -0.469075,-0.28446 -0.22338,-0.0323 -0.223388,-0.0323 -0.160442,0.0298 c -0.387105,0.072 -0.538988,0.3367 -0.462974,0.80694 0.186975,1.15674 0.568298,2.22312 1.469659,4.10978 0.08805,0.18431 0.240003,0.5228 0.337655,0.75216 0.250841,0.58912 0.502039,1.15284 1.158304,2.59918 0.628968,1.38623 2.954921,6.46751 2.99581,6.54466 l 0.02557,0.0483 -0.02787,-0.0171 c -0.152523,-0.0943 -1.31457,-2.0035 -3.417783,-5.61545 -0.551128,-0.94646 -1.006735,-1.71615 -1.012457,-1.71043 -0.01142,0.0115 0.06651,0.18362 1.507087,3.32691 0.545518,1.19032 1.019661,2.22709 1.053653,2.30395 l 0.06181,0.13972 -0.04084,-0.0339 c -0.195457,-0.16221 -1.155771,-1.73085 -3.052664,-4.98645 -2.490497,-4.27436 -3.189357,-5.34503 -4.265747,-6.5351 -0.09617,-0.10632 -0.326846,-0.37315 -0.512593,-0.59293 -0.185738,-0.21977 -0.487588,-0.55328 -0.670768,-0.74114 l -0.333044,-0.34159 h -0.05516 c -0.03035,0 -0.106943,0.0261 -0.170213,0.058 l -0.115027,0.058 -0.04954,0.0925 -0.04954,0.0925 0.04544,0.1266 c 0.123186,0.34344 0.375903,1.32962 0.375903,1.46693 v 0.0673 l -0.08616,0.036 c -0.135727,0.0567 -0.166471,0.0325 -0.485473,-0.38214 -0.413389,-0.53736 -0.725672,-0.90756 -0.736961,-0.87372 -0.0052,0.0156 0.0026,0.0725 0.01834,0.12651 l 0.0277,0.0982 -0.0798,0.0724 c -0.04741,0.0431 -0.102191,0.0691 -0.13508,0.0645 l -0.05533,-0.008 -0.381137,-0.4898 c -0.447379,-0.57489 -0.778427,-0.94092 -0.932818,-1.0314 l -0.110585,-0.0648 -0.197428,0.0696 -0.197427,0.0696 -0.141231,0.26685 c -1.024231,1.93516 -3.303011,3.39577 -5.830304,3.73701 l -0.330844,0.0447 -0.73471,-1.1e-4 -0.734719,-1.4e-4 -0.316052,-0.0443 -0.316043,-0.0443 -0.199551,0.0626 c -0.356703,0.11186 -0.476155,0.13118 -0.811798,0.13128 H -96.3093 v 0.20931 c 0,0.50562 0.123869,0.95799 0.732655,2.67565 l 0.145362,0.41013 -0.278276,-0.26834 c -0.756808,-0.72978 -1.551487,-1.20714 -2.084771,-1.25227 l -0.183173,-0.0156 -0.13907,0.0327 c -0.189941,0.0448 -0.337255,0.12459 -0.558272,0.30253 -0.500768,0.40314 -0.542756,0.58915 -0.565912,2.50739 l -0.01356,1.12139 0.02993,0.70841 c 0.05013,1.18885 0.200487,2.57238 0.440551,4.05384 l 0.04902,0.3024 -0.03742,0.19553 c -0.02054,0.10752 -0.04954,0.35642 -0.06429,0.55312 l -0.02694,0.35763 0.0272,0.43344 c 0.03394,0.54036 0.115607,1.10961 0.296009,2.06301 0.27414,1.44872 0.289349,1.59351 0.149044,1.41886 z m -1.34579,-5.68386 c -0.317493,-1.47365 -0.477753,-2.5586 -0.541763,-3.66764 -0.0151,-0.26232 -0.0526,-0.80754 -0.0832,-1.21165 l -0.0558,-0.73471 -0.002,-0.91517 -0.002,-0.91518 0.0459,-0.32224 c 0.16409,-1.1529 0.463788,-1.78212 0.997865,-2.09505 0.5454,-0.31957 1.48324,-0.10112 2.118934,0.49354 l 0.170001,0.15903 -0.102449,-0.2906 c -0.05635,-0.15984 -0.137083,-0.42983 -0.179404,-0.59998 l -0.07699,-0.30936 -0.01492,-0.29645 -0.01484,-0.29648 0.03205,-0.18979 0.03205,-0.18979 0.09532,-0.18968 0.09532,-0.18964 -0.07622,-0.0265 c -0.04195,-0.0147 -0.07895,-0.0266 -0.08219,-0.0266 -0.0034,0 -0.07801,0.21171 -0.165984,0.47047 l -0.159991,0.47048 -1.312533,0.39738 c -0.721888,0.21858 -1.316979,0.39259 -1.322409,0.38671 -0.005,-0.006 0.10283,-0.65455 0.24061,-1.44146 0.137777,-0.78692 0.257221,-1.47234 0.265414,-1.52314 l 0.01492,-0.0924 -0.138404,-0.10809 c -0.07613,-0.0594 -0.19399,-0.18328 -0.26191,-0.27519 -0.0679,-0.0919 -0.13513,-0.16273 -0.1493,-0.1574 -0.13747,0.0517 -3.55254,1.07473 -3.56718,1.06868 -0.0108,-0.004 0.0824,-0.58235 0.20695,-1.28421 0.85899,-4.84055 1.62961,-9.57213 2.04707,-12.56896 l 0.0972,-0.69749 0.46621,-0.1629 c 1.461436,-0.51061 4.121703,-1.55054 4.115744,-1.60884 -8.53e-4,-0.009 -0.0017,-0.0953 -0.0017,-0.19104 l -3.3e-5,-0.174 -0.380216,-0.003 -0.380216,-0.003 -0.257788,-0.0442 c -2.355281,-0.4033 -2.999061,-2.72628 -1.929325,-6.96166 1.771158,-7.0125 5.342631,-12.24094 10.684605,-15.64163 0.805823,-0.513 1.747765,-0.86493 2.884162,-1.07759 l 0.296461,-0.0555 0.477246,-0.0136 0.477254,-0.0136 0.227027,0.0302 c 0.124867,0.0165 0.339328,0.0589 0.47659,0.094 l 0.249561,0.0638 0.309352,0.15304 0.309359,0.15302 0.213823,0.17141 c 0.593474,0.47573 1.038305,1.26075 1.241632,2.19121 0.02669,0.12212 0.05252,0.22601 0.05738,0.23089 0.0087,0.009 1.546133,-0.42425 1.564489,-0.44068 0.01458,-0.0131 -0.14161,-0.28165 -0.306743,-0.52741 -1.406705,-2.09346 -4.042725,-3.33943 -7.965151,-3.76485 l -0.502703,-0.0545 -0.94785,-0.0136 -0.947841,-0.0136 -0.41847,0.0307 c -1.637477,0.12013 -3.951783,0.69982 -4.667711,1.16917 l -0.05593,0.0366 -0.124976,0.3452 c -4.549772,12.56636 -7.916202,24.51924 -10.690442,37.9575 -0.21362,1.03475 -0.61529,3.09174 -0.60562,3.10141 0.0174,0.0174 0.44973,-0.65682 0.58367,-0.91017 l 0.13628,-0.25778 0.27148,-0.29648 c 0.28294,-0.30897 0.32647,-0.34752 0.3017,-0.26729 -0.008,0.0265 -0.0396,0.12937 -0.0701,0.22863 -0.20082,0.65656 -0.58682,1.40176 -1.04192,2.01149 l -0.23539,0.31537 0.18215,0.0119 0.18215,0.0119 0.11319,0.058 c 0.0622,0.0319 0.13695,0.0802 0.16599,0.10721 0.029,0.027 0.0612,0.0492 0.0714,0.0492 0.0103,0 0.0764,0.0725 0.14688,0.16114 0.56112,0.70533 0.90106,1.96367 0.98778,3.6563 l 0.0292,0.57101 -0.0298,0.67376 c -0.0164,0.37055 -0.0465,0.87096 -0.0672,1.112 -0.0527,0.61627 -0.0438,0.70587 0.0267,0.27069 0.8946,-5.52123 3.32463,-3.81527 5.973078,4.19327 0.202373,0.61194 0.370873,1.10979 0.374454,1.10631 0.0034,-0.003 -0.05115,-0.27383 -0.121567,-0.60076 z m -33.926783,-5.79439 c 2.51284,-2.35583 4.34032,-3.78183 6.25153,-4.87805 1.46469,-0.84013 2.46248,-1.29607 3.15799,-1.44302 l 0.21913,-0.0463 h 0.33513 0.33513 l 0.1539,0.0466 c 0.0847,0.0257 0.19888,0.0696 0.25385,0.0976 0.055,0.0281 0.10224,0.0472 0.10503,0.0427 0.0199,-0.0322 -0.15475,-6.53842 -0.17612,-6.56259 -0.003,-0.003 -0.17871,0.0506 -0.39026,0.12009 -0.39858,0.13098 -0.8229,0.23395 -1.19056,0.28884 l -0.21299,0.0318 0.0118,0.0406 c 0.3155,1.08368 -2.32525,3.02859 -6.95117,5.1196 -0.27939,0.12628 -0.50506,0.23254 -0.50148,0.23613 0.003,0.003 0.25539,-0.0924 0.55955,-0.21339 1.07785,-0.42864 1.59832,-0.57551 2.2311,-0.62957 l 0.31176,-0.0266 0.23563,0.0267 c 0.50841,0.0576 0.77182,0.25098 0.81992,0.60197 l 0.0153,0.11181 -0.0548,0.21696 c -0.23329,0.92332 -1.34625,2.30964 -4.38668,5.46421 -0.8319,0.86312 -1.40004,1.46439 -1.7773,1.88095 -0.46142,0.50948 -0.47134,0.51763 0.6446,-0.52856 z m 12.86571,-3.6757 c 2.80152,-1.01995 5.62353,-1.8592 8.23101,-2.4479 0.79583,-0.17969 0.66257,-0.0284 0.83062,-0.9433 2.70428,-14.72424 6.54396,-29.11654 11.34893,-42.53938 0.16877,-0.47146 0.30241,-0.85718 0.29701,-0.85718 -0.0961,0 -2.15146,0.54854 -2.90857,0.77625 -1.48186,0.44569 -3.63482,1.22144 -4.63095,1.66858 l -0.1711,0.0768 -0.0663,0.20217 c -1.17949,3.59353 -2.8693,9.39365 -3.98575,13.68078 -1.28877,4.9488 -2.07435,8.47818 -3.24868,14.59529 -0.29943,1.55966 -0.55387,2.86474 -0.56543,2.9002 l -0.021,0.0645 -0.0169,-0.2449 c -0.009,-0.13471 -0.0632,-1.32379 -0.11982,-2.64241 -0.4636,-10.79925 -0.97356,-18.70102 -1.7524,-27.15323 -0.22301,-2.42022 -0.11398,-2.11258 -0.67267,-1.89789 -1.50119,0.5769 -3.11704,1.36842 -4.7538,2.32867 -0.34865,0.20454 -1.54632,0.94726 -1.64838,1.02222 l -0.05,0.0367 0.18613,1.21807 c 1.71745,11.23977 2.68284,24.28004 2.90757,39.27508 0.01,0.64158 0.0194,1.16653 0.0218,1.16653 0.002,0 0.35733,-0.12854 0.78883,-0.28563 z m 41.08756,-1.56406 c -1.079911,-2.28537 -1.106426,-4.01676 -0.06582,-4.29844 l 0.167485,-0.0453 0.31815,0.0124 0.31814,0.0125 0.206243,0.0677 c 0.407779,0.13379 0.818797,0.39243 1.294671,0.81471 l 0.261616,0.23216 -0.405639,-0.80497 c -1.096622,-2.1762 -1.198545,-3.19335 -0.401113,-4.00264 l 0.168859,-0.17139 -0.07247,0.0151 c -0.0399,0.008 -0.217522,0.0353 -0.394752,0.0601 l -0.322242,0.045 h -0.812053 -0.812055 l -0.360914,-0.0567 c -0.627638,-0.0986 -1.198238,-0.25819 -1.732017,-0.48438 -0.130245,-0.0552 -0.233541,-0.10359 -0.22956,-0.10759 0.0043,-0.004 0.191749,0.016 0.417259,0.0443 0.773596,0.0973 0.953554,0.10837 1.988629,0.12189 l 1.03724,0.0136 0.303291,-0.0303 c 1.733934,-0.17303 3.971622,-1.08992 5.036962,-2.06384 2.961161,-2.70706 1.14723,-6.65632 -3.416367,-7.43808 -0.199899,-0.0342 -0.44466,-0.0862 -0.543916,-0.1155 -0.09925,-0.0292 -0.306094,-0.0808 -0.459648,-0.11453 -0.374564,-0.0822 -0.3695,-0.0915 0.04936,-0.0913 2.644537,0.003 5.048567,0.96521 6.115195,2.45045 l 0.08346,0.11627 0.250917,-0.12402 c 0.273638,-0.13525 0.593551,-0.22574 1.029363,-0.29112 l 0.278506,-0.0418 0.778275,-0.0142 0.778276,-0.0142 0.49781,0.0305 c 1.25998,0.0771 3.800905,0.40238 6.039765,0.77325 0.42501,0.0704 0.77605,0.12472 0.78009,0.12067 0.004,-0.004 -0.0827,-0.0331 -0.19272,-0.0645 -0.11002,-0.0315 -0.60606,-0.17769 -1.10232,-0.32502 -0.49626,-0.1473 -1.1981,-0.34484 -1.55966,-0.43893 -2.990595,-0.77842 -4.595981,-1.47912 -4.938777,-2.15556 l -0.0624,-0.12327 v -0.13078 -0.13077 l 0.05337,-0.10466 c 0.224693,-0.44043 1.186712,-0.95128 2.388104,-1.26815 l 0.31468,-0.083 -0.817383,-0.003 -0.817374,-0.003 -0.341825,-0.0426 c -1.151288,-0.14348 -2.139404,-0.57787 -2.281056,-1.00284 -0.0052,-0.0156 -0.100062,0.0435 -0.210762,0.13145 -0.42419,0.33709 -1.148636,0.78872 -1.74009,1.08479 -0.527982,0.26429 -1.619829,0.71236 -1.683881,0.69101 -0.0567,-0.019 0.563225,-0.43933 0.916867,-0.62179 2.627426,-1.35554 4.144589,-3.4698 4.402514,-6.1352 l 0.03205,-0.33132 -0.03061,-0.32731 c -0.286765,-3.06184 -3.909077,-5.06552 -8.388985,-4.64036 l -0.328756,0.0312 -0.02856,0.10559 c -0.113441,0.41998 -0.498541,2.00463 -0.590294,2.42906 l -0.112171,0.51887 -0.220916,0.0174 c -0.361851,0.0284 -1.460357,0.27718 -1.52961,0.34642 -0.01121,0.0112 -0.0026,0.13548 0.01969,0.27615 0.022,0.14071 0.04723,0.44784 0.05602,0.68254 l 0.01603,0.4267 0.203412,0.032 c 1.091455,0.17173 1.750977,0.90156 1.986796,2.19855 l 0.05798,0.31892 -2.21e-4,0.79916 -2.22e-4,0.79918 -0.04612,0.36091 c -0.70667,5.52674 -3.84165,11.3712 -8.893503,16.57987 l -0.3041,0.31354 -0.06155,0.22808 c -0.03385,0.12547 -0.07971,0.27887 -0.101934,0.34093 -0.02217,0.0621 -0.04041,0.11424 -0.04041,0.116 9e-6,0.003 0.0578,0.006 0.128506,0.009 0.605513,0.0256 1.684901,0.85742 2.468583,1.90251 l 0.0578,0.0771 -0.09021,-0.19846 c -0.04963,-0.10911 -0.114402,-0.30023 -0.143952,-0.42466 l -0.05371,-0.22623 0.0087,-0.34871 0.0087,-0.34868 0.05933,-0.0954 0.05933,-0.0954 0.134005,-0.0655 c 0.07366,-0.036 0.203617,-0.0724 0.288685,-0.0809 l 0.15468,-0.0153 0.186335,0.0395 c 1.026857,0.21776 2.795125,1.95277 4.477062,4.39281 0.109947,0.15953 0.204256,0.29004 0.209567,0.29004 0.0052,0 -0.06027,-0.14791 -0.145667,-0.32871 z m -17.465229,-1.31476 c 0.0094,-0.0957 0.02276,-0.2146 0.0295,-0.26423 0.0068,-0.0496 -0.01705,0.0136 -0.05302,0.14059 -0.06249,0.22095 -0.06684,0.29765 -0.01671,0.29765 0.01262,0 0.03069,-0.0783 0.04016,-0.17401 z m 6.997432,-1.05051 c 0.273689,-0.20471 0.819139,-0.66754 0.834417,-0.708 0.0043,-0.0115 0.06803,-0.0891 0.141465,-0.17213 0.07341,-0.083 0.189421,-0.22065 0.257763,-0.30572 l 0.12426,-0.15469 -0.449171,0.40882 c -0.247037,0.22483 -0.652309,0.58448 -0.90061,0.79916 -0.248299,0.21469 -0.48699,0.42289 -0.530427,0.46264 l -0.07895,0.0723 0.162789,-0.0981 c 0.08954,-0.054 0.286851,-0.19089 0.438479,-0.30431 z m -8.128889,-0.78442 c 0.923279,-0.27255 2.469132,-1.18671 3.660693,-2.16479 5.023852,-4.12378 8.799219,-8.70358 10.942468,-13.27398 1.405112,-2.99635 2.215068,-6.08059 2.159388,-8.22269 l -0.0139,-0.53446 -0.04382,-0.24491 c -0.17197,-0.95986 -0.54447,-1.44634 -1.268037,-1.65606 l -0.201059,-0.0582 -0.476914,0.003 -0.476921,0.003 -0.244907,0.0452 c -1.298414,0.23946 -2.579167,0.7659 -4.807877,1.97621 -1.083662,0.5885 -1.968789,0.95603 -2.577951,1.0704 l -0.232015,0.0436 -0.275812,-0.0113 -0.275803,-0.0112 -0.192304,-0.095 -0.192285,-0.095 -0.129453,-0.14163 c -0.07469,-0.0817 -0.154287,-0.20429 -0.188169,-0.28978 l -0.05874,-0.14813 8.53e-4,-0.2836 8.53e-4,-0.28356 0.05805,-0.21913 c 0.297279,-1.12247 1.305524,-2.71154 3.369536,-5.31058 l 0.522057,-0.65738 0.225407,-0.20623 c 0.54222,-0.49609 0.954407,-0.78486 1.288644,-0.90281 l 0.178126,-0.0628 h 0.185925 0.185936 l 0.141507,0.0529 c 0.282964,0.10588 0.511984,0.39632 0.583974,0.74057 l 0.03087,0.14746 -0.01543,0.32223 -0.01543,0.32224 -0.07767,0.37776 c -0.09723,0.47288 -0.304223,1.19164 -0.540826,1.87796 -0.100196,0.29067 -0.182233,0.53645 -0.182302,0.54622 -6e-5,0.01 0.124593,-0.0349 0.277023,-0.0992 2.090787,-0.88195 3.903021,-1.50642 4.746355,-1.63551 l 0.203609,-0.0312 0.07077,-0.32469 c 0.163102,-0.7489 0.752425,-3.0301 1.284329,-4.97147 0.09033,-0.32965 0.157289,-0.59912 0.148823,-0.5988 -0.0085,0 -0.223985,0.0612 -0.478909,0.13532 l -0.463502,0.1348 -0.08389,0.34802 c -0.114994,0.47702 -0.293546,1.35701 -0.428915,2.11392 -0.06216,0.34739 -0.123212,0.63014 -0.135744,0.62836 -0.01253,-0.002 -0.280893,-0.0417 -0.596374,-0.0888 l -0.573593,-0.0855 v -0.0443 c 0,-0.0244 0.02259,-0.23969 0.05022,-0.4784 0.361476,-3.12254 -0.140188,-4.90003 -1.494325,-5.29463 l -0.192926,-0.0562 -0.388672,-0.0131 c -1.173301,-0.0393 -2.428341,0.37089 -3.677384,1.20175 -4.431756,2.94802 -7.603251,7.36699 -9.308566,12.97001 -1.462174,4.80413 -1.260356,6.98634 0.665269,7.19366 l 0.277039,0.0298 0.338424,-0.0295 c 1.404753,-0.12242 3.74565,-1.04071 5.752132,-2.25638 0.297757,-0.18041 0.781055,-0.44705 1.074011,-0.59252 l 0.532629,-0.26452 0.356762,-0.11858 c 1.614175,-0.53654 2.483607,0.12244 2.262769,1.71505 -0.402247,2.9008 -2.164214,5.84213 -5.48708,9.15984 -1.167811,1.16599 -1.436794,1.38859 -1.88419,1.55933 l -0.154672,0.059 -0.232527,0.003 -0.232536,0.003 -0.169762,-0.0836 -0.16976,-0.0836 -0.121541,-0.12995 c -0.628764,-0.67218 -0.395537,-2.60108 0.794763,-6.57303 0.199627,-0.66614 0.271063,-0.62612 -0.490989,-0.27511 -1.506455,0.69387 -3.335894,1.43834 -4.951846,2.01511 l -0.34093,0.12169 -0.014,0.0809 c -0.008,0.0445 -0.0605,0.40573 -0.1175,0.80275 -0.35737,2.49195 -1.07784,6.91754 -1.72469,10.59408 -0.0423,0.24032 -0.0727,0.44109 -0.0677,0.44617 0.0159,0.0158 1.3151,-0.38547 1.34664,-0.41595 0.0663,-0.0641 0.42766,-1.30694 0.57686,-1.98405 l 0.0559,-0.25365 0.0425,0.0105 c 0.0234,0.006 0.29004,0.062 0.592642,0.12477 l 0.550156,0.11419 -0.01338,0.0902 c -0.0076,0.0496 -0.04502,0.26424 -0.08355,0.47693 l -0.07017,0.38668 -0.0026,0.55426 -0.0026,0.55426 0.05746,0.18278 c 0.06564,0.20863 0.135565,0.31017 0.249672,0.36244 l 0.07954,0.0364 0.270679,-0.0119 0.270696,-0.0119 z m -25.827174,-4.4618 c 0.43674,-0.0738 1.06845,-0.23417 1.08417,-0.27516 0.0209,-0.0542 -0.10606,-3.10683 -0.22537,-5.42203 -0.32467,-6.2998 -0.84567,-12.65312 -1.46922,-17.9162 -0.0563,-0.4753 -0.10238,-0.86705 -0.10239,-0.8706 -1e-5,-0.003 -0.0175,-0.006 -0.0389,-0.006 -0.0214,0 -0.15769,-0.035 -0.30292,-0.0776 -0.14522,-0.0427 -0.39745,-0.10515 -0.56051,-0.1388 -0.16305,-0.0337 -0.43567,-0.0968 -0.60581,-0.1402 -0.17014,-0.0434 -0.43117,-0.0977 -0.58005,-0.1205 l -0.27068,-0.0415 -0.68382,-0.0149 -0.68382,-0.0149 -0.4247,0.0309 c -2.64508,0.19242 -4.51944,1.09351 -5.90315,2.83789 -0.70401,0.88747 -1.12159,1.81247 -1.2382,2.74261 l -0.0319,0.25491 0.0155,0.44113 0.0155,0.44115 0.0631,0.28357 c 0.28329,1.27336 1.13479,2.65566 2.13016,3.45801 0.40735,0.32836 1.15508,0.83105 1.74012,1.16985 0.22686,0.13137 0.42816,0.25334 0.44735,0.27103 0.0309,0.0285 -0.29679,-0.0413 -0.70274,-0.14961 l -0.12649,-0.0338 -0.26021,0.0592 c -1.01782,0.23155 -3.81415,0.73795 -8.22606,1.48969 -3.20079,0.5454 -6.73618,1.18676 -6.70633,1.2166 0.0113,0.0112 1.65675,-0.13056 2.74918,-0.23707 0.50334,-0.049 1.32699,-0.12924 1.83034,-0.1782 0.50335,-0.0489 1.12231,-0.10291 1.37549,-0.11993 l 0.46031,-0.0309 0.63532,0.0144 0.63531,0.0144 0.33514,0.0517 c 0.43752,0.0674 0.55317,0.0948 0.60034,0.14199 l 0.0389,0.039 -0.0329,0.0795 c -0.0371,0.0897 -0.20317,0.2296 -0.48167,0.40603 -0.10387,0.0658 -0.18602,0.12217 -0.18255,0.12524 0.003,0.003 0.31141,-0.0565 0.68428,-0.1324 1.16536,-0.23723 1.97113,-0.34531 2.57779,-0.34579 h 0.34267 l 0.1987,0.0407 c 0.96381,0.19748 0.61499,1.2167 -0.77114,2.25317 -1.40411,1.04995 -2.89549,1.93485 -5.7586,3.41688 -1.47551,0.76377 -5.00447,2.68582 -4.97865,2.71165 0.003,0.003 0.79967,-0.32535 1.77027,-0.72979 7.91167,-3.29662 12.09655,-4.5471 14.04513,-4.19681 0.25574,0.046 0.22348,0.0688 0.29916,-0.21203 0.11462,-0.42547 0.24715,-0.76843 0.47694,-1.23431 l 0.22888,-0.46404 0.25837,-0.38668 c 1.08523,-1.6242 2.75284,-3.03062 5.19487,-4.38122 0.39504,-0.21848 0.45422,-0.24393 0.45422,-0.19523 0,0.028 0.004,0.0253 -0.41248,0.27047 -3.12005,1.83674 -5.12976,4.28143 -5.47935,6.66533 l -0.0433,0.29517 0.0149,0.20662 c 0.008,0.11365 0.0227,0.26843 0.0322,0.34395 l 0.0173,0.13734 -0.032,0.0969 -0.032,0.0969 0.0304,0.24266 c 0.16689,1.3325 0.83273,2.75109 1.74135,3.71003 0.1142,0.12051 0.24654,0.26553 0.29411,0.32224 0.69765,0.83193 1.87812,1.4517 3.21152,1.6861 l 0.28358,0.0499 0.36479,0.003 0.3648,0.003 z m 30.496224,-6.49296 c 0.816402,-0.35654 1.574166,-0.70782 2.16498,-1.00356 l 0.464688,-0.23261 0.226192,-0.30115 c 0.264081,-0.35158 0.824647,-1.17162 0.810545,-1.18573 -0.0052,-0.005 -0.206668,0.081 -0.447422,0.19181 -0.860719,0.39615 -1.83094,0.75204 -2.525886,0.92648 -0.365058,0.0916 -0.886423,0.18838 -0.916178,0.17001 -0.02745,-0.017 -0.239595,0.76253 -0.447303,1.64404 -0.02276,0.0967 -0.04893,0.10487 0.670384,-0.20929 z M -112.8997,-159.6943 c 0.16163,-0.61677 0.39435,-1.49053 0.51717,-1.94167 0.12281,-0.45114 0.21919,-0.82438 0.21416,-0.8294 -0.0372,-0.0372 -1.426,-0.1697 -1.44963,-0.1383 -0.004,0.005 0.0194,0.33979 0.0516,0.74388 0.0322,0.40411 0.0996,1.29157 0.14987,1.97213 0.0502,0.68059 0.0993,1.34183 0.10897,1.46944 l 0.0176,0.23203 0.0482,-0.19336 c 0.0265,-0.10636 0.18043,-0.69799 0.34206,-1.31475 z m 35.537726,-2.63412 c 0.251676,-0.17758 0.548196,-0.32825 1.147188,-0.58287 1.743312,-0.74102 4.365061,-2.11936 4.031242,-2.11936 -0.07673,0 -0.573544,0.22581 -1.412436,0.64198 -2.091797,1.03774 -3.080561,1.32886 -3.705632,1.09103 l -0.132983,-0.0506 -0.01168,0.0546 c -0.01194,0.0557 -0.318525,1.22411 -0.345823,1.31783 -0.009,0.0307 0.04118,-0.006 0.123765,-0.0914 0.0763,-0.0786 0.214197,-0.19618 0.306359,-0.26122 z m -2.353847,-0.14314 c -0.0068,-0.0251 -0.01227,-0.0109 -0.01288,0.0318 -4.44e-4,0.0426 0.0052,0.063 0.01185,0.0456 0.0068,-0.0174 0.0076,-0.0523 8.53e-4,-0.0774 z m 0.349814,-1.67839 0.03888,-0.16337 -0.05507,0.0151 c -0.03026,0.008 -0.09857,0.0224 -0.151738,0.0313 l -0.09668,0.0163 -8.53e-4,0.15781 c -8.52e-4,0.1647 -0.03777,0.96246 -0.0624,1.35071 l -0.01432,0.22499 0.151602,-0.73471 c 0.08338,-0.40409 0.169114,-0.80823 0.190513,-0.89808 z m -45.641033,0.69827 c -0.0251,-0.19495 -0.0649,-0.50237 -0.0884,-0.68313 l -0.0427,-0.3287 h -0.1717 c -0.43336,0 -0.88518,-0.22427 -1.52306,-0.75602 l -0.21913,-0.18267 0.16757,0.18398 c 0.0922,0.10117 0.47677,0.5183 0.85467,0.92693 0.37792,0.40861 0.77234,0.844 0.87651,0.96753 0.10417,0.12352 0.18996,0.22501 0.19064,0.22558 4.9e-4,0 -0.0193,-0.15853 -0.0444,-0.3535 z m 13.18629,-0.21916 c 0.49969,-1.78564 1.39335,-4.80482 1.98967,-6.72197 0.28019,-0.90083 1.00061,-3.17258 1.0321,-3.25466 l 0.014,-0.0365 -0.4587,-0.21376 c -1.38132,-0.64377 -2.36418,-0.93182 -3.52647,-1.03349 l -0.36091,-0.0315 -0.47692,0.0149 c -0.56523,0.0176 -1.11911,0.0858 -1.72268,0.21179 -0.38006,0.0793 -1.28808,0.30767 -1.3098,0.32938 -0.004,0.004 0.0321,0.41297 0.0805,0.90861 0.0484,0.49564 0.136,1.42321 0.19469,2.06124 0.0587,0.63806 0.10973,1.16323 0.11345,1.16707 0.004,0.004 0.19697,-0.0676 0.42944,-0.15875 0.47879,-0.18773 1.37366,-0.50561 1.42332,-0.50561 h 0.0329 l 0.0707,0.72827 c 0.13449,1.38544 0.40071,4.34196 0.49386,5.4846 0.0514,0.63094 0.0986,1.17213 0.10476,1.20262 l 0.0112,0.0555 0.30306,0.0165 c 0.37712,0.0205 0.96647,0.10228 1.20534,0.16701 0.0992,0.0268 0.19205,0.0499 0.20623,0.0512 0.0142,0.002 0.0818,-0.19781 0.15022,-0.44237 z m 35.313578,-2.18883 c 0.829123,-1.00436 1.898864,-2.08099 3.746836,-3.771 0.792745,-0.72494 2.521172,-2.40568 2.413596,-2.347 -0.09433,0.0515 -2.463743,1.93788 -3.109641,2.47573 -1.154033,0.96099 -2.654896,2.34661 -3.904901,3.6051 l -0.373114,0.37566 0.192652,-0.0545 c 0.105968,-0.0299 0.320265,-0.092 0.476231,-0.1379 0.317451,-0.0934 0.314918,-0.0943 0.259332,0.0928 -0.02208,0.0745 -0.03982,0.14199 -0.03938,0.15006 8.52e-4,0.0171 0.04135,-0.0292 0.338398,-0.389 z m -3.238813,-0.30185 c 0.05474,-0.4207 0.04024,-0.45975 -0.04647,-0.12522 l -0.07136,0.27546 0.01705,0.0714 c 0.0422,0.17636 0.05174,0.15536 0.100767,-0.22163 z"
     id="path7"
     sodipodi:nodetypes="ccccsccsssccsccccccscccscccccscsssccsccccssssccccccsccccscscscsccsscccsccsccssccssccssccscsscscccsscscssscscscsscsccccccscscccscscccccccsccccscscccssccscsccccscsccccccccccccssccsccssssssscssscsccssscscccccccccccccccssccccsccscccssscccscsssssssccsccssssssscccccccccccssscccccscccsccscscccccscsscscccccccccccsscccccssccccsscccscsccccccssssssccscssccsssscssccccscsccccccccscccsscccccsccsscscccccccsccccssccccccccssscscccccccccsccccssccccccscscccccssscccccccccsscccsccccccsssscsccscccssscscsccsccccssccccccccscsssccccscssscccscssssccssccscscsccscsccccccccscssccccccscscscssccccccssccccsscccccccsccccccssccsccsccscccccccsccccscccscscsscccccscccsscccccsccccsscssccccccssscccccccsscccccccccccscssccccccccssscsccscscsccccscsccssscssccsssccccccsssscccscsccccccccccccccccccssssccsccccccccccssscsccccccsccccccscccccccsccccscssscscsccccssccccccsscsscsscscscscssccccscsssccccsscccccccccccccsccsccsscccscsscsscccccssssccscsssccccccsccsscccccssscccss" /></svg>
