<svg width="800" height="600" xmlns="http://www.w3.org/2000/svg">
 <g id="Layer_1">
  <title>Layer 1</title>
  <g>
   <path fill="#ffffff" d="m334.15001,306.07212c-8,-15.4 -15.7,-30.1 -23.2,-44.5l-33.8,0l0,76l21.5,0l0,-46.5c0.4,-0.2 0.8,-0.3 1.2,-0.5c8,15.7 16,31.4 24.1,47.1l20.3,0c7.8,-15.9 15.6,-31.5 23.3,-47.2c0.4,0.1 0.8,0.2 1.2,0.4l0,46.7l21.2,0l0,-76.1l-33.5,0c-7.3,14.7 -14.7,29.3 -22.3,44.6zm314.4,5.7c-0.4,0.1 -0.8,0.3 -1.2,0.4c-12.1,-17 -24.3,-34 -36,-50.4l-35.7,0l0,75.8l21.6,0l0,-50c0.3,-0.1 0.6,-0.1 0.9,-0.2c11.8,16.9 23.5,33.7 35.1,50.3l35.6,0l0,-76l-20.5,0c0.2,16.8 0.2,33.5 0.2,50.1zm-493.5,-26.6l-41.1,0l0,-24.3l-26,0l0,77.7l26.3,0l0,-27.1l40.9,0l0,27.1l25.3,0l0,-77.7l-25.4,0l0,24.3zm398.6,-22.4c-18.2,-2.2 -36.4,-2.2 -54.6,0c-9.6,1.2 -15.4,6.8 -17.2,16.5c-2.6,13.7 -2.7,27.4 -0.2,41c2.3,12.1 7.5,16.5 20,17.7c8,0.8 16.1,0.9 24.9,1.3c8.3,-0.4 17.2,-0.6 26.1,-1.5c10.8,-1.1 16.1,-5.9 18.5,-16.4c3.1,-13.6 2.6,-27.3 0.4,-41c-1.5,-10.2 -7.6,-16.4 -17.9,-17.6zm-3.4,46.5c-0.2,5.7 -2.3,8.6 -7.9,8.8c-10.9,0.4 -21.9,0.1 -32.8,-0.1c-4.2,-0.1 -6.7,-2.8 -6.9,-6.9c-0.3,-7.4 -0.5,-14.7 0,-22.1c0.4,-5.5 3.1,-7.7 8.9,-8c5,-0.3 9.9,-0.1 14.9,-0.1c4.8,0 9.6,-0.2 14.4,0c6.6,0.3 9.2,3 9.4,9.7c0.2,6.4 0.2,12.6 0,18.7zm-292.7,-46.1c-18.8,-2.7 -37.7,-2.7 -56.5,-0.2c-9.3,1.2 -14.6,6.9 -16.4,16c-2.7,13.5 -2.8,27 -0.4,40.5c2.2,12.8 7.3,17.3 20.3,18.6c8,0.8 16.1,0.9 25,1.3c8.1,-0.5 17.1,-0.6 25.9,-1.5c9.3,-0.9 15.6,-5.9 17.5,-15.5c2.9,-14.8 2.9,-29.7 -0.1,-44.5c-1.8,-8.3 -6.9,-13.5 -15.3,-14.7zm-4.8,47.3c-0.2,4.2 -2.5,7.4 -7,7.5c-11.1,0.2 -22.3,0.2 -33.4,0c-4.4,-0.1 -7,-2.9 -7.2,-7.3c-0.2,-7.2 -0.4,-14.4 0.1,-21.6c0.3,-5 2.7,-6.9 7.8,-7.1c5.5,-0.2 11,-0.1 16.5,-0.1c5.2,0 10.3,-0.2 15.5,0c4.9,0.2 7.4,2.4 7.7,7.3c0.3,7.2 0.2,14.3 0,21.3zm209.9,-19.2c-7.7,-0.7 -15.4,-0.8 -23.2,-1.1c-5.5,-0.2 -11,0 -16.5,-0.1c-3.6,-0.1 -6.4,-1.6 -6.7,-5.7c-0.3,-4.2 2.4,-5.5 5.8,-5.7c7.4,-0.4 14.8,-0.6 22.1,-0.7c5.2,-0.1 10.1,0.7 10.8,7.2c6.9,0.4 13.3,0.7 20.4,1.1c-0.3,-4 -0.2,-7.4 -0.8,-10.7c-1.4,-8.2 -4.9,-12.1 -13.1,-12.9c-17.7,-1.9 -35.4,-2.1 -53,0.9c-6.3,1.1 -11.6,4.4 -12.8,11.1c-1.1,6 -1.4,12.3 -0.8,18.4c0.8,8.2 4.5,11.6 12.8,13.2c3.2,0.6 6.5,0.9 9.7,1c10.5,0.3 21,0.4 31.5,0.8c5.8,0.2 8.6,2.5 8.4,6.3c-0.1,3.5 -2.7,5.2 -8.4,5.7c-0.9,0.1 -1.7,0.1 -2.6,0.1l-19.1,0c-5.7,0 -11.2,-0.4 -12.5,-7.4l-20.1,0c0,2.7 -0.2,4.9 0,7.1c1.3,12.1 4.8,16.1 16.9,17.4c8,0.8 16.1,0.8 24.2,0.8c9.1,-0.1 18.2,-0.2 27.3,-1.1c8.8,-0.9 12.9,-5 14.2,-13.7c0.8,-5.2 1.1,-10.6 0.8,-15.9c-0.6,-10.7 -5,-15.2 -15.3,-16.1zm333.4,3.9l0,-18.8c-14.9,-5.6 -29.5,-11.1 -44.2,-16.4c-1.5,-0.5 -3.5,-0.8 -4.9,-0.3c-14.6,5.4 -29.1,11 -43.5,16.5l0,18.9c3.1,-1.1 5.7,-2 8.6,-3l0,15.4c-3.1,-1 -5.8,-1.8 -8.8,-2.8l0,18.7c12.9,5.1 25.8,10.1 38.6,15.6c5.1,2.2 9.4,2.1 14.5,0c13.1,-5.5 26.4,-10.5 39.6,-15.7l0,-18.7c-3.1,1 -5.9,1.9 -8.9,2.9l0,-15.4c3.1,1 6,2 9,3.1zm-50.8,41.3c-13.2,-5 -25.9,-9.8 -38.7,-14.7l0,-12.4c13.1,5 25.8,9.8 38.7,14.6l0,12.5zm20.5,-20.5c-5.5,2.2 -11,4.4 -16.7,6.6c-5.2,-2.2 -10.4,-4.3 -15.7,-6.5l0,-31.8c5.2,-2.2 10.4,-4.3 15.7,-6.5c5.6,2.2 11.1,4.4 16.7,6.6l0,31.6zm-11.1,-39.6l0,-12.4c13.2,5 25.9,9.9 38.7,14.7l0,12.5c-13.1,-5 -25.8,-9.9 -38.7,-14.8zm-750.6,7.1l28.5,0l0,55l25.7,0l0,-55.4l27,0l0,-22.3l-81.3,0c0.1,7.6 0.1,14.8 0.1,22.7z"/>
  </g>
 </g>

</svg>