<svg width="800" height="600" xmlns="http://www.w3.org/2000/svg">
 <g>
  <title>Layer 1</title>

  <line fill="#ffffff" stroke-miterlimit="10" stroke-width="6px" stroke="#ffffff" y2="271.91976" x2="803.30797" y1="271.91976" x1="-0.45203" class="cls-1"/>
  <path fill="#ffffff" d="m374.27798,448.87976c-26.42,0 -43.74,-11.63 -46.62,-22.57l8.7,-2.29c1.46,5.53 14.07,15.86 37.92,15.86c14.52,0 28.25,-5.51 37.66,-15.1a41.11,41.11 0 0 0 12,-30.14c-0.6,-31.18 -25.73,-45.39 -48.83,-45.41l-0.09,0c-13.72,0 -18,1.91 -21.1,3.31l-1.47,0.64l-2.16,0.89l-2,-1.26c-0.93,-0.59 -3.77,-2.4 -2.68,-5.75l20.15,-59l64,0l0,9l-57.5,0l-15.33,44.91c3.83,-1 9.35,-1.71 18.14,-1.71l0.09,0c27.34,0 57.1,17 57.81,54.24a50.51,50.51 0 0 1 -14.6,36.61c-11.1,11.28 -27.17,17.77 -44.09,17.77z" class="cls-2"/>
  <path stroke-width="4px" stroke="#ffffff" fill="#ffffff" stroke-miterlimit="10" d="m803.30798,304.74976c3,-0.59 -11,3.88 -8.16,-14.49c0.24,-1.57 -0.64,-4.77 -0.87,-2.72c0,20.53 -3.34,22.34 -6.67,22.57c-5.15,0.35 -8.28,-5.14 -9,-21.74c0,-0.16 -0.23,-0.17 -0.3,0c-2.75,6.3 6.75,15 -1.59,28.62c0,0 -2.91,3.13 -1.56,1.56" class="cls-3"/>
  <g data-name="LOGO PHILIPS" id="svg_3">
   <path fill="#ffffff" transform="translate(-257.43 1.84)" d="m730.02797,185.47976c16.91,4.55 38,13.62 37.68,33.72c-0.6,37.27 -48.21,33.9 -65.06,29.84l0,-24.26c35.35,10.13 58.86,-6.58 14.68,-17.64c-12.39,-4.46 -17.17,-16.23 -16.65,-26.71c3.39,-32.78 30.68,-33.61 57.29,-29.79l0,24c-27.14,-13.12 -37.75,7 -27.94,10.77" class="cls-2" id="svg_12"/>
   <polyline fill="#ffffff" points="114.70797729492188,189.31976318359375 142.15797424316406,189.31976318359375 142.14797973632812,152.84976196289062 167.64797973632812,152.84976196289062 167.64797973632812,250.89974975585938 142.15797424316406,250.89974975585938 142.15797424316406,211.53976440429688 114.70797729492188,211.53976440429688 114.6979751586914,250.89974975585938 89.177978515625,250.89974975585938 89.177978515625,152.84976196289062 114.6979751586914,152.84976196289062 114.70797729492188,189.31976318359375 " class="cls-2" id="svg_11"/>
   <rect fill="#ffffff" height="98.06" width="25.52" y="152.84976" x="191.66797" class="cls-2" id="svg_10"/>
   <rect fill="#ffffff" height="98.06" width="25.52" y="152.84976" x="305.67797" class="cls-2" id="svg_9"/>
   <polyline fill="#ffffff" points="266.7179870605469,228.6397705078125 293.0279846191406,228.6397705078125 293.0279846191406,250.89974975585938 241.19796752929688,250.89974975585938 241.19796752929688,152.84976196289062 266.7179870605469,152.84976196289062 266.7179870605469,228.6397705078125 " class="cls-2" id="svg_8"/>
   <path fill="#ffffff" transform="translate(-257.43 1.84)" d="m259.41797,172.58976l0,-21.68c38.39,0 76.59,-6.07 76.59,38.6c0,25.23 -16.79,40.53 -56.64,38.57l5.57,-22.24c34.06,5.45 32.53,-40.47 0,-33.09l-25.51,-0.16" class="cls-2" id="svg_7"/>
   <polyline fill="#ffffff" points="27.52797508239746,250.8897705078125 1.9879748225212097,250.8797607421875 1.9879748225212097,171.499755859375 27.497974395751953,171.65975952148438 27.52797508239746,250.8897705078125 " class="cls-2" id="svg_6"/>
   <path fill="#ffffff" transform="translate(-257.43 1.84)" d="m612.88797,172.58976l0,-21.68c38.39,0 76.6,-6.07 76.6,38.6c0,26.33 -16.79,40.53 -56.65,38.57l5.57,-22.24c34.06,5.45 32.53,-40.47 0,-33.09l-25.51,-0.16" class="cls-2" data-name="path17" id="svg_5"/>
   <polyline fill="#ffffff" points="380.99798583984375,250.8897705078125 355.4579772949219,250.8797607421875 355.4579772949219,171.499755859375 380.9679870605469,171.65975952148438 380.99798583984375,250.8897705078125 " class="cls-2" data-name="polyline19" id="svg_4"/>
  </g>
  <path fill="#ffffff" d="m187.32798,448.87976a80.43,80.43 0 1 1 66.69,-125.4l-7.45,5a71.44,71.44 0 1 0 11.46,50.17l-64.19,0l0,-9l74.09,0l-0.37,4.84a80.42,80.42 0 0 1 -80.2,74.35l-0.03,0.04z" class="cls-2"/>
  <polygon fill="#ffffff" points="53.61797332763672,449.0897521972656 -1.732025146484375,286.509765625 10.117975234985352,286.509765625 57.52797317504883,425.55975341796875 105.8979721069336,286.509765625 117.87797546386719,286.509765625 61.607975006103516,449.0897521972656 53.61797332763672,449.0897521972656 " class="cls-2"/>
  <path fill="#ffffff" transform="translate(-257.43 1.84)" d="m747.36797,446.83976c-13.93,0 -26.85,-8.67 -36.39,-24.4c-9.11,-15 -14.13,-34.93 -14.13,-56s5,-41 14.13,-56c9.54,-15.74 22.46,-24.41 36.39,-24.41s26.85,8.67 36.39,24.41c9.11,15 14.13,34.92 14.13,56s-5,41 -14.13,56c-9.49,15.73 -22.49,24.4 -36.39,24.4zm0,-151.84c-10.66,0 -20.85,7.13 -28.69,20.07c-8.28,13.65 -12.83,31.88 -12.83,51.35s4.55,37.7 12.83,51.35c7.84,12.94 18,20.07 28.69,20.07s20.85,-7.13 28.69,-20.07c8.28,-13.65 12.83,-31.88 12.83,-51.35s-4.55,-37.7 -12.83,-51.35c-7.79,-12.94 -18.03,-20.07 -28.69,-20.07z" class="cls-2"/>
  <path fill="#ffffff" transform="translate(-257.43 1.84)" d="m856.36797,446.83976c-13.93,0 -26.85,-8.67 -36.39,-24.4c-9.12,-15 -14.14,-34.93 -14.14,-56s5,-41 14.14,-56c9.54,-15.74 22.46,-24.41 36.39,-24.41s26.85,8.67 36.39,24.41c9.11,15 14.13,34.92 14.13,56s-5,41 -14.13,56c-9.49,15.73 -22.49,24.4 -36.39,24.4zm0,-151.84c-10.66,0 -20.85,7.13 -28.7,20.07c-8.27,13.65 -12.83,31.88 -12.83,51.35s4.56,37.7 12.83,51.35c7.85,12.94 18,20.07 28.7,20.07s20.84,-7.13 28.69,-20.07c8.27,-13.65 12.83,-31.88 12.83,-51.35s-4.56,-37.7 -12.83,-51.35c-7.85,-12.94 -18.04,-20.07 -28.69,-20.07z" class="cls-2"/>
  <path fill="#ffffff" transform="translate(-257.43 1.84)" d="m965.72797,446.83976c-13.93,0 -26.85,-8.67 -36.39,-24.4c-9.11,-15 -14.13,-34.93 -14.13,-56s5,-41 14.13,-56c9.54,-15.74 22.46,-24.41 36.39,-24.41s26.85,8.67 36.39,24.41c9.11,15 14.13,34.92 14.13,56s-5,41 -14.13,56c-9.54,15.73 -22.46,24.4 -36.39,24.4zm0,-151.84c-10.66,0 -20.85,7.13 -28.69,20.07c-8.27,13.65 -12.83,31.88 -12.83,51.35s4.56,37.7 12.83,51.35c7.84,12.94 18,20.07 28.69,20.07s20.85,-7.13 28.69,-20.07c8.28,-13.65 12.83,-31.88 12.83,-51.35s-4.55,-37.7 -12.83,-51.35c-7.84,-12.94 -18.03,-20.07 -28.69,-20.07z" class="cls-2"/>
 </g>

</svg>