<svg width="800" height="600" xmlns="http://www.w3.org/2000/svg">
 <g id="Layer_1">
  <title>Layer 1</title>

  <path stroke="#ffffff" stroke-width="12px" stroke-miterlimit="10" stroke-linecap="round" fill="none" d="m26.89999,456.69999c8,-14.3 163.2,-292.9 274.3,-290.7c131.5,2.7 28.4,276.4 133.3,288c97.9,10.8 305.8,-314.7 305.8,-314.7" class="cls-2"/>
  <polygon fill="#ffffff" points="773.1000061035156,355.6999816894531 55.79999542236328,417.0999755859375 52.69999313354492,233.8999786376953 769.8000183105469,168.59999084472656 773.1000061035156,355.6999816894531 " class="cls-3"/>
  <polygon fill="#ffffff" points="767.4000244140625,371 50.899993896484375,431.29998779296875 47.69999313354492,244.79998779296875 764.300048828125,182.29998779296875 767.4000244140625,371 " class="cls-4"/>
  <g opacity="0.25" class="cls-6">
   <polygon points="117.89999389648438,285.6999816894531 121.49999237060547,397.6999816894531 154.29998779296875,394.1999816894531 183.1999969482422,321.1999816894531 181.5,391.0999755859375 217.89999389648438,388 266.79998779296875,271.4999694824219 236.59999084472656,273.79998779296875 204.79998779296875,359.1999816894531 204.59999084472656,278.1999816894531 178.29998779296875,280 145.49999237060547,364.8999938964844 146.29999542236328,282.5999755859375 117.89999389648438,285.6999816894531 "/>
   <path transform="translate(-15.3 -7.3)" d="m347.19999,273.39999l-38.9,3.2l-56.8,117.8l31.4,-2.1l9.9,-22.5l33.8,-2.8l0.4,20.6l28.9,-2.1l-8.7,-112.1zm-44,71.6l20.9,-49.5l1.1,47.5l-22,2z"/>
   <path transform="translate(-15.3 -7.3)" d="m438.29999,295.29999l10.5,-23.7s-10.2,-6.2 -34.2,-5.5s-39.3,22.8 -38.7,38.2s5.4,21.3 10.5,24.9s20,12.6 19.1,20s-7.7,10.8 -19.4,9.2s-16.9,-5.3 -21.8,-6.7c-0.1,2.7 0,27 0,27s7.3,5.6 26.6,5s43.7,-10.5 44.7,-38.3c0.7,-19.4 -11.1,-27.2 -16,-30.1c-13.8,-8 -14.7,-13 -12.1,-19s13.2,-8.7 30.8,-1z"/>
   <path transform="translate(-15.3 -7.3)" d="m466.69999,263.29999l-23.5,114.2s27.1,-1.2 26.9,-1.8s15.4,-82.2 15.4,-82.2l0,79.9l28.9,-2.2l37.2,-83.8l-17.9,82.3s26.6,-1.8 26.6,-2.3s24.2,-114.5 24.2,-114.5l-40.6,3.7l-36.7,82.7l-0.3,-79.5l-40.2,3.5z"/>
   <polygon points="572.6999816894531,303.3999938964844 615.1000061035156,300 610.8000183105469,323.8999938964844 568.1999816894531,328 572.6999816894531,303.3999938964844 "/>
   <path transform="translate(-15.3 -7.3)" d="m725.69999,240.89999l-27.7,2l-59.3,75.7l-3.5,20.8l41.6,-4.1l-4.5,22.2l29.5,-2.5l3.6,-22.7l12.3,-0.6l4.6,-22.6l-11.2,0.7l14.6,-68.9zm-43.4,70.9l-16.2,1.4l24,-32.3l-7.8,30.9z"/>
  </g>
  <polygon fill="#000000" points="102.89999389648438,271.6999816894531 106.49999237060547,383.6999816894531 139.3000030517578,380.1999816894531 168.1999969482422,307.1999816894531 166.5,377.1000061035156 202.89999389648438,374 251.79998779296875,257.4999694824219 221.59999084472656,259.79998779296875 189.79998779296875,345.1999816894531 189.59999084472656,264.1999816894531 163.29998779296875,266 130.5,350.8999938964844 131.3000030517578,268.5999755859375 102.89999389648438,271.6999816894531 " class="cls-8"/>
  <path fill="#000000" d="m317.89999,252.09999l-38.9,3.2l-56.8,117.8l31.4,-2.1l9.9,-22.5l33.8,-2.8l0.4,20.6l28.9,-2.1l-8.7,-112.1zm-44,71.6l20.9,-49.5l1.1,47.5l-22,2z" class="cls-8"/>
  <path fill="#000000" d="m407.99999,273.99999l10.5,-23.7s-10.2,-6.2 -34.2,-5.5s-39.3,22.8 -38.7,38.2s5.2,20.6 10.5,24.9s20,12.6 19.1,20s-7.7,10.8 -19.4,9.2s-16.9,-5.3 -21.8,-6.7c-0.1,2.7 0,27 0,27s7.3,5.6 26.6,5s43.7,-10.5 44.7,-38.3c0.7,-19.4 -11.1,-27.2 -16,-30.1c-13.8,-8 -14.7,-13 -12.1,-19s13.2,-8.7 30.8,-1z" class="cls-8"/>
  <path fill="#000000" d="m436.39999,241.99999l-23.5,114.2s27.1,-1.2 26.9,-1.8s15.4,-82.2 15.4,-82.2l0,79.9l28.9,-2.2l37.2,-83.8l-17.9,82.3s26.6,-1.8 26.6,-2.3s24.2,-114.5 24.2,-114.5l-40.6,3.7l-36.7,82.7l-0.3,-79.5l-40.2,3.5z" class="cls-8"/>
  <polygon fill="#000000" points="557.6999816894531,289.3999938964844 600.1000061035156,286 595.8000183105469,309.8999938964844 553.1999816894531,314 557.6999816894531,289.3999938964844 " class="cls-8"/>
  <path fill="#000000" d="m695.39999,219.59999l-27.7,2l-59.3,75.7l-3.5,20.8l41.6,-4.1l-4.5,22.2l29.5,-2.5l3.6,-22.7l12.3,-0.6l4.6,-22.6l-11.2,0.7l14.6,-68.9zm-43.4,70.9l-16.2,1.4l24,-32.3l-7.8,30.9z" class="cls-8"/>
 </g>

</svg>